%TF.GenerationSoftware,KiCad,Pcbnew,7.0.5*%
%TF.CreationDate,2024-01-24T13:57:34+02:00*%
%TF.ProjectId,Pi HAT,50692048-4154-42e6-9b69-6361645f7063,1.1.2*%
%TF.SameCoordinates,Original*%
%TF.FileFunction,Soldermask,Bot*%
%TF.FilePolarity,Negative*%
%FSLAX46Y46*%
G04 Gerber Fmt 4.6, Leading zero omitted, Abs format (unit mm)*
G04 Created by KiCad (PCBNEW 7.0.5) date 2024-01-24 13:57:34*
%MOMM*%
%LPD*%
G01*
G04 APERTURE LIST*
G04 Aperture macros list*
%AMFreePoly0*
4,1,19,0.550000,-0.750000,0.000000,-0.750000,0.000000,-0.744911,-0.071157,-0.744911,-0.207708,-0.704816,-0.327430,-0.627875,-0.420627,-0.520320,-0.479746,-0.390866,-0.500000,-0.250000,-0.500000,0.250000,-0.479746,0.390866,-0.420627,0.520320,-0.327430,0.627875,-0.207708,0.704816,-0.071157,0.744911,0.000000,0.744911,0.000000,0.750000,0.550000,0.750000,0.550000,-0.750000,0.550000,-0.750000,
$1*%
%AMFreePoly1*
4,1,19,0.000000,0.744911,0.071157,0.744911,0.207708,0.704816,0.327430,0.627875,0.420627,0.520320,0.479746,0.390866,0.500000,0.250000,0.500000,-0.250000,0.479746,-0.390866,0.420627,-0.520320,0.327430,-0.627875,0.207708,-0.704816,0.071157,-0.744911,0.000000,-0.744911,0.000000,-0.750000,-0.550000,-0.750000,-0.550000,0.750000,0.000000,0.750000,0.000000,0.744911,0.000000,0.744911,
$1*%
%AMFreePoly2*
4,1,19,0.500000,-0.750000,0.000000,-0.750000,0.000000,-0.744911,-0.071157,-0.744911,-0.207708,-0.704816,-0.327430,-0.627875,-0.420627,-0.520320,-0.479746,-0.390866,-0.500000,-0.250000,-0.500000,0.250000,-0.479746,0.390866,-0.420627,0.520320,-0.327430,0.627875,-0.207708,0.704816,-0.071157,0.744911,0.000000,0.744911,0.000000,0.750000,0.500000,0.750000,0.500000,-0.750000,0.500000,-0.750000,
$1*%
%AMFreePoly3*
4,1,19,0.000000,0.744911,0.071157,0.744911,0.207708,0.704816,0.327430,0.627875,0.420627,0.520320,0.479746,0.390866,0.500000,0.250000,0.500000,-0.250000,0.479746,-0.390866,0.420627,-0.520320,0.327430,-0.627875,0.207708,-0.704816,0.071157,-0.744911,0.000000,-0.744911,0.000000,-0.750000,-0.500000,-0.750000,-0.500000,0.750000,0.000000,0.750000,0.000000,0.744911,0.000000,0.744911,
$1*%
%AMFreePoly4*
4,1,6,1.000000,0.000000,0.500000,-0.750000,-0.500000,-0.750000,-0.500000,0.750000,0.500000,0.750000,1.000000,0.000000,1.000000,0.000000,$1*%
G04 Aperture macros list end*
%ADD10C,2.700000*%
%ADD11R,2.400000X2.400000*%
%ADD12C,2.400000*%
%ADD13R,1.700000X1.700000*%
%ADD14O,1.700000X1.700000*%
%ADD15C,3.000000*%
%ADD16C,2.500000*%
%ADD17FreePoly0,90.000000*%
%ADD18R,1.500000X1.000000*%
%ADD19FreePoly1,90.000000*%
%ADD20C,1.500000*%
%ADD21FreePoly2,270.000000*%
%ADD22FreePoly3,270.000000*%
%ADD23R,1.500000X1.500000*%
%ADD24FreePoly4,270.000000*%
%ADD25FreePoly4,90.000000*%
%ADD26FreePoly2,0.000000*%
%ADD27FreePoly3,0.000000*%
%ADD28FreePoly0,180.000000*%
%ADD29R,1.000000X1.500000*%
%ADD30FreePoly1,180.000000*%
G04 APERTURE END LIST*
D10*
%TO.C,H1*%
X121032000Y-94568000D03*
%TD*%
%TO.C,H2*%
X179032000Y-94568000D03*
%TD*%
%TO.C,H3*%
X179032000Y-117568000D03*
%TD*%
%TO.C,H4*%
X121032000Y-117568000D03*
%TD*%
D11*
%TO.C,J1*%
X179324000Y-111450000D03*
D12*
X179324000Y-107950000D03*
X179324000Y-104450000D03*
X179324000Y-100950000D03*
%TD*%
D13*
%TO.C,J9*%
X124985000Y-130460000D03*
D14*
X127525000Y-130460000D03*
X130065000Y-130460000D03*
%TD*%
D15*
%TO.C,K1*%
X140332000Y-100424605D03*
D16*
X134282000Y-102374605D03*
D15*
X134282000Y-114574605D03*
X146332000Y-114624605D03*
D16*
X146282000Y-102374605D03*
%TD*%
D15*
%TO.C,K2*%
X157232000Y-100457000D03*
D16*
X151182000Y-102407000D03*
D15*
X151182000Y-114607000D03*
X163232000Y-114657000D03*
D16*
X163182000Y-102407000D03*
%TD*%
D13*
%TO.C,J11*%
X120700000Y-123375000D03*
D14*
X120700000Y-125915000D03*
%TD*%
D11*
%TO.C,J5*%
X153700000Y-127275000D03*
D12*
X157200000Y-127275000D03*
X160700000Y-127275000D03*
%TD*%
D11*
%TO.C,J6*%
X136800000Y-127315000D03*
D12*
X140300000Y-127315000D03*
X143800000Y-127315000D03*
%TD*%
D15*
%TO.C,J4*%
X126111000Y-102558000D03*
X119461000Y-102558000D03*
X123561000Y-107258000D03*
%TD*%
D17*
%TO.C,JP12*%
X167232500Y-119550000D03*
D18*
X167232500Y-118250000D03*
D19*
X167232500Y-116950000D03*
%TD*%
D20*
%TO.C,TP7*%
X170383200Y-109474000D03*
%TD*%
D21*
%TO.C,JP8*%
X163550000Y-106500000D03*
D22*
X163550000Y-107800000D03*
%TD*%
D20*
%TO.C,TP6*%
X170891200Y-101041200D03*
%TD*%
D23*
%TO.C,JP3*%
X151327500Y-107650000D03*
X151327500Y-110050000D03*
D24*
X151327500Y-106850000D03*
D25*
X151327500Y-110850000D03*
%TD*%
D26*
%TO.C,JP5*%
X129601200Y-127711200D03*
D27*
X130901200Y-127711200D03*
%TD*%
D21*
%TO.C,JP10*%
X168850000Y-127950000D03*
D22*
X168850000Y-129250000D03*
%TD*%
D23*
%TO.C,JP1*%
X153984000Y-107639000D03*
X153984000Y-110039000D03*
D24*
X153984000Y-106839000D03*
D25*
X153984000Y-110839000D03*
%TD*%
D20*
%TO.C,TP8*%
X172110400Y-104749600D03*
%TD*%
D13*
%TO.C,J7*%
X125902000Y-95838000D03*
D14*
X125902000Y-93298000D03*
X128442000Y-95838000D03*
X128442000Y-93298000D03*
X130982000Y-95838000D03*
X130982000Y-93298000D03*
X133522000Y-95838000D03*
X133522000Y-93298000D03*
X136062000Y-95838000D03*
X136062000Y-93298000D03*
X138602000Y-95838000D03*
X138602000Y-93298000D03*
X141142000Y-95838000D03*
X141142000Y-93298000D03*
X143682000Y-95838000D03*
X143682000Y-93298000D03*
X146222000Y-95838000D03*
X146222000Y-93298000D03*
X148762000Y-95838000D03*
X148762000Y-93298000D03*
X151302000Y-95838000D03*
X151302000Y-93298000D03*
X153842000Y-95838000D03*
X153842000Y-93298000D03*
X156382000Y-95838000D03*
X156382000Y-93298000D03*
X158922000Y-95838000D03*
X158922000Y-93298000D03*
X161462000Y-95838000D03*
X161462000Y-93298000D03*
X164002000Y-95838000D03*
X164002000Y-93298000D03*
X166542000Y-95838000D03*
X166542000Y-93298000D03*
X169082000Y-95838000D03*
X169082000Y-93298000D03*
X171622000Y-95838000D03*
X171622000Y-93298000D03*
X174162000Y-95838000D03*
X174162000Y-93298000D03*
%TD*%
D28*
%TO.C,JP11*%
X174325000Y-119888000D03*
D29*
X173025000Y-119888000D03*
D30*
X171725000Y-119888000D03*
%TD*%
D23*
%TO.C,JP7*%
X123550000Y-126300000D03*
X123550000Y-123900000D03*
D25*
X123550000Y-127100000D03*
D24*
X123550000Y-123100000D03*
%TD*%
D28*
%TO.C,JP9*%
X174325000Y-117094000D03*
D29*
X173025000Y-117094000D03*
D30*
X171725000Y-117094000D03*
%TD*%
D23*
%TO.C,JP2*%
X137050000Y-107630000D03*
X137050000Y-110030000D03*
D24*
X137050000Y-106830000D03*
D25*
X137050000Y-110830000D03*
%TD*%
D20*
%TO.C,TP5*%
X165404800Y-104292400D03*
%TD*%
D23*
%TO.C,JP4*%
X134366000Y-107639000D03*
X134366000Y-110039000D03*
D24*
X134366000Y-106839000D03*
D25*
X134366000Y-110839000D03*
%TD*%
D21*
%TO.C,JP6*%
X128100000Y-109700000D03*
D22*
X128100000Y-111000000D03*
%TD*%
M02*
