%TF.GenerationSoftware,KiCad,Pcbnew,7.0.5*%
%TF.CreationDate,2024-01-24T13:57:34+02:00*%
%TF.ProjectId,Pi HAT,50692048-4154-42e6-9b69-6361645f7063,1.1.2*%
%TF.SameCoordinates,Original*%
%TF.FileFunction,Other,Comment*%
%FSLAX46Y46*%
G04 Gerber Fmt 4.6, Leading zero omitted, Abs format (unit mm)*
G04 Created by KiCad (PCBNEW 7.0.5) date 2024-01-24 13:57:34*
%MOMM*%
%LPD*%
G01*
G04 APERTURE LIST*
%ADD10C,0.150000*%
%ADD11C,0.300000*%
G04 APERTURE END LIST*
D10*
X126259999Y-122389771D02*
X126259999Y-122818342D01*
X126259999Y-122818342D02*
X126231428Y-122904057D01*
X126231428Y-122904057D02*
X126174285Y-122961200D01*
X126174285Y-122961200D02*
X126088571Y-122989771D01*
X126088571Y-122989771D02*
X126031428Y-122989771D01*
X126802857Y-122589771D02*
X126802857Y-122989771D01*
X126545714Y-122589771D02*
X126545714Y-122904057D01*
X126545714Y-122904057D02*
X126574285Y-122961200D01*
X126574285Y-122961200D02*
X126631428Y-122989771D01*
X126631428Y-122989771D02*
X126717142Y-122989771D01*
X126717142Y-122989771D02*
X126774285Y-122961200D01*
X126774285Y-122961200D02*
X126802857Y-122932628D01*
X127088571Y-122989771D02*
X127088571Y-122589771D01*
X127088571Y-122646914D02*
X127117142Y-122618342D01*
X127117142Y-122618342D02*
X127174285Y-122589771D01*
X127174285Y-122589771D02*
X127259999Y-122589771D01*
X127259999Y-122589771D02*
X127317142Y-122618342D01*
X127317142Y-122618342D02*
X127345714Y-122675485D01*
X127345714Y-122675485D02*
X127345714Y-122989771D01*
X127345714Y-122675485D02*
X127374285Y-122618342D01*
X127374285Y-122618342D02*
X127431428Y-122589771D01*
X127431428Y-122589771D02*
X127517142Y-122589771D01*
X127517142Y-122589771D02*
X127574285Y-122618342D01*
X127574285Y-122618342D02*
X127602856Y-122675485D01*
X127602856Y-122675485D02*
X127602856Y-122989771D01*
X127888571Y-122589771D02*
X127888571Y-123189771D01*
X127888571Y-122618342D02*
X127945714Y-122589771D01*
X127945714Y-122589771D02*
X128059999Y-122589771D01*
X128059999Y-122589771D02*
X128117142Y-122618342D01*
X128117142Y-122618342D02*
X128145714Y-122646914D01*
X128145714Y-122646914D02*
X128174285Y-122704057D01*
X128174285Y-122704057D02*
X128174285Y-122875485D01*
X128174285Y-122875485D02*
X128145714Y-122932628D01*
X128145714Y-122932628D02*
X128117142Y-122961200D01*
X128117142Y-122961200D02*
X128059999Y-122989771D01*
X128059999Y-122989771D02*
X127945714Y-122989771D01*
X127945714Y-122989771D02*
X127888571Y-122961200D01*
X128659999Y-122961200D02*
X128602856Y-122989771D01*
X128602856Y-122989771D02*
X128488571Y-122989771D01*
X128488571Y-122989771D02*
X128431428Y-122961200D01*
X128431428Y-122961200D02*
X128402856Y-122904057D01*
X128402856Y-122904057D02*
X128402856Y-122675485D01*
X128402856Y-122675485D02*
X128431428Y-122618342D01*
X128431428Y-122618342D02*
X128488571Y-122589771D01*
X128488571Y-122589771D02*
X128602856Y-122589771D01*
X128602856Y-122589771D02*
X128659999Y-122618342D01*
X128659999Y-122618342D02*
X128688571Y-122675485D01*
X128688571Y-122675485D02*
X128688571Y-122732628D01*
X128688571Y-122732628D02*
X128402856Y-122789771D01*
X128945714Y-122989771D02*
X128945714Y-122589771D01*
X128945714Y-122704057D02*
X128974285Y-122646914D01*
X128974285Y-122646914D02*
X129002857Y-122618342D01*
X129002857Y-122618342D02*
X129059999Y-122589771D01*
X129059999Y-122589771D02*
X129117142Y-122589771D01*
D11*
X231203429Y-77946328D02*
X231203429Y-79017757D01*
X231203429Y-79017757D02*
X231132000Y-79232042D01*
X231132000Y-79232042D02*
X230989143Y-79374900D01*
X230989143Y-79374900D02*
X230774857Y-79446328D01*
X230774857Y-79446328D02*
X230632000Y-79446328D01*
X232632000Y-77946328D02*
X231917714Y-77946328D01*
X231917714Y-77946328D02*
X231846286Y-78660614D01*
X231846286Y-78660614D02*
X231917714Y-78589185D01*
X231917714Y-78589185D02*
X232060572Y-78517757D01*
X232060572Y-78517757D02*
X232417714Y-78517757D01*
X232417714Y-78517757D02*
X232560572Y-78589185D01*
X232560572Y-78589185D02*
X232632000Y-78660614D01*
X232632000Y-78660614D02*
X232703429Y-78803471D01*
X232703429Y-78803471D02*
X232703429Y-79160614D01*
X232703429Y-79160614D02*
X232632000Y-79303471D01*
X232632000Y-79303471D02*
X232560572Y-79374900D01*
X232560572Y-79374900D02*
X232417714Y-79446328D01*
X232417714Y-79446328D02*
X232060572Y-79446328D01*
X232060572Y-79446328D02*
X231917714Y-79374900D01*
X231917714Y-79374900D02*
X231846286Y-79303471D01*
X233417714Y-79374900D02*
X233417714Y-79446328D01*
X233417714Y-79446328D02*
X233346285Y-79589185D01*
X233346285Y-79589185D02*
X233274857Y-79660614D01*
X235632000Y-77946328D02*
X235632000Y-79017757D01*
X235632000Y-79017757D02*
X235560571Y-79232042D01*
X235560571Y-79232042D02*
X235417714Y-79374900D01*
X235417714Y-79374900D02*
X235203428Y-79446328D01*
X235203428Y-79446328D02*
X235060571Y-79446328D01*
X236989143Y-77946328D02*
X236703428Y-77946328D01*
X236703428Y-77946328D02*
X236560571Y-78017757D01*
X236560571Y-78017757D02*
X236489143Y-78089185D01*
X236489143Y-78089185D02*
X236346285Y-78303471D01*
X236346285Y-78303471D02*
X236274857Y-78589185D01*
X236274857Y-78589185D02*
X236274857Y-79160614D01*
X236274857Y-79160614D02*
X236346285Y-79303471D01*
X236346285Y-79303471D02*
X236417714Y-79374900D01*
X236417714Y-79374900D02*
X236560571Y-79446328D01*
X236560571Y-79446328D02*
X236846285Y-79446328D01*
X236846285Y-79446328D02*
X236989143Y-79374900D01*
X236989143Y-79374900D02*
X237060571Y-79303471D01*
X237060571Y-79303471D02*
X237132000Y-79160614D01*
X237132000Y-79160614D02*
X237132000Y-78803471D01*
X237132000Y-78803471D02*
X237060571Y-78660614D01*
X237060571Y-78660614D02*
X236989143Y-78589185D01*
X236989143Y-78589185D02*
X236846285Y-78517757D01*
X236846285Y-78517757D02*
X236560571Y-78517757D01*
X236560571Y-78517757D02*
X236417714Y-78589185D01*
X236417714Y-78589185D02*
X236346285Y-78660614D01*
X236346285Y-78660614D02*
X236274857Y-78803471D01*
X239560571Y-79374900D02*
X239417713Y-79446328D01*
X239417713Y-79446328D02*
X239131999Y-79446328D01*
X239131999Y-79446328D02*
X238989142Y-79374900D01*
X238989142Y-79374900D02*
X238917713Y-79303471D01*
X238917713Y-79303471D02*
X238846285Y-79160614D01*
X238846285Y-79160614D02*
X238846285Y-78732042D01*
X238846285Y-78732042D02*
X238917713Y-78589185D01*
X238917713Y-78589185D02*
X238989142Y-78517757D01*
X238989142Y-78517757D02*
X239131999Y-78446328D01*
X239131999Y-78446328D02*
X239417713Y-78446328D01*
X239417713Y-78446328D02*
X239560571Y-78517757D01*
X240417713Y-79446328D02*
X240274856Y-79374900D01*
X240274856Y-79374900D02*
X240203427Y-79303471D01*
X240203427Y-79303471D02*
X240131999Y-79160614D01*
X240131999Y-79160614D02*
X240131999Y-78732042D01*
X240131999Y-78732042D02*
X240203427Y-78589185D01*
X240203427Y-78589185D02*
X240274856Y-78517757D01*
X240274856Y-78517757D02*
X240417713Y-78446328D01*
X240417713Y-78446328D02*
X240631999Y-78446328D01*
X240631999Y-78446328D02*
X240774856Y-78517757D01*
X240774856Y-78517757D02*
X240846285Y-78589185D01*
X240846285Y-78589185D02*
X240917713Y-78732042D01*
X240917713Y-78732042D02*
X240917713Y-79160614D01*
X240917713Y-79160614D02*
X240846285Y-79303471D01*
X240846285Y-79303471D02*
X240774856Y-79374900D01*
X240774856Y-79374900D02*
X240631999Y-79446328D01*
X240631999Y-79446328D02*
X240417713Y-79446328D01*
X241560570Y-78446328D02*
X241560570Y-79446328D01*
X241560570Y-78589185D02*
X241631999Y-78517757D01*
X241631999Y-78517757D02*
X241774856Y-78446328D01*
X241774856Y-78446328D02*
X241989142Y-78446328D01*
X241989142Y-78446328D02*
X242131999Y-78517757D01*
X242131999Y-78517757D02*
X242203428Y-78660614D01*
X242203428Y-78660614D02*
X242203428Y-79446328D01*
X242917713Y-78446328D02*
X242917713Y-79446328D01*
X242917713Y-78589185D02*
X242989142Y-78517757D01*
X242989142Y-78517757D02*
X243131999Y-78446328D01*
X243131999Y-78446328D02*
X243346285Y-78446328D01*
X243346285Y-78446328D02*
X243489142Y-78517757D01*
X243489142Y-78517757D02*
X243560571Y-78660614D01*
X243560571Y-78660614D02*
X243560571Y-79446328D01*
X244846285Y-79374900D02*
X244703428Y-79446328D01*
X244703428Y-79446328D02*
X244417714Y-79446328D01*
X244417714Y-79446328D02*
X244274856Y-79374900D01*
X244274856Y-79374900D02*
X244203428Y-79232042D01*
X244203428Y-79232042D02*
X244203428Y-78660614D01*
X244203428Y-78660614D02*
X244274856Y-78517757D01*
X244274856Y-78517757D02*
X244417714Y-78446328D01*
X244417714Y-78446328D02*
X244703428Y-78446328D01*
X244703428Y-78446328D02*
X244846285Y-78517757D01*
X244846285Y-78517757D02*
X244917714Y-78660614D01*
X244917714Y-78660614D02*
X244917714Y-78803471D01*
X244917714Y-78803471D02*
X244203428Y-78946328D01*
X246203428Y-79374900D02*
X246060570Y-79446328D01*
X246060570Y-79446328D02*
X245774856Y-79446328D01*
X245774856Y-79446328D02*
X245631999Y-79374900D01*
X245631999Y-79374900D02*
X245560570Y-79303471D01*
X245560570Y-79303471D02*
X245489142Y-79160614D01*
X245489142Y-79160614D02*
X245489142Y-78732042D01*
X245489142Y-78732042D02*
X245560570Y-78589185D01*
X245560570Y-78589185D02*
X245631999Y-78517757D01*
X245631999Y-78517757D02*
X245774856Y-78446328D01*
X245774856Y-78446328D02*
X246060570Y-78446328D01*
X246060570Y-78446328D02*
X246203428Y-78517757D01*
X246631999Y-78446328D02*
X247203427Y-78446328D01*
X246846284Y-77946328D02*
X246846284Y-79232042D01*
X246846284Y-79232042D02*
X246917713Y-79374900D01*
X246917713Y-79374900D02*
X247060570Y-79446328D01*
X247060570Y-79446328D02*
X247203427Y-79446328D01*
X247917713Y-79446328D02*
X247774856Y-79374900D01*
X247774856Y-79374900D02*
X247703427Y-79303471D01*
X247703427Y-79303471D02*
X247631999Y-79160614D01*
X247631999Y-79160614D02*
X247631999Y-78732042D01*
X247631999Y-78732042D02*
X247703427Y-78589185D01*
X247703427Y-78589185D02*
X247774856Y-78517757D01*
X247774856Y-78517757D02*
X247917713Y-78446328D01*
X247917713Y-78446328D02*
X248131999Y-78446328D01*
X248131999Y-78446328D02*
X248274856Y-78517757D01*
X248274856Y-78517757D02*
X248346285Y-78589185D01*
X248346285Y-78589185D02*
X248417713Y-78732042D01*
X248417713Y-78732042D02*
X248417713Y-79160614D01*
X248417713Y-79160614D02*
X248346285Y-79303471D01*
X248346285Y-79303471D02*
X248274856Y-79374900D01*
X248274856Y-79374900D02*
X248131999Y-79446328D01*
X248131999Y-79446328D02*
X247917713Y-79446328D01*
X249060570Y-79446328D02*
X249060570Y-78446328D01*
X249060570Y-78732042D02*
X249131999Y-78589185D01*
X249131999Y-78589185D02*
X249203428Y-78517757D01*
X249203428Y-78517757D02*
X249346285Y-78446328D01*
X249346285Y-78446328D02*
X249489142Y-78446328D01*
X249917713Y-79374900D02*
X250060570Y-79446328D01*
X250060570Y-79446328D02*
X250346284Y-79446328D01*
X250346284Y-79446328D02*
X250489141Y-79374900D01*
X250489141Y-79374900D02*
X250560570Y-79232042D01*
X250560570Y-79232042D02*
X250560570Y-79160614D01*
X250560570Y-79160614D02*
X250489141Y-79017757D01*
X250489141Y-79017757D02*
X250346284Y-78946328D01*
X250346284Y-78946328D02*
X250131999Y-78946328D01*
X250131999Y-78946328D02*
X249989141Y-78874900D01*
X249989141Y-78874900D02*
X249917713Y-78732042D01*
X249917713Y-78732042D02*
X249917713Y-78660614D01*
X249917713Y-78660614D02*
X249989141Y-78517757D01*
X249989141Y-78517757D02*
X250131999Y-78446328D01*
X250131999Y-78446328D02*
X250346284Y-78446328D01*
X250346284Y-78446328D02*
X250489141Y-78517757D01*
X32486510Y-182830614D02*
X32700796Y-182902042D01*
X32700796Y-182902042D02*
X32772225Y-182973471D01*
X32772225Y-182973471D02*
X32843653Y-183116328D01*
X32843653Y-183116328D02*
X32843653Y-183330614D01*
X32843653Y-183330614D02*
X32772225Y-183473471D01*
X32772225Y-183473471D02*
X32700796Y-183544900D01*
X32700796Y-183544900D02*
X32557939Y-183616328D01*
X32557939Y-183616328D02*
X31986510Y-183616328D01*
X31986510Y-183616328D02*
X31986510Y-182116328D01*
X31986510Y-182116328D02*
X32486510Y-182116328D01*
X32486510Y-182116328D02*
X32629368Y-182187757D01*
X32629368Y-182187757D02*
X32700796Y-182259185D01*
X32700796Y-182259185D02*
X32772225Y-182402042D01*
X32772225Y-182402042D02*
X32772225Y-182544900D01*
X32772225Y-182544900D02*
X32700796Y-182687757D01*
X32700796Y-182687757D02*
X32629368Y-182759185D01*
X32629368Y-182759185D02*
X32486510Y-182830614D01*
X32486510Y-182830614D02*
X31986510Y-182830614D01*
X33700796Y-183616328D02*
X33557939Y-183544900D01*
X33557939Y-183544900D02*
X33486510Y-183473471D01*
X33486510Y-183473471D02*
X33415082Y-183330614D01*
X33415082Y-183330614D02*
X33415082Y-182902042D01*
X33415082Y-182902042D02*
X33486510Y-182759185D01*
X33486510Y-182759185D02*
X33557939Y-182687757D01*
X33557939Y-182687757D02*
X33700796Y-182616328D01*
X33700796Y-182616328D02*
X33915082Y-182616328D01*
X33915082Y-182616328D02*
X34057939Y-182687757D01*
X34057939Y-182687757D02*
X34129368Y-182759185D01*
X34129368Y-182759185D02*
X34200796Y-182902042D01*
X34200796Y-182902042D02*
X34200796Y-183330614D01*
X34200796Y-183330614D02*
X34129368Y-183473471D01*
X34129368Y-183473471D02*
X34057939Y-183544900D01*
X34057939Y-183544900D02*
X33915082Y-183616328D01*
X33915082Y-183616328D02*
X33700796Y-183616328D01*
X35486511Y-183616328D02*
X35486511Y-182830614D01*
X35486511Y-182830614D02*
X35415082Y-182687757D01*
X35415082Y-182687757D02*
X35272225Y-182616328D01*
X35272225Y-182616328D02*
X34986511Y-182616328D01*
X34986511Y-182616328D02*
X34843653Y-182687757D01*
X35486511Y-183544900D02*
X35343653Y-183616328D01*
X35343653Y-183616328D02*
X34986511Y-183616328D01*
X34986511Y-183616328D02*
X34843653Y-183544900D01*
X34843653Y-183544900D02*
X34772225Y-183402042D01*
X34772225Y-183402042D02*
X34772225Y-183259185D01*
X34772225Y-183259185D02*
X34843653Y-183116328D01*
X34843653Y-183116328D02*
X34986511Y-183044900D01*
X34986511Y-183044900D02*
X35343653Y-183044900D01*
X35343653Y-183044900D02*
X35486511Y-182973471D01*
X36200796Y-183616328D02*
X36200796Y-182616328D01*
X36200796Y-182902042D02*
X36272225Y-182759185D01*
X36272225Y-182759185D02*
X36343654Y-182687757D01*
X36343654Y-182687757D02*
X36486511Y-182616328D01*
X36486511Y-182616328D02*
X36629368Y-182616328D01*
X37772225Y-183616328D02*
X37772225Y-182116328D01*
X37772225Y-183544900D02*
X37629367Y-183616328D01*
X37629367Y-183616328D02*
X37343653Y-183616328D01*
X37343653Y-183616328D02*
X37200796Y-183544900D01*
X37200796Y-183544900D02*
X37129367Y-183473471D01*
X37129367Y-183473471D02*
X37057939Y-183330614D01*
X37057939Y-183330614D02*
X37057939Y-182902042D01*
X37057939Y-182902042D02*
X37129367Y-182759185D01*
X37129367Y-182759185D02*
X37200796Y-182687757D01*
X37200796Y-182687757D02*
X37343653Y-182616328D01*
X37343653Y-182616328D02*
X37629367Y-182616328D01*
X37629367Y-182616328D02*
X37772225Y-182687757D01*
X40272225Y-183616328D02*
X40272225Y-182116328D01*
X40272225Y-183544900D02*
X40129367Y-183616328D01*
X40129367Y-183616328D02*
X39843653Y-183616328D01*
X39843653Y-183616328D02*
X39700796Y-183544900D01*
X39700796Y-183544900D02*
X39629367Y-183473471D01*
X39629367Y-183473471D02*
X39557939Y-183330614D01*
X39557939Y-183330614D02*
X39557939Y-182902042D01*
X39557939Y-182902042D02*
X39629367Y-182759185D01*
X39629367Y-182759185D02*
X39700796Y-182687757D01*
X39700796Y-182687757D02*
X39843653Y-182616328D01*
X39843653Y-182616328D02*
X40129367Y-182616328D01*
X40129367Y-182616328D02*
X40272225Y-182687757D01*
X40986510Y-183616328D02*
X40986510Y-182616328D01*
X40986510Y-182116328D02*
X40915082Y-182187757D01*
X40915082Y-182187757D02*
X40986510Y-182259185D01*
X40986510Y-182259185D02*
X41057939Y-182187757D01*
X41057939Y-182187757D02*
X40986510Y-182116328D01*
X40986510Y-182116328D02*
X40986510Y-182259185D01*
X41700796Y-183616328D02*
X41700796Y-182616328D01*
X41700796Y-182759185D02*
X41772225Y-182687757D01*
X41772225Y-182687757D02*
X41915082Y-182616328D01*
X41915082Y-182616328D02*
X42129368Y-182616328D01*
X42129368Y-182616328D02*
X42272225Y-182687757D01*
X42272225Y-182687757D02*
X42343654Y-182830614D01*
X42343654Y-182830614D02*
X42343654Y-183616328D01*
X42343654Y-182830614D02*
X42415082Y-182687757D01*
X42415082Y-182687757D02*
X42557939Y-182616328D01*
X42557939Y-182616328D02*
X42772225Y-182616328D01*
X42772225Y-182616328D02*
X42915082Y-182687757D01*
X42915082Y-182687757D02*
X42986511Y-182830614D01*
X42986511Y-182830614D02*
X42986511Y-183616328D01*
X44272225Y-183544900D02*
X44129368Y-183616328D01*
X44129368Y-183616328D02*
X43843654Y-183616328D01*
X43843654Y-183616328D02*
X43700796Y-183544900D01*
X43700796Y-183544900D02*
X43629368Y-183402042D01*
X43629368Y-183402042D02*
X43629368Y-182830614D01*
X43629368Y-182830614D02*
X43700796Y-182687757D01*
X43700796Y-182687757D02*
X43843654Y-182616328D01*
X43843654Y-182616328D02*
X44129368Y-182616328D01*
X44129368Y-182616328D02*
X44272225Y-182687757D01*
X44272225Y-182687757D02*
X44343654Y-182830614D01*
X44343654Y-182830614D02*
X44343654Y-182973471D01*
X44343654Y-182973471D02*
X43629368Y-183116328D01*
X44986510Y-182616328D02*
X44986510Y-183616328D01*
X44986510Y-182759185D02*
X45057939Y-182687757D01*
X45057939Y-182687757D02*
X45200796Y-182616328D01*
X45200796Y-182616328D02*
X45415082Y-182616328D01*
X45415082Y-182616328D02*
X45557939Y-182687757D01*
X45557939Y-182687757D02*
X45629368Y-182830614D01*
X45629368Y-182830614D02*
X45629368Y-183616328D01*
X46272225Y-183544900D02*
X46415082Y-183616328D01*
X46415082Y-183616328D02*
X46700796Y-183616328D01*
X46700796Y-183616328D02*
X46843653Y-183544900D01*
X46843653Y-183544900D02*
X46915082Y-183402042D01*
X46915082Y-183402042D02*
X46915082Y-183330614D01*
X46915082Y-183330614D02*
X46843653Y-183187757D01*
X46843653Y-183187757D02*
X46700796Y-183116328D01*
X46700796Y-183116328D02*
X46486511Y-183116328D01*
X46486511Y-183116328D02*
X46343653Y-183044900D01*
X46343653Y-183044900D02*
X46272225Y-182902042D01*
X46272225Y-182902042D02*
X46272225Y-182830614D01*
X46272225Y-182830614D02*
X46343653Y-182687757D01*
X46343653Y-182687757D02*
X46486511Y-182616328D01*
X46486511Y-182616328D02*
X46700796Y-182616328D01*
X46700796Y-182616328D02*
X46843653Y-182687757D01*
X47557939Y-183616328D02*
X47557939Y-182616328D01*
X47557939Y-182116328D02*
X47486511Y-182187757D01*
X47486511Y-182187757D02*
X47557939Y-182259185D01*
X47557939Y-182259185D02*
X47629368Y-182187757D01*
X47629368Y-182187757D02*
X47557939Y-182116328D01*
X47557939Y-182116328D02*
X47557939Y-182259185D01*
X48486511Y-183616328D02*
X48343654Y-183544900D01*
X48343654Y-183544900D02*
X48272225Y-183473471D01*
X48272225Y-183473471D02*
X48200797Y-183330614D01*
X48200797Y-183330614D02*
X48200797Y-182902042D01*
X48200797Y-182902042D02*
X48272225Y-182759185D01*
X48272225Y-182759185D02*
X48343654Y-182687757D01*
X48343654Y-182687757D02*
X48486511Y-182616328D01*
X48486511Y-182616328D02*
X48700797Y-182616328D01*
X48700797Y-182616328D02*
X48843654Y-182687757D01*
X48843654Y-182687757D02*
X48915083Y-182759185D01*
X48915083Y-182759185D02*
X48986511Y-182902042D01*
X48986511Y-182902042D02*
X48986511Y-183330614D01*
X48986511Y-183330614D02*
X48915083Y-183473471D01*
X48915083Y-183473471D02*
X48843654Y-183544900D01*
X48843654Y-183544900D02*
X48700797Y-183616328D01*
X48700797Y-183616328D02*
X48486511Y-183616328D01*
X49629368Y-182616328D02*
X49629368Y-183616328D01*
X49629368Y-182759185D02*
X49700797Y-182687757D01*
X49700797Y-182687757D02*
X49843654Y-182616328D01*
X49843654Y-182616328D02*
X50057940Y-182616328D01*
X50057940Y-182616328D02*
X50200797Y-182687757D01*
X50200797Y-182687757D02*
X50272226Y-182830614D01*
X50272226Y-182830614D02*
X50272226Y-183616328D01*
X50915083Y-183544900D02*
X51057940Y-183616328D01*
X51057940Y-183616328D02*
X51343654Y-183616328D01*
X51343654Y-183616328D02*
X51486511Y-183544900D01*
X51486511Y-183544900D02*
X51557940Y-183402042D01*
X51557940Y-183402042D02*
X51557940Y-183330614D01*
X51557940Y-183330614D02*
X51486511Y-183187757D01*
X51486511Y-183187757D02*
X51343654Y-183116328D01*
X51343654Y-183116328D02*
X51129369Y-183116328D01*
X51129369Y-183116328D02*
X50986511Y-183044900D01*
X50986511Y-183044900D02*
X50915083Y-182902042D01*
X50915083Y-182902042D02*
X50915083Y-182830614D01*
X50915083Y-182830614D02*
X50986511Y-182687757D01*
X50986511Y-182687757D02*
X51129369Y-182616328D01*
X51129369Y-182616328D02*
X51343654Y-182616328D01*
X51343654Y-182616328D02*
X51486511Y-182687757D01*
X53986512Y-183616328D02*
X53986512Y-182830614D01*
X53986512Y-182830614D02*
X53915083Y-182687757D01*
X53915083Y-182687757D02*
X53772226Y-182616328D01*
X53772226Y-182616328D02*
X53486512Y-182616328D01*
X53486512Y-182616328D02*
X53343654Y-182687757D01*
X53986512Y-183544900D02*
X53843654Y-183616328D01*
X53843654Y-183616328D02*
X53486512Y-183616328D01*
X53486512Y-183616328D02*
X53343654Y-183544900D01*
X53343654Y-183544900D02*
X53272226Y-183402042D01*
X53272226Y-183402042D02*
X53272226Y-183259185D01*
X53272226Y-183259185D02*
X53343654Y-183116328D01*
X53343654Y-183116328D02*
X53486512Y-183044900D01*
X53486512Y-183044900D02*
X53843654Y-183044900D01*
X53843654Y-183044900D02*
X53986512Y-182973471D01*
X54700797Y-183616328D02*
X54700797Y-182616328D01*
X54700797Y-182902042D02*
X54772226Y-182759185D01*
X54772226Y-182759185D02*
X54843655Y-182687757D01*
X54843655Y-182687757D02*
X54986512Y-182616328D01*
X54986512Y-182616328D02*
X55129369Y-182616328D01*
X56200797Y-183544900D02*
X56057940Y-183616328D01*
X56057940Y-183616328D02*
X55772226Y-183616328D01*
X55772226Y-183616328D02*
X55629368Y-183544900D01*
X55629368Y-183544900D02*
X55557940Y-183402042D01*
X55557940Y-183402042D02*
X55557940Y-182830614D01*
X55557940Y-182830614D02*
X55629368Y-182687757D01*
X55629368Y-182687757D02*
X55772226Y-182616328D01*
X55772226Y-182616328D02*
X56057940Y-182616328D01*
X56057940Y-182616328D02*
X56200797Y-182687757D01*
X56200797Y-182687757D02*
X56272226Y-182830614D01*
X56272226Y-182830614D02*
X56272226Y-182973471D01*
X56272226Y-182973471D02*
X55557940Y-183116328D01*
X58272225Y-183616328D02*
X58129368Y-183544900D01*
X58129368Y-183544900D02*
X58057939Y-183473471D01*
X58057939Y-183473471D02*
X57986511Y-183330614D01*
X57986511Y-183330614D02*
X57986511Y-182902042D01*
X57986511Y-182902042D02*
X58057939Y-182759185D01*
X58057939Y-182759185D02*
X58129368Y-182687757D01*
X58129368Y-182687757D02*
X58272225Y-182616328D01*
X58272225Y-182616328D02*
X58486511Y-182616328D01*
X58486511Y-182616328D02*
X58629368Y-182687757D01*
X58629368Y-182687757D02*
X58700797Y-182759185D01*
X58700797Y-182759185D02*
X58772225Y-182902042D01*
X58772225Y-182902042D02*
X58772225Y-183330614D01*
X58772225Y-183330614D02*
X58700797Y-183473471D01*
X58700797Y-183473471D02*
X58629368Y-183544900D01*
X58629368Y-183544900D02*
X58486511Y-183616328D01*
X58486511Y-183616328D02*
X58272225Y-183616328D01*
X59415082Y-182616328D02*
X59415082Y-183616328D01*
X59415082Y-182759185D02*
X59486511Y-182687757D01*
X59486511Y-182687757D02*
X59629368Y-182616328D01*
X59629368Y-182616328D02*
X59843654Y-182616328D01*
X59843654Y-182616328D02*
X59986511Y-182687757D01*
X59986511Y-182687757D02*
X60057940Y-182830614D01*
X60057940Y-182830614D02*
X60057940Y-183616328D01*
X62772225Y-183473471D02*
X62700797Y-183544900D01*
X62700797Y-183544900D02*
X62486511Y-183616328D01*
X62486511Y-183616328D02*
X62343654Y-183616328D01*
X62343654Y-183616328D02*
X62129368Y-183544900D01*
X62129368Y-183544900D02*
X61986511Y-183402042D01*
X61986511Y-183402042D02*
X61915082Y-183259185D01*
X61915082Y-183259185D02*
X61843654Y-182973471D01*
X61843654Y-182973471D02*
X61843654Y-182759185D01*
X61843654Y-182759185D02*
X61915082Y-182473471D01*
X61915082Y-182473471D02*
X61986511Y-182330614D01*
X61986511Y-182330614D02*
X62129368Y-182187757D01*
X62129368Y-182187757D02*
X62343654Y-182116328D01*
X62343654Y-182116328D02*
X62486511Y-182116328D01*
X62486511Y-182116328D02*
X62700797Y-182187757D01*
X62700797Y-182187757D02*
X62772225Y-182259185D01*
X63415082Y-183616328D02*
X63415082Y-182616328D01*
X63415082Y-182759185D02*
X63486511Y-182687757D01*
X63486511Y-182687757D02*
X63629368Y-182616328D01*
X63629368Y-182616328D02*
X63843654Y-182616328D01*
X63843654Y-182616328D02*
X63986511Y-182687757D01*
X63986511Y-182687757D02*
X64057940Y-182830614D01*
X64057940Y-182830614D02*
X64057940Y-183616328D01*
X64057940Y-182830614D02*
X64129368Y-182687757D01*
X64129368Y-182687757D02*
X64272225Y-182616328D01*
X64272225Y-182616328D02*
X64486511Y-182616328D01*
X64486511Y-182616328D02*
X64629368Y-182687757D01*
X64629368Y-182687757D02*
X64700797Y-182830614D01*
X64700797Y-182830614D02*
X64700797Y-183616328D01*
X65200797Y-182616328D02*
X65772225Y-182616328D01*
X65415082Y-182116328D02*
X65415082Y-183402042D01*
X65415082Y-183402042D02*
X65486511Y-183544900D01*
X65486511Y-183544900D02*
X65629368Y-183616328D01*
X65629368Y-183616328D02*
X65772225Y-183616328D01*
X66200797Y-183544900D02*
X66343654Y-183616328D01*
X66343654Y-183616328D02*
X66629368Y-183616328D01*
X66629368Y-183616328D02*
X66772225Y-183544900D01*
X66772225Y-183544900D02*
X66843654Y-183402042D01*
X66843654Y-183402042D02*
X66843654Y-183330614D01*
X66843654Y-183330614D02*
X66772225Y-183187757D01*
X66772225Y-183187757D02*
X66629368Y-183116328D01*
X66629368Y-183116328D02*
X66415083Y-183116328D01*
X66415083Y-183116328D02*
X66272225Y-183044900D01*
X66272225Y-183044900D02*
X66200797Y-182902042D01*
X66200797Y-182902042D02*
X66200797Y-182830614D01*
X66200797Y-182830614D02*
X66272225Y-182687757D01*
X66272225Y-182687757D02*
X66415083Y-182616328D01*
X66415083Y-182616328D02*
X66629368Y-182616328D01*
X66629368Y-182616328D02*
X66772225Y-182687757D01*
X69057940Y-184187757D02*
X68986511Y-184116328D01*
X68986511Y-184116328D02*
X68843654Y-183902042D01*
X68843654Y-183902042D02*
X68772226Y-183759185D01*
X68772226Y-183759185D02*
X68700797Y-183544900D01*
X68700797Y-183544900D02*
X68629368Y-183187757D01*
X68629368Y-183187757D02*
X68629368Y-182902042D01*
X68629368Y-182902042D02*
X68700797Y-182544900D01*
X68700797Y-182544900D02*
X68772226Y-182330614D01*
X68772226Y-182330614D02*
X68843654Y-182187757D01*
X68843654Y-182187757D02*
X68986511Y-181973471D01*
X68986511Y-181973471D02*
X69057940Y-181902042D01*
X70486511Y-183473471D02*
X70415083Y-183544900D01*
X70415083Y-183544900D02*
X70200797Y-183616328D01*
X70200797Y-183616328D02*
X70057940Y-183616328D01*
X70057940Y-183616328D02*
X69843654Y-183544900D01*
X69843654Y-183544900D02*
X69700797Y-183402042D01*
X69700797Y-183402042D02*
X69629368Y-183259185D01*
X69629368Y-183259185D02*
X69557940Y-182973471D01*
X69557940Y-182973471D02*
X69557940Y-182759185D01*
X69557940Y-182759185D02*
X69629368Y-182473471D01*
X69629368Y-182473471D02*
X69700797Y-182330614D01*
X69700797Y-182330614D02*
X69843654Y-182187757D01*
X69843654Y-182187757D02*
X70057940Y-182116328D01*
X70057940Y-182116328D02*
X70200797Y-182116328D01*
X70200797Y-182116328D02*
X70415083Y-182187757D01*
X70415083Y-182187757D02*
X70486511Y-182259185D01*
X71343654Y-183616328D02*
X71200797Y-183544900D01*
X71200797Y-183544900D02*
X71129368Y-183473471D01*
X71129368Y-183473471D02*
X71057940Y-183330614D01*
X71057940Y-183330614D02*
X71057940Y-182902042D01*
X71057940Y-182902042D02*
X71129368Y-182759185D01*
X71129368Y-182759185D02*
X71200797Y-182687757D01*
X71200797Y-182687757D02*
X71343654Y-182616328D01*
X71343654Y-182616328D02*
X71557940Y-182616328D01*
X71557940Y-182616328D02*
X71700797Y-182687757D01*
X71700797Y-182687757D02*
X71772226Y-182759185D01*
X71772226Y-182759185D02*
X71843654Y-182902042D01*
X71843654Y-182902042D02*
X71843654Y-183330614D01*
X71843654Y-183330614D02*
X71772226Y-183473471D01*
X71772226Y-183473471D02*
X71700797Y-183544900D01*
X71700797Y-183544900D02*
X71557940Y-183616328D01*
X71557940Y-183616328D02*
X71343654Y-183616328D01*
X72486511Y-183616328D02*
X72486511Y-182616328D01*
X72486511Y-182759185D02*
X72557940Y-182687757D01*
X72557940Y-182687757D02*
X72700797Y-182616328D01*
X72700797Y-182616328D02*
X72915083Y-182616328D01*
X72915083Y-182616328D02*
X73057940Y-182687757D01*
X73057940Y-182687757D02*
X73129369Y-182830614D01*
X73129369Y-182830614D02*
X73129369Y-183616328D01*
X73129369Y-182830614D02*
X73200797Y-182687757D01*
X73200797Y-182687757D02*
X73343654Y-182616328D01*
X73343654Y-182616328D02*
X73557940Y-182616328D01*
X73557940Y-182616328D02*
X73700797Y-182687757D01*
X73700797Y-182687757D02*
X73772226Y-182830614D01*
X73772226Y-182830614D02*
X73772226Y-183616328D01*
X74486511Y-183616328D02*
X74486511Y-182616328D01*
X74486511Y-182759185D02*
X74557940Y-182687757D01*
X74557940Y-182687757D02*
X74700797Y-182616328D01*
X74700797Y-182616328D02*
X74915083Y-182616328D01*
X74915083Y-182616328D02*
X75057940Y-182687757D01*
X75057940Y-182687757D02*
X75129369Y-182830614D01*
X75129369Y-182830614D02*
X75129369Y-183616328D01*
X75129369Y-182830614D02*
X75200797Y-182687757D01*
X75200797Y-182687757D02*
X75343654Y-182616328D01*
X75343654Y-182616328D02*
X75557940Y-182616328D01*
X75557940Y-182616328D02*
X75700797Y-182687757D01*
X75700797Y-182687757D02*
X75772226Y-182830614D01*
X75772226Y-182830614D02*
X75772226Y-183616328D01*
X77057940Y-183544900D02*
X76915083Y-183616328D01*
X76915083Y-183616328D02*
X76629369Y-183616328D01*
X76629369Y-183616328D02*
X76486511Y-183544900D01*
X76486511Y-183544900D02*
X76415083Y-183402042D01*
X76415083Y-183402042D02*
X76415083Y-182830614D01*
X76415083Y-182830614D02*
X76486511Y-182687757D01*
X76486511Y-182687757D02*
X76629369Y-182616328D01*
X76629369Y-182616328D02*
X76915083Y-182616328D01*
X76915083Y-182616328D02*
X77057940Y-182687757D01*
X77057940Y-182687757D02*
X77129369Y-182830614D01*
X77129369Y-182830614D02*
X77129369Y-182973471D01*
X77129369Y-182973471D02*
X76415083Y-183116328D01*
X77772225Y-182616328D02*
X77772225Y-183616328D01*
X77772225Y-182759185D02*
X77843654Y-182687757D01*
X77843654Y-182687757D02*
X77986511Y-182616328D01*
X77986511Y-182616328D02*
X78200797Y-182616328D01*
X78200797Y-182616328D02*
X78343654Y-182687757D01*
X78343654Y-182687757D02*
X78415083Y-182830614D01*
X78415083Y-182830614D02*
X78415083Y-183616328D01*
X78915083Y-182616328D02*
X79486511Y-182616328D01*
X79129368Y-182116328D02*
X79129368Y-183402042D01*
X79129368Y-183402042D02*
X79200797Y-183544900D01*
X79200797Y-183544900D02*
X79343654Y-183616328D01*
X79343654Y-183616328D02*
X79486511Y-183616328D01*
X79915083Y-183544900D02*
X80057940Y-183616328D01*
X80057940Y-183616328D02*
X80343654Y-183616328D01*
X80343654Y-183616328D02*
X80486511Y-183544900D01*
X80486511Y-183544900D02*
X80557940Y-183402042D01*
X80557940Y-183402042D02*
X80557940Y-183330614D01*
X80557940Y-183330614D02*
X80486511Y-183187757D01*
X80486511Y-183187757D02*
X80343654Y-183116328D01*
X80343654Y-183116328D02*
X80129369Y-183116328D01*
X80129369Y-183116328D02*
X79986511Y-183044900D01*
X79986511Y-183044900D02*
X79915083Y-182902042D01*
X79915083Y-182902042D02*
X79915083Y-182830614D01*
X79915083Y-182830614D02*
X79986511Y-182687757D01*
X79986511Y-182687757D02*
X80129369Y-182616328D01*
X80129369Y-182616328D02*
X80343654Y-182616328D01*
X80343654Y-182616328D02*
X80486511Y-182687757D01*
X81057940Y-184187757D02*
X81129369Y-184116328D01*
X81129369Y-184116328D02*
X81272226Y-183902042D01*
X81272226Y-183902042D02*
X81343655Y-183759185D01*
X81343655Y-183759185D02*
X81415083Y-183544900D01*
X81415083Y-183544900D02*
X81486512Y-183187757D01*
X81486512Y-183187757D02*
X81486512Y-182902042D01*
X81486512Y-182902042D02*
X81415083Y-182544900D01*
X81415083Y-182544900D02*
X81343655Y-182330614D01*
X81343655Y-182330614D02*
X81272226Y-182187757D01*
X81272226Y-182187757D02*
X81129369Y-181973471D01*
X81129369Y-181973471D02*
X81057940Y-181902042D01*
X83557940Y-183616328D02*
X83415083Y-183544900D01*
X83415083Y-183544900D02*
X83343654Y-183402042D01*
X83343654Y-183402042D02*
X83343654Y-182116328D01*
X84772226Y-183616328D02*
X84772226Y-182830614D01*
X84772226Y-182830614D02*
X84700797Y-182687757D01*
X84700797Y-182687757D02*
X84557940Y-182616328D01*
X84557940Y-182616328D02*
X84272226Y-182616328D01*
X84272226Y-182616328D02*
X84129368Y-182687757D01*
X84772226Y-183544900D02*
X84629368Y-183616328D01*
X84629368Y-183616328D02*
X84272226Y-183616328D01*
X84272226Y-183616328D02*
X84129368Y-183544900D01*
X84129368Y-183544900D02*
X84057940Y-183402042D01*
X84057940Y-183402042D02*
X84057940Y-183259185D01*
X84057940Y-183259185D02*
X84129368Y-183116328D01*
X84129368Y-183116328D02*
X84272226Y-183044900D01*
X84272226Y-183044900D02*
X84629368Y-183044900D01*
X84629368Y-183044900D02*
X84772226Y-182973471D01*
X85343654Y-182616328D02*
X85700797Y-183616328D01*
X86057940Y-182616328D02*
X85700797Y-183616328D01*
X85700797Y-183616328D02*
X85557940Y-183973471D01*
X85557940Y-183973471D02*
X85486511Y-184044900D01*
X85486511Y-184044900D02*
X85343654Y-184116328D01*
X87200797Y-183544900D02*
X87057940Y-183616328D01*
X87057940Y-183616328D02*
X86772226Y-183616328D01*
X86772226Y-183616328D02*
X86629368Y-183544900D01*
X86629368Y-183544900D02*
X86557940Y-183402042D01*
X86557940Y-183402042D02*
X86557940Y-182830614D01*
X86557940Y-182830614D02*
X86629368Y-182687757D01*
X86629368Y-182687757D02*
X86772226Y-182616328D01*
X86772226Y-182616328D02*
X87057940Y-182616328D01*
X87057940Y-182616328D02*
X87200797Y-182687757D01*
X87200797Y-182687757D02*
X87272226Y-182830614D01*
X87272226Y-182830614D02*
X87272226Y-182973471D01*
X87272226Y-182973471D02*
X86557940Y-183116328D01*
X87915082Y-183616328D02*
X87915082Y-182616328D01*
X87915082Y-182902042D02*
X87986511Y-182759185D01*
X87986511Y-182759185D02*
X88057940Y-182687757D01*
X88057940Y-182687757D02*
X88200797Y-182616328D01*
X88200797Y-182616328D02*
X88343654Y-182616328D01*
X88843653Y-183473471D02*
X88915082Y-183544900D01*
X88915082Y-183544900D02*
X88843653Y-183616328D01*
X88843653Y-183616328D02*
X88772225Y-183544900D01*
X88772225Y-183544900D02*
X88843653Y-183473471D01*
X88843653Y-183473471D02*
X88843653Y-183616328D01*
X31986510Y-186031328D02*
X31986510Y-184531328D01*
X31986510Y-184531328D02*
X32343653Y-184531328D01*
X32343653Y-184531328D02*
X32557939Y-184602757D01*
X32557939Y-184602757D02*
X32700796Y-184745614D01*
X32700796Y-184745614D02*
X32772225Y-184888471D01*
X32772225Y-184888471D02*
X32843653Y-185174185D01*
X32843653Y-185174185D02*
X32843653Y-185388471D01*
X32843653Y-185388471D02*
X32772225Y-185674185D01*
X32772225Y-185674185D02*
X32700796Y-185817042D01*
X32700796Y-185817042D02*
X32557939Y-185959900D01*
X32557939Y-185959900D02*
X32343653Y-186031328D01*
X32343653Y-186031328D02*
X31986510Y-186031328D01*
X34057939Y-185959900D02*
X33915082Y-186031328D01*
X33915082Y-186031328D02*
X33629368Y-186031328D01*
X33629368Y-186031328D02*
X33486510Y-185959900D01*
X33486510Y-185959900D02*
X33415082Y-185817042D01*
X33415082Y-185817042D02*
X33415082Y-185245614D01*
X33415082Y-185245614D02*
X33486510Y-185102757D01*
X33486510Y-185102757D02*
X33629368Y-185031328D01*
X33629368Y-185031328D02*
X33915082Y-185031328D01*
X33915082Y-185031328D02*
X34057939Y-185102757D01*
X34057939Y-185102757D02*
X34129368Y-185245614D01*
X34129368Y-185245614D02*
X34129368Y-185388471D01*
X34129368Y-185388471D02*
X33415082Y-185531328D01*
X34700796Y-185959900D02*
X34843653Y-186031328D01*
X34843653Y-186031328D02*
X35129367Y-186031328D01*
X35129367Y-186031328D02*
X35272224Y-185959900D01*
X35272224Y-185959900D02*
X35343653Y-185817042D01*
X35343653Y-185817042D02*
X35343653Y-185745614D01*
X35343653Y-185745614D02*
X35272224Y-185602757D01*
X35272224Y-185602757D02*
X35129367Y-185531328D01*
X35129367Y-185531328D02*
X34915082Y-185531328D01*
X34915082Y-185531328D02*
X34772224Y-185459900D01*
X34772224Y-185459900D02*
X34700796Y-185317042D01*
X34700796Y-185317042D02*
X34700796Y-185245614D01*
X34700796Y-185245614D02*
X34772224Y-185102757D01*
X34772224Y-185102757D02*
X34915082Y-185031328D01*
X34915082Y-185031328D02*
X35129367Y-185031328D01*
X35129367Y-185031328D02*
X35272224Y-185102757D01*
X36557939Y-185959900D02*
X36415082Y-186031328D01*
X36415082Y-186031328D02*
X36129368Y-186031328D01*
X36129368Y-186031328D02*
X35986510Y-185959900D01*
X35986510Y-185959900D02*
X35915082Y-185817042D01*
X35915082Y-185817042D02*
X35915082Y-185245614D01*
X35915082Y-185245614D02*
X35986510Y-185102757D01*
X35986510Y-185102757D02*
X36129368Y-185031328D01*
X36129368Y-185031328D02*
X36415082Y-185031328D01*
X36415082Y-185031328D02*
X36557939Y-185102757D01*
X36557939Y-185102757D02*
X36629368Y-185245614D01*
X36629368Y-185245614D02*
X36629368Y-185388471D01*
X36629368Y-185388471D02*
X35915082Y-185531328D01*
X37486510Y-186031328D02*
X37343653Y-185959900D01*
X37343653Y-185959900D02*
X37272224Y-185817042D01*
X37272224Y-185817042D02*
X37272224Y-184531328D01*
X38629367Y-185959900D02*
X38486510Y-186031328D01*
X38486510Y-186031328D02*
X38200796Y-186031328D01*
X38200796Y-186031328D02*
X38057938Y-185959900D01*
X38057938Y-185959900D02*
X37986510Y-185817042D01*
X37986510Y-185817042D02*
X37986510Y-185245614D01*
X37986510Y-185245614D02*
X38057938Y-185102757D01*
X38057938Y-185102757D02*
X38200796Y-185031328D01*
X38200796Y-185031328D02*
X38486510Y-185031328D01*
X38486510Y-185031328D02*
X38629367Y-185102757D01*
X38629367Y-185102757D02*
X38700796Y-185245614D01*
X38700796Y-185245614D02*
X38700796Y-185388471D01*
X38700796Y-185388471D02*
X37986510Y-185531328D01*
X39986510Y-185959900D02*
X39843652Y-186031328D01*
X39843652Y-186031328D02*
X39557938Y-186031328D01*
X39557938Y-186031328D02*
X39415081Y-185959900D01*
X39415081Y-185959900D02*
X39343652Y-185888471D01*
X39343652Y-185888471D02*
X39272224Y-185745614D01*
X39272224Y-185745614D02*
X39272224Y-185317042D01*
X39272224Y-185317042D02*
X39343652Y-185174185D01*
X39343652Y-185174185D02*
X39415081Y-185102757D01*
X39415081Y-185102757D02*
X39557938Y-185031328D01*
X39557938Y-185031328D02*
X39843652Y-185031328D01*
X39843652Y-185031328D02*
X39986510Y-185102757D01*
X40415081Y-185031328D02*
X40986509Y-185031328D01*
X40629366Y-184531328D02*
X40629366Y-185817042D01*
X40629366Y-185817042D02*
X40700795Y-185959900D01*
X40700795Y-185959900D02*
X40843652Y-186031328D01*
X40843652Y-186031328D02*
X40986509Y-186031328D01*
X42629366Y-186031328D02*
X42629366Y-185031328D01*
X42629366Y-184531328D02*
X42557938Y-184602757D01*
X42557938Y-184602757D02*
X42629366Y-184674185D01*
X42629366Y-184674185D02*
X42700795Y-184602757D01*
X42700795Y-184602757D02*
X42629366Y-184531328D01*
X42629366Y-184531328D02*
X42629366Y-184674185D01*
X43129367Y-185031328D02*
X43700795Y-185031328D01*
X43343652Y-184531328D02*
X43343652Y-185817042D01*
X43343652Y-185817042D02*
X43415081Y-185959900D01*
X43415081Y-185959900D02*
X43557938Y-186031328D01*
X43557938Y-186031328D02*
X43700795Y-186031328D01*
X45343652Y-186031328D02*
X45343652Y-185031328D01*
X45343652Y-184531328D02*
X45272224Y-184602757D01*
X45272224Y-184602757D02*
X45343652Y-184674185D01*
X45343652Y-184674185D02*
X45415081Y-184602757D01*
X45415081Y-184602757D02*
X45343652Y-184531328D01*
X45343652Y-184531328D02*
X45343652Y-184674185D01*
X46057938Y-185031328D02*
X46057938Y-186031328D01*
X46057938Y-185174185D02*
X46129367Y-185102757D01*
X46129367Y-185102757D02*
X46272224Y-185031328D01*
X46272224Y-185031328D02*
X46486510Y-185031328D01*
X46486510Y-185031328D02*
X46629367Y-185102757D01*
X46629367Y-185102757D02*
X46700796Y-185245614D01*
X46700796Y-185245614D02*
X46700796Y-186031328D01*
X49272224Y-186031328D02*
X48557938Y-186031328D01*
X48557938Y-186031328D02*
X48557938Y-184531328D01*
X50415082Y-186031328D02*
X50415082Y-185245614D01*
X50415082Y-185245614D02*
X50343653Y-185102757D01*
X50343653Y-185102757D02*
X50200796Y-185031328D01*
X50200796Y-185031328D02*
X49915082Y-185031328D01*
X49915082Y-185031328D02*
X49772224Y-185102757D01*
X50415082Y-185959900D02*
X50272224Y-186031328D01*
X50272224Y-186031328D02*
X49915082Y-186031328D01*
X49915082Y-186031328D02*
X49772224Y-185959900D01*
X49772224Y-185959900D02*
X49700796Y-185817042D01*
X49700796Y-185817042D02*
X49700796Y-185674185D01*
X49700796Y-185674185D02*
X49772224Y-185531328D01*
X49772224Y-185531328D02*
X49915082Y-185459900D01*
X49915082Y-185459900D02*
X50272224Y-185459900D01*
X50272224Y-185459900D02*
X50415082Y-185388471D01*
X50986510Y-185031328D02*
X51343653Y-186031328D01*
X51700796Y-185031328D02*
X51343653Y-186031328D01*
X51343653Y-186031328D02*
X51200796Y-186388471D01*
X51200796Y-186388471D02*
X51129367Y-186459900D01*
X51129367Y-186459900D02*
X50986510Y-186531328D01*
X52843653Y-185959900D02*
X52700796Y-186031328D01*
X52700796Y-186031328D02*
X52415082Y-186031328D01*
X52415082Y-186031328D02*
X52272224Y-185959900D01*
X52272224Y-185959900D02*
X52200796Y-185817042D01*
X52200796Y-185817042D02*
X52200796Y-185245614D01*
X52200796Y-185245614D02*
X52272224Y-185102757D01*
X52272224Y-185102757D02*
X52415082Y-185031328D01*
X52415082Y-185031328D02*
X52700796Y-185031328D01*
X52700796Y-185031328D02*
X52843653Y-185102757D01*
X52843653Y-185102757D02*
X52915082Y-185245614D01*
X52915082Y-185245614D02*
X52915082Y-185388471D01*
X52915082Y-185388471D02*
X52200796Y-185531328D01*
X53557938Y-186031328D02*
X53557938Y-185031328D01*
X53557938Y-185317042D02*
X53629367Y-185174185D01*
X53629367Y-185174185D02*
X53700796Y-185102757D01*
X53700796Y-185102757D02*
X53843653Y-185031328D01*
X53843653Y-185031328D02*
X53986510Y-185031328D01*
X54415081Y-185959900D02*
X54557938Y-186031328D01*
X54557938Y-186031328D02*
X54843652Y-186031328D01*
X54843652Y-186031328D02*
X54986509Y-185959900D01*
X54986509Y-185959900D02*
X55057938Y-185817042D01*
X55057938Y-185817042D02*
X55057938Y-185745614D01*
X55057938Y-185745614D02*
X54986509Y-185602757D01*
X54986509Y-185602757D02*
X54843652Y-185531328D01*
X54843652Y-185531328D02*
X54629367Y-185531328D01*
X54629367Y-185531328D02*
X54486509Y-185459900D01*
X54486509Y-185459900D02*
X54415081Y-185317042D01*
X54415081Y-185317042D02*
X54415081Y-185245614D01*
X54415081Y-185245614D02*
X54486509Y-185102757D01*
X54486509Y-185102757D02*
X54629367Y-185031328D01*
X54629367Y-185031328D02*
X54843652Y-185031328D01*
X54843652Y-185031328D02*
X54986509Y-185102757D01*
X56843652Y-186031328D02*
X56843652Y-184531328D01*
X56843652Y-184531328D02*
X57343652Y-185602757D01*
X57343652Y-185602757D02*
X57843652Y-184531328D01*
X57843652Y-184531328D02*
X57843652Y-186031328D01*
X59200796Y-186031328D02*
X59200796Y-185245614D01*
X59200796Y-185245614D02*
X59129367Y-185102757D01*
X59129367Y-185102757D02*
X58986510Y-185031328D01*
X58986510Y-185031328D02*
X58700796Y-185031328D01*
X58700796Y-185031328D02*
X58557938Y-185102757D01*
X59200796Y-185959900D02*
X59057938Y-186031328D01*
X59057938Y-186031328D02*
X58700796Y-186031328D01*
X58700796Y-186031328D02*
X58557938Y-185959900D01*
X58557938Y-185959900D02*
X58486510Y-185817042D01*
X58486510Y-185817042D02*
X58486510Y-185674185D01*
X58486510Y-185674185D02*
X58557938Y-185531328D01*
X58557938Y-185531328D02*
X58700796Y-185459900D01*
X58700796Y-185459900D02*
X59057938Y-185459900D01*
X59057938Y-185459900D02*
X59200796Y-185388471D01*
X59915081Y-185031328D02*
X59915081Y-186031328D01*
X59915081Y-185174185D02*
X59986510Y-185102757D01*
X59986510Y-185102757D02*
X60129367Y-185031328D01*
X60129367Y-185031328D02*
X60343653Y-185031328D01*
X60343653Y-185031328D02*
X60486510Y-185102757D01*
X60486510Y-185102757D02*
X60557939Y-185245614D01*
X60557939Y-185245614D02*
X60557939Y-186031328D01*
X61915082Y-186031328D02*
X61915082Y-185245614D01*
X61915082Y-185245614D02*
X61843653Y-185102757D01*
X61843653Y-185102757D02*
X61700796Y-185031328D01*
X61700796Y-185031328D02*
X61415082Y-185031328D01*
X61415082Y-185031328D02*
X61272224Y-185102757D01*
X61915082Y-185959900D02*
X61772224Y-186031328D01*
X61772224Y-186031328D02*
X61415082Y-186031328D01*
X61415082Y-186031328D02*
X61272224Y-185959900D01*
X61272224Y-185959900D02*
X61200796Y-185817042D01*
X61200796Y-185817042D02*
X61200796Y-185674185D01*
X61200796Y-185674185D02*
X61272224Y-185531328D01*
X61272224Y-185531328D02*
X61415082Y-185459900D01*
X61415082Y-185459900D02*
X61772224Y-185459900D01*
X61772224Y-185459900D02*
X61915082Y-185388471D01*
X63272225Y-185031328D02*
X63272225Y-186245614D01*
X63272225Y-186245614D02*
X63200796Y-186388471D01*
X63200796Y-186388471D02*
X63129367Y-186459900D01*
X63129367Y-186459900D02*
X62986510Y-186531328D01*
X62986510Y-186531328D02*
X62772225Y-186531328D01*
X62772225Y-186531328D02*
X62629367Y-186459900D01*
X63272225Y-185959900D02*
X63129367Y-186031328D01*
X63129367Y-186031328D02*
X62843653Y-186031328D01*
X62843653Y-186031328D02*
X62700796Y-185959900D01*
X62700796Y-185959900D02*
X62629367Y-185888471D01*
X62629367Y-185888471D02*
X62557939Y-185745614D01*
X62557939Y-185745614D02*
X62557939Y-185317042D01*
X62557939Y-185317042D02*
X62629367Y-185174185D01*
X62629367Y-185174185D02*
X62700796Y-185102757D01*
X62700796Y-185102757D02*
X62843653Y-185031328D01*
X62843653Y-185031328D02*
X63129367Y-185031328D01*
X63129367Y-185031328D02*
X63272225Y-185102757D01*
X64557939Y-185959900D02*
X64415082Y-186031328D01*
X64415082Y-186031328D02*
X64129368Y-186031328D01*
X64129368Y-186031328D02*
X63986510Y-185959900D01*
X63986510Y-185959900D02*
X63915082Y-185817042D01*
X63915082Y-185817042D02*
X63915082Y-185245614D01*
X63915082Y-185245614D02*
X63986510Y-185102757D01*
X63986510Y-185102757D02*
X64129368Y-185031328D01*
X64129368Y-185031328D02*
X64415082Y-185031328D01*
X64415082Y-185031328D02*
X64557939Y-185102757D01*
X64557939Y-185102757D02*
X64629368Y-185245614D01*
X64629368Y-185245614D02*
X64629368Y-185388471D01*
X64629368Y-185388471D02*
X63915082Y-185531328D01*
X65272224Y-186031328D02*
X65272224Y-185031328D01*
X65272224Y-185317042D02*
X65343653Y-185174185D01*
X65343653Y-185174185D02*
X65415082Y-185102757D01*
X65415082Y-185102757D02*
X65557939Y-185031328D01*
X65557939Y-185031328D02*
X65700796Y-185031328D01*
X67129367Y-185031328D02*
X67700795Y-185031328D01*
X67343652Y-184531328D02*
X67343652Y-185817042D01*
X67343652Y-185817042D02*
X67415081Y-185959900D01*
X67415081Y-185959900D02*
X67557938Y-186031328D01*
X67557938Y-186031328D02*
X67700795Y-186031328D01*
X68415081Y-186031328D02*
X68272224Y-185959900D01*
X68272224Y-185959900D02*
X68200795Y-185888471D01*
X68200795Y-185888471D02*
X68129367Y-185745614D01*
X68129367Y-185745614D02*
X68129367Y-185317042D01*
X68129367Y-185317042D02*
X68200795Y-185174185D01*
X68200795Y-185174185D02*
X68272224Y-185102757D01*
X68272224Y-185102757D02*
X68415081Y-185031328D01*
X68415081Y-185031328D02*
X68629367Y-185031328D01*
X68629367Y-185031328D02*
X68772224Y-185102757D01*
X68772224Y-185102757D02*
X68843653Y-185174185D01*
X68843653Y-185174185D02*
X68915081Y-185317042D01*
X68915081Y-185317042D02*
X68915081Y-185745614D01*
X68915081Y-185745614D02*
X68843653Y-185888471D01*
X68843653Y-185888471D02*
X68772224Y-185959900D01*
X68772224Y-185959900D02*
X68629367Y-186031328D01*
X68629367Y-186031328D02*
X68415081Y-186031328D01*
X70700795Y-186031328D02*
X70700795Y-185031328D01*
X70700795Y-185174185D02*
X70772224Y-185102757D01*
X70772224Y-185102757D02*
X70915081Y-185031328D01*
X70915081Y-185031328D02*
X71129367Y-185031328D01*
X71129367Y-185031328D02*
X71272224Y-185102757D01*
X71272224Y-185102757D02*
X71343653Y-185245614D01*
X71343653Y-185245614D02*
X71343653Y-186031328D01*
X71343653Y-185245614D02*
X71415081Y-185102757D01*
X71415081Y-185102757D02*
X71557938Y-185031328D01*
X71557938Y-185031328D02*
X71772224Y-185031328D01*
X71772224Y-185031328D02*
X71915081Y-185102757D01*
X71915081Y-185102757D02*
X71986510Y-185245614D01*
X71986510Y-185245614D02*
X71986510Y-186031328D01*
X73343653Y-186031328D02*
X73343653Y-185245614D01*
X73343653Y-185245614D02*
X73272224Y-185102757D01*
X73272224Y-185102757D02*
X73129367Y-185031328D01*
X73129367Y-185031328D02*
X72843653Y-185031328D01*
X72843653Y-185031328D02*
X72700795Y-185102757D01*
X73343653Y-185959900D02*
X73200795Y-186031328D01*
X73200795Y-186031328D02*
X72843653Y-186031328D01*
X72843653Y-186031328D02*
X72700795Y-185959900D01*
X72700795Y-185959900D02*
X72629367Y-185817042D01*
X72629367Y-185817042D02*
X72629367Y-185674185D01*
X72629367Y-185674185D02*
X72700795Y-185531328D01*
X72700795Y-185531328D02*
X72843653Y-185459900D01*
X72843653Y-185459900D02*
X73200795Y-185459900D01*
X73200795Y-185459900D02*
X73343653Y-185388471D01*
X74057938Y-186031328D02*
X74057938Y-184531328D01*
X74200796Y-185459900D02*
X74629367Y-186031328D01*
X74629367Y-185031328D02*
X74057938Y-185602757D01*
X75843653Y-185959900D02*
X75700796Y-186031328D01*
X75700796Y-186031328D02*
X75415082Y-186031328D01*
X75415082Y-186031328D02*
X75272224Y-185959900D01*
X75272224Y-185959900D02*
X75200796Y-185817042D01*
X75200796Y-185817042D02*
X75200796Y-185245614D01*
X75200796Y-185245614D02*
X75272224Y-185102757D01*
X75272224Y-185102757D02*
X75415082Y-185031328D01*
X75415082Y-185031328D02*
X75700796Y-185031328D01*
X75700796Y-185031328D02*
X75843653Y-185102757D01*
X75843653Y-185102757D02*
X75915082Y-185245614D01*
X75915082Y-185245614D02*
X75915082Y-185388471D01*
X75915082Y-185388471D02*
X75200796Y-185531328D01*
X77486510Y-185031328D02*
X78057938Y-185031328D01*
X77700795Y-184531328D02*
X77700795Y-185817042D01*
X77700795Y-185817042D02*
X77772224Y-185959900D01*
X77772224Y-185959900D02*
X77915081Y-186031328D01*
X77915081Y-186031328D02*
X78057938Y-186031328D01*
X78557938Y-186031328D02*
X78557938Y-184531328D01*
X79200796Y-186031328D02*
X79200796Y-185245614D01*
X79200796Y-185245614D02*
X79129367Y-185102757D01*
X79129367Y-185102757D02*
X78986510Y-185031328D01*
X78986510Y-185031328D02*
X78772224Y-185031328D01*
X78772224Y-185031328D02*
X78629367Y-185102757D01*
X78629367Y-185102757D02*
X78557938Y-185174185D01*
X80486510Y-185959900D02*
X80343653Y-186031328D01*
X80343653Y-186031328D02*
X80057939Y-186031328D01*
X80057939Y-186031328D02*
X79915081Y-185959900D01*
X79915081Y-185959900D02*
X79843653Y-185817042D01*
X79843653Y-185817042D02*
X79843653Y-185245614D01*
X79843653Y-185245614D02*
X79915081Y-185102757D01*
X79915081Y-185102757D02*
X80057939Y-185031328D01*
X80057939Y-185031328D02*
X80343653Y-185031328D01*
X80343653Y-185031328D02*
X80486510Y-185102757D01*
X80486510Y-185102757D02*
X80557939Y-185245614D01*
X80557939Y-185245614D02*
X80557939Y-185388471D01*
X80557939Y-185388471D02*
X79843653Y-185531328D01*
X81200795Y-186031328D02*
X81200795Y-185031328D01*
X81200795Y-185174185D02*
X81272224Y-185102757D01*
X81272224Y-185102757D02*
X81415081Y-185031328D01*
X81415081Y-185031328D02*
X81629367Y-185031328D01*
X81629367Y-185031328D02*
X81772224Y-185102757D01*
X81772224Y-185102757D02*
X81843653Y-185245614D01*
X81843653Y-185245614D02*
X81843653Y-186031328D01*
X81843653Y-185245614D02*
X81915081Y-185102757D01*
X81915081Y-185102757D02*
X82057938Y-185031328D01*
X82057938Y-185031328D02*
X82272224Y-185031328D01*
X82272224Y-185031328D02*
X82415081Y-185102757D01*
X82415081Y-185102757D02*
X82486510Y-185245614D01*
X82486510Y-185245614D02*
X82486510Y-186031328D01*
X84343652Y-186031328D02*
X84343652Y-185031328D01*
X84343652Y-184531328D02*
X84272224Y-184602757D01*
X84272224Y-184602757D02*
X84343652Y-184674185D01*
X84343652Y-184674185D02*
X84415081Y-184602757D01*
X84415081Y-184602757D02*
X84343652Y-184531328D01*
X84343652Y-184531328D02*
X84343652Y-184674185D01*
X85057938Y-185031328D02*
X85057938Y-186031328D01*
X85057938Y-185174185D02*
X85129367Y-185102757D01*
X85129367Y-185102757D02*
X85272224Y-185031328D01*
X85272224Y-185031328D02*
X85486510Y-185031328D01*
X85486510Y-185031328D02*
X85629367Y-185102757D01*
X85629367Y-185102757D02*
X85700796Y-185245614D01*
X85700796Y-185245614D02*
X85700796Y-186031328D01*
X86272224Y-185031328D02*
X86629367Y-186031328D01*
X86629367Y-186031328D02*
X86986510Y-185031328D01*
X87557938Y-186031328D02*
X87557938Y-185031328D01*
X87557938Y-184531328D02*
X87486510Y-184602757D01*
X87486510Y-184602757D02*
X87557938Y-184674185D01*
X87557938Y-184674185D02*
X87629367Y-184602757D01*
X87629367Y-184602757D02*
X87557938Y-184531328D01*
X87557938Y-184531328D02*
X87557938Y-184674185D01*
X88200796Y-185959900D02*
X88343653Y-186031328D01*
X88343653Y-186031328D02*
X88629367Y-186031328D01*
X88629367Y-186031328D02*
X88772224Y-185959900D01*
X88772224Y-185959900D02*
X88843653Y-185817042D01*
X88843653Y-185817042D02*
X88843653Y-185745614D01*
X88843653Y-185745614D02*
X88772224Y-185602757D01*
X88772224Y-185602757D02*
X88629367Y-185531328D01*
X88629367Y-185531328D02*
X88415082Y-185531328D01*
X88415082Y-185531328D02*
X88272224Y-185459900D01*
X88272224Y-185459900D02*
X88200796Y-185317042D01*
X88200796Y-185317042D02*
X88200796Y-185245614D01*
X88200796Y-185245614D02*
X88272224Y-185102757D01*
X88272224Y-185102757D02*
X88415082Y-185031328D01*
X88415082Y-185031328D02*
X88629367Y-185031328D01*
X88629367Y-185031328D02*
X88772224Y-185102757D01*
X89486510Y-186031328D02*
X89486510Y-185031328D01*
X89486510Y-184531328D02*
X89415082Y-184602757D01*
X89415082Y-184602757D02*
X89486510Y-184674185D01*
X89486510Y-184674185D02*
X89557939Y-184602757D01*
X89557939Y-184602757D02*
X89486510Y-184531328D01*
X89486510Y-184531328D02*
X89486510Y-184674185D01*
X90200796Y-186031328D02*
X90200796Y-184531328D01*
X90200796Y-185102757D02*
X90343654Y-185031328D01*
X90343654Y-185031328D02*
X90629368Y-185031328D01*
X90629368Y-185031328D02*
X90772225Y-185102757D01*
X90772225Y-185102757D02*
X90843654Y-185174185D01*
X90843654Y-185174185D02*
X90915082Y-185317042D01*
X90915082Y-185317042D02*
X90915082Y-185745614D01*
X90915082Y-185745614D02*
X90843654Y-185888471D01*
X90843654Y-185888471D02*
X90772225Y-185959900D01*
X90772225Y-185959900D02*
X90629368Y-186031328D01*
X90629368Y-186031328D02*
X90343654Y-186031328D01*
X90343654Y-186031328D02*
X90200796Y-185959900D01*
X91772225Y-186031328D02*
X91629368Y-185959900D01*
X91629368Y-185959900D02*
X91557939Y-185817042D01*
X91557939Y-185817042D02*
X91557939Y-184531328D01*
X92915082Y-185959900D02*
X92772225Y-186031328D01*
X92772225Y-186031328D02*
X92486511Y-186031328D01*
X92486511Y-186031328D02*
X92343653Y-185959900D01*
X92343653Y-185959900D02*
X92272225Y-185817042D01*
X92272225Y-185817042D02*
X92272225Y-185245614D01*
X92272225Y-185245614D02*
X92343653Y-185102757D01*
X92343653Y-185102757D02*
X92486511Y-185031328D01*
X92486511Y-185031328D02*
X92772225Y-185031328D01*
X92772225Y-185031328D02*
X92915082Y-185102757D01*
X92915082Y-185102757D02*
X92986511Y-185245614D01*
X92986511Y-185245614D02*
X92986511Y-185388471D01*
X92986511Y-185388471D02*
X92272225Y-185531328D01*
X93629367Y-185888471D02*
X93700796Y-185959900D01*
X93700796Y-185959900D02*
X93629367Y-186031328D01*
X93629367Y-186031328D02*
X93557939Y-185959900D01*
X93557939Y-185959900D02*
X93629367Y-185888471D01*
X93629367Y-185888471D02*
X93629367Y-186031328D01*
X32772225Y-189432757D02*
X32629368Y-189361328D01*
X32629368Y-189361328D02*
X32415082Y-189361328D01*
X32415082Y-189361328D02*
X32200796Y-189432757D01*
X32200796Y-189432757D02*
X32057939Y-189575614D01*
X32057939Y-189575614D02*
X31986510Y-189718471D01*
X31986510Y-189718471D02*
X31915082Y-190004185D01*
X31915082Y-190004185D02*
X31915082Y-190218471D01*
X31915082Y-190218471D02*
X31986510Y-190504185D01*
X31986510Y-190504185D02*
X32057939Y-190647042D01*
X32057939Y-190647042D02*
X32200796Y-190789900D01*
X32200796Y-190789900D02*
X32415082Y-190861328D01*
X32415082Y-190861328D02*
X32557939Y-190861328D01*
X32557939Y-190861328D02*
X32772225Y-190789900D01*
X32772225Y-190789900D02*
X32843653Y-190718471D01*
X32843653Y-190718471D02*
X32843653Y-190218471D01*
X32843653Y-190218471D02*
X32557939Y-190218471D01*
X33486510Y-190861328D02*
X33486510Y-189361328D01*
X33486510Y-189361328D02*
X34057939Y-189361328D01*
X34057939Y-189361328D02*
X34200796Y-189432757D01*
X34200796Y-189432757D02*
X34272225Y-189504185D01*
X34272225Y-189504185D02*
X34343653Y-189647042D01*
X34343653Y-189647042D02*
X34343653Y-189861328D01*
X34343653Y-189861328D02*
X34272225Y-190004185D01*
X34272225Y-190004185D02*
X34200796Y-190075614D01*
X34200796Y-190075614D02*
X34057939Y-190147042D01*
X34057939Y-190147042D02*
X33486510Y-190147042D01*
X34986510Y-190861328D02*
X34986510Y-189361328D01*
X35986511Y-189361328D02*
X36272225Y-189361328D01*
X36272225Y-189361328D02*
X36415082Y-189432757D01*
X36415082Y-189432757D02*
X36557939Y-189575614D01*
X36557939Y-189575614D02*
X36629368Y-189861328D01*
X36629368Y-189861328D02*
X36629368Y-190361328D01*
X36629368Y-190361328D02*
X36557939Y-190647042D01*
X36557939Y-190647042D02*
X36415082Y-190789900D01*
X36415082Y-190789900D02*
X36272225Y-190861328D01*
X36272225Y-190861328D02*
X35986511Y-190861328D01*
X35986511Y-190861328D02*
X35843654Y-190789900D01*
X35843654Y-190789900D02*
X35700796Y-190647042D01*
X35700796Y-190647042D02*
X35629368Y-190361328D01*
X35629368Y-190361328D02*
X35629368Y-189861328D01*
X35629368Y-189861328D02*
X35700796Y-189575614D01*
X35700796Y-189575614D02*
X35843654Y-189432757D01*
X35843654Y-189432757D02*
X35986511Y-189361328D01*
X39057940Y-190789900D02*
X38915082Y-190861328D01*
X38915082Y-190861328D02*
X38629368Y-190861328D01*
X38629368Y-190861328D02*
X38486511Y-190789900D01*
X38486511Y-190789900D02*
X38415082Y-190718471D01*
X38415082Y-190718471D02*
X38343654Y-190575614D01*
X38343654Y-190575614D02*
X38343654Y-190147042D01*
X38343654Y-190147042D02*
X38415082Y-190004185D01*
X38415082Y-190004185D02*
X38486511Y-189932757D01*
X38486511Y-189932757D02*
X38629368Y-189861328D01*
X38629368Y-189861328D02*
X38915082Y-189861328D01*
X38915082Y-189861328D02*
X39057940Y-189932757D01*
X39915082Y-190861328D02*
X39772225Y-190789900D01*
X39772225Y-190789900D02*
X39700796Y-190718471D01*
X39700796Y-190718471D02*
X39629368Y-190575614D01*
X39629368Y-190575614D02*
X39629368Y-190147042D01*
X39629368Y-190147042D02*
X39700796Y-190004185D01*
X39700796Y-190004185D02*
X39772225Y-189932757D01*
X39772225Y-189932757D02*
X39915082Y-189861328D01*
X39915082Y-189861328D02*
X40129368Y-189861328D01*
X40129368Y-189861328D02*
X40272225Y-189932757D01*
X40272225Y-189932757D02*
X40343654Y-190004185D01*
X40343654Y-190004185D02*
X40415082Y-190147042D01*
X40415082Y-190147042D02*
X40415082Y-190575614D01*
X40415082Y-190575614D02*
X40343654Y-190718471D01*
X40343654Y-190718471D02*
X40272225Y-190789900D01*
X40272225Y-190789900D02*
X40129368Y-190861328D01*
X40129368Y-190861328D02*
X39915082Y-190861328D01*
X41057939Y-189861328D02*
X41057939Y-190861328D01*
X41057939Y-190004185D02*
X41129368Y-189932757D01*
X41129368Y-189932757D02*
X41272225Y-189861328D01*
X41272225Y-189861328D02*
X41486511Y-189861328D01*
X41486511Y-189861328D02*
X41629368Y-189932757D01*
X41629368Y-189932757D02*
X41700797Y-190075614D01*
X41700797Y-190075614D02*
X41700797Y-190861328D01*
X42415082Y-189861328D02*
X42415082Y-190861328D01*
X42415082Y-190004185D02*
X42486511Y-189932757D01*
X42486511Y-189932757D02*
X42629368Y-189861328D01*
X42629368Y-189861328D02*
X42843654Y-189861328D01*
X42843654Y-189861328D02*
X42986511Y-189932757D01*
X42986511Y-189932757D02*
X43057940Y-190075614D01*
X43057940Y-190075614D02*
X43057940Y-190861328D01*
X44343654Y-190789900D02*
X44200797Y-190861328D01*
X44200797Y-190861328D02*
X43915083Y-190861328D01*
X43915083Y-190861328D02*
X43772225Y-190789900D01*
X43772225Y-190789900D02*
X43700797Y-190647042D01*
X43700797Y-190647042D02*
X43700797Y-190075614D01*
X43700797Y-190075614D02*
X43772225Y-189932757D01*
X43772225Y-189932757D02*
X43915083Y-189861328D01*
X43915083Y-189861328D02*
X44200797Y-189861328D01*
X44200797Y-189861328D02*
X44343654Y-189932757D01*
X44343654Y-189932757D02*
X44415083Y-190075614D01*
X44415083Y-190075614D02*
X44415083Y-190218471D01*
X44415083Y-190218471D02*
X43700797Y-190361328D01*
X45700797Y-190789900D02*
X45557939Y-190861328D01*
X45557939Y-190861328D02*
X45272225Y-190861328D01*
X45272225Y-190861328D02*
X45129368Y-190789900D01*
X45129368Y-190789900D02*
X45057939Y-190718471D01*
X45057939Y-190718471D02*
X44986511Y-190575614D01*
X44986511Y-190575614D02*
X44986511Y-190147042D01*
X44986511Y-190147042D02*
X45057939Y-190004185D01*
X45057939Y-190004185D02*
X45129368Y-189932757D01*
X45129368Y-189932757D02*
X45272225Y-189861328D01*
X45272225Y-189861328D02*
X45557939Y-189861328D01*
X45557939Y-189861328D02*
X45700797Y-189932757D01*
X46129368Y-189861328D02*
X46700796Y-189861328D01*
X46343653Y-189361328D02*
X46343653Y-190647042D01*
X46343653Y-190647042D02*
X46415082Y-190789900D01*
X46415082Y-190789900D02*
X46557939Y-190861328D01*
X46557939Y-190861328D02*
X46700796Y-190861328D01*
X47415082Y-190861328D02*
X47272225Y-190789900D01*
X47272225Y-190789900D02*
X47200796Y-190718471D01*
X47200796Y-190718471D02*
X47129368Y-190575614D01*
X47129368Y-190575614D02*
X47129368Y-190147042D01*
X47129368Y-190147042D02*
X47200796Y-190004185D01*
X47200796Y-190004185D02*
X47272225Y-189932757D01*
X47272225Y-189932757D02*
X47415082Y-189861328D01*
X47415082Y-189861328D02*
X47629368Y-189861328D01*
X47629368Y-189861328D02*
X47772225Y-189932757D01*
X47772225Y-189932757D02*
X47843654Y-190004185D01*
X47843654Y-190004185D02*
X47915082Y-190147042D01*
X47915082Y-190147042D02*
X47915082Y-190575614D01*
X47915082Y-190575614D02*
X47843654Y-190718471D01*
X47843654Y-190718471D02*
X47772225Y-190789900D01*
X47772225Y-190789900D02*
X47629368Y-190861328D01*
X47629368Y-190861328D02*
X47415082Y-190861328D01*
X48557939Y-190861328D02*
X48557939Y-189861328D01*
X48557939Y-190147042D02*
X48629368Y-190004185D01*
X48629368Y-190004185D02*
X48700797Y-189932757D01*
X48700797Y-189932757D02*
X48843654Y-189861328D01*
X48843654Y-189861328D02*
X48986511Y-189861328D01*
X50629367Y-189861328D02*
X50629367Y-190861328D01*
X50629367Y-190004185D02*
X50700796Y-189932757D01*
X50700796Y-189932757D02*
X50843653Y-189861328D01*
X50843653Y-189861328D02*
X51057939Y-189861328D01*
X51057939Y-189861328D02*
X51200796Y-189932757D01*
X51200796Y-189932757D02*
X51272225Y-190075614D01*
X51272225Y-190075614D02*
X51272225Y-190861328D01*
X52557939Y-190789900D02*
X52415082Y-190861328D01*
X52415082Y-190861328D02*
X52129368Y-190861328D01*
X52129368Y-190861328D02*
X51986510Y-190789900D01*
X51986510Y-190789900D02*
X51915082Y-190647042D01*
X51915082Y-190647042D02*
X51915082Y-190075614D01*
X51915082Y-190075614D02*
X51986510Y-189932757D01*
X51986510Y-189932757D02*
X52129368Y-189861328D01*
X52129368Y-189861328D02*
X52415082Y-189861328D01*
X52415082Y-189861328D02*
X52557939Y-189932757D01*
X52557939Y-189932757D02*
X52629368Y-190075614D01*
X52629368Y-190075614D02*
X52629368Y-190218471D01*
X52629368Y-190218471D02*
X51915082Y-190361328D01*
X53057939Y-189861328D02*
X53629367Y-189861328D01*
X53272224Y-189361328D02*
X53272224Y-190647042D01*
X53272224Y-190647042D02*
X53343653Y-190789900D01*
X53343653Y-190789900D02*
X53486510Y-190861328D01*
X53486510Y-190861328D02*
X53629367Y-190861328D01*
X54057939Y-190789900D02*
X54200796Y-190861328D01*
X54200796Y-190861328D02*
X54486510Y-190861328D01*
X54486510Y-190861328D02*
X54629367Y-190789900D01*
X54629367Y-190789900D02*
X54700796Y-190647042D01*
X54700796Y-190647042D02*
X54700796Y-190575614D01*
X54700796Y-190575614D02*
X54629367Y-190432757D01*
X54629367Y-190432757D02*
X54486510Y-190361328D01*
X54486510Y-190361328D02*
X54272225Y-190361328D01*
X54272225Y-190361328D02*
X54129367Y-190289900D01*
X54129367Y-190289900D02*
X54057939Y-190147042D01*
X54057939Y-190147042D02*
X54057939Y-190075614D01*
X54057939Y-190075614D02*
X54129367Y-189932757D01*
X54129367Y-189932757D02*
X54272225Y-189861328D01*
X54272225Y-189861328D02*
X54486510Y-189861328D01*
X54486510Y-189861328D02*
X54629367Y-189932757D01*
X57129368Y-190861328D02*
X57129368Y-190075614D01*
X57129368Y-190075614D02*
X57057939Y-189932757D01*
X57057939Y-189932757D02*
X56915082Y-189861328D01*
X56915082Y-189861328D02*
X56629368Y-189861328D01*
X56629368Y-189861328D02*
X56486510Y-189932757D01*
X57129368Y-190789900D02*
X56986510Y-190861328D01*
X56986510Y-190861328D02*
X56629368Y-190861328D01*
X56629368Y-190861328D02*
X56486510Y-190789900D01*
X56486510Y-190789900D02*
X56415082Y-190647042D01*
X56415082Y-190647042D02*
X56415082Y-190504185D01*
X56415082Y-190504185D02*
X56486510Y-190361328D01*
X56486510Y-190361328D02*
X56629368Y-190289900D01*
X56629368Y-190289900D02*
X56986510Y-190289900D01*
X56986510Y-190289900D02*
X57129368Y-190218471D01*
X57843653Y-190861328D02*
X57843653Y-189861328D01*
X57843653Y-190147042D02*
X57915082Y-190004185D01*
X57915082Y-190004185D02*
X57986511Y-189932757D01*
X57986511Y-189932757D02*
X58129368Y-189861328D01*
X58129368Y-189861328D02*
X58272225Y-189861328D01*
X59343653Y-190789900D02*
X59200796Y-190861328D01*
X59200796Y-190861328D02*
X58915082Y-190861328D01*
X58915082Y-190861328D02*
X58772224Y-190789900D01*
X58772224Y-190789900D02*
X58700796Y-190647042D01*
X58700796Y-190647042D02*
X58700796Y-190075614D01*
X58700796Y-190075614D02*
X58772224Y-189932757D01*
X58772224Y-189932757D02*
X58915082Y-189861328D01*
X58915082Y-189861328D02*
X59200796Y-189861328D01*
X59200796Y-189861328D02*
X59343653Y-189932757D01*
X59343653Y-189932757D02*
X59415082Y-190075614D01*
X59415082Y-190075614D02*
X59415082Y-190218471D01*
X59415082Y-190218471D02*
X58700796Y-190361328D01*
X61200795Y-189861328D02*
X61200795Y-190861328D01*
X61200795Y-190004185D02*
X61272224Y-189932757D01*
X61272224Y-189932757D02*
X61415081Y-189861328D01*
X61415081Y-189861328D02*
X61629367Y-189861328D01*
X61629367Y-189861328D02*
X61772224Y-189932757D01*
X61772224Y-189932757D02*
X61843653Y-190075614D01*
X61843653Y-190075614D02*
X61843653Y-190861328D01*
X62772224Y-190861328D02*
X62629367Y-190789900D01*
X62629367Y-190789900D02*
X62557938Y-190718471D01*
X62557938Y-190718471D02*
X62486510Y-190575614D01*
X62486510Y-190575614D02*
X62486510Y-190147042D01*
X62486510Y-190147042D02*
X62557938Y-190004185D01*
X62557938Y-190004185D02*
X62629367Y-189932757D01*
X62629367Y-189932757D02*
X62772224Y-189861328D01*
X62772224Y-189861328D02*
X62986510Y-189861328D01*
X62986510Y-189861328D02*
X63129367Y-189932757D01*
X63129367Y-189932757D02*
X63200796Y-190004185D01*
X63200796Y-190004185D02*
X63272224Y-190147042D01*
X63272224Y-190147042D02*
X63272224Y-190575614D01*
X63272224Y-190575614D02*
X63200796Y-190718471D01*
X63200796Y-190718471D02*
X63129367Y-190789900D01*
X63129367Y-190789900D02*
X62986510Y-190861328D01*
X62986510Y-190861328D02*
X62772224Y-190861328D01*
X63700796Y-189861328D02*
X64272224Y-189861328D01*
X63915081Y-189361328D02*
X63915081Y-190647042D01*
X63915081Y-190647042D02*
X63986510Y-190789900D01*
X63986510Y-190789900D02*
X64129367Y-190861328D01*
X64129367Y-190861328D02*
X64272224Y-190861328D01*
X66557939Y-190789900D02*
X66415081Y-190861328D01*
X66415081Y-190861328D02*
X66129367Y-190861328D01*
X66129367Y-190861328D02*
X65986510Y-190789900D01*
X65986510Y-190789900D02*
X65915081Y-190718471D01*
X65915081Y-190718471D02*
X65843653Y-190575614D01*
X65843653Y-190575614D02*
X65843653Y-190147042D01*
X65843653Y-190147042D02*
X65915081Y-190004185D01*
X65915081Y-190004185D02*
X65986510Y-189932757D01*
X65986510Y-189932757D02*
X66129367Y-189861328D01*
X66129367Y-189861328D02*
X66415081Y-189861328D01*
X66415081Y-189861328D02*
X66557939Y-189932757D01*
X67415081Y-190861328D02*
X67272224Y-190789900D01*
X67272224Y-190789900D02*
X67200795Y-190718471D01*
X67200795Y-190718471D02*
X67129367Y-190575614D01*
X67129367Y-190575614D02*
X67129367Y-190147042D01*
X67129367Y-190147042D02*
X67200795Y-190004185D01*
X67200795Y-190004185D02*
X67272224Y-189932757D01*
X67272224Y-189932757D02*
X67415081Y-189861328D01*
X67415081Y-189861328D02*
X67629367Y-189861328D01*
X67629367Y-189861328D02*
X67772224Y-189932757D01*
X67772224Y-189932757D02*
X67843653Y-190004185D01*
X67843653Y-190004185D02*
X67915081Y-190147042D01*
X67915081Y-190147042D02*
X67915081Y-190575614D01*
X67915081Y-190575614D02*
X67843653Y-190718471D01*
X67843653Y-190718471D02*
X67772224Y-190789900D01*
X67772224Y-190789900D02*
X67629367Y-190861328D01*
X67629367Y-190861328D02*
X67415081Y-190861328D01*
X68557938Y-189861328D02*
X68557938Y-190861328D01*
X68557938Y-190004185D02*
X68629367Y-189932757D01*
X68629367Y-189932757D02*
X68772224Y-189861328D01*
X68772224Y-189861328D02*
X68986510Y-189861328D01*
X68986510Y-189861328D02*
X69129367Y-189932757D01*
X69129367Y-189932757D02*
X69200796Y-190075614D01*
X69200796Y-190075614D02*
X69200796Y-190861328D01*
X69915081Y-189861328D02*
X69915081Y-190861328D01*
X69915081Y-190004185D02*
X69986510Y-189932757D01*
X69986510Y-189932757D02*
X70129367Y-189861328D01*
X70129367Y-189861328D02*
X70343653Y-189861328D01*
X70343653Y-189861328D02*
X70486510Y-189932757D01*
X70486510Y-189932757D02*
X70557939Y-190075614D01*
X70557939Y-190075614D02*
X70557939Y-190861328D01*
X71843653Y-190789900D02*
X71700796Y-190861328D01*
X71700796Y-190861328D02*
X71415082Y-190861328D01*
X71415082Y-190861328D02*
X71272224Y-190789900D01*
X71272224Y-190789900D02*
X71200796Y-190647042D01*
X71200796Y-190647042D02*
X71200796Y-190075614D01*
X71200796Y-190075614D02*
X71272224Y-189932757D01*
X71272224Y-189932757D02*
X71415082Y-189861328D01*
X71415082Y-189861328D02*
X71700796Y-189861328D01*
X71700796Y-189861328D02*
X71843653Y-189932757D01*
X71843653Y-189932757D02*
X71915082Y-190075614D01*
X71915082Y-190075614D02*
X71915082Y-190218471D01*
X71915082Y-190218471D02*
X71200796Y-190361328D01*
X73200796Y-190789900D02*
X73057938Y-190861328D01*
X73057938Y-190861328D02*
X72772224Y-190861328D01*
X72772224Y-190861328D02*
X72629367Y-190789900D01*
X72629367Y-190789900D02*
X72557938Y-190718471D01*
X72557938Y-190718471D02*
X72486510Y-190575614D01*
X72486510Y-190575614D02*
X72486510Y-190147042D01*
X72486510Y-190147042D02*
X72557938Y-190004185D01*
X72557938Y-190004185D02*
X72629367Y-189932757D01*
X72629367Y-189932757D02*
X72772224Y-189861328D01*
X72772224Y-189861328D02*
X73057938Y-189861328D01*
X73057938Y-189861328D02*
X73200796Y-189932757D01*
X73629367Y-189861328D02*
X74200795Y-189861328D01*
X73843652Y-189361328D02*
X73843652Y-190647042D01*
X73843652Y-190647042D02*
X73915081Y-190789900D01*
X73915081Y-190789900D02*
X74057938Y-190861328D01*
X74057938Y-190861328D02*
X74200795Y-190861328D01*
X75272224Y-190789900D02*
X75129367Y-190861328D01*
X75129367Y-190861328D02*
X74843653Y-190861328D01*
X74843653Y-190861328D02*
X74700795Y-190789900D01*
X74700795Y-190789900D02*
X74629367Y-190647042D01*
X74629367Y-190647042D02*
X74629367Y-190075614D01*
X74629367Y-190075614D02*
X74700795Y-189932757D01*
X74700795Y-189932757D02*
X74843653Y-189861328D01*
X74843653Y-189861328D02*
X75129367Y-189861328D01*
X75129367Y-189861328D02*
X75272224Y-189932757D01*
X75272224Y-189932757D02*
X75343653Y-190075614D01*
X75343653Y-190075614D02*
X75343653Y-190218471D01*
X75343653Y-190218471D02*
X74629367Y-190361328D01*
X76629367Y-190861328D02*
X76629367Y-189361328D01*
X76629367Y-190789900D02*
X76486509Y-190861328D01*
X76486509Y-190861328D02*
X76200795Y-190861328D01*
X76200795Y-190861328D02*
X76057938Y-190789900D01*
X76057938Y-190789900D02*
X75986509Y-190718471D01*
X75986509Y-190718471D02*
X75915081Y-190575614D01*
X75915081Y-190575614D02*
X75915081Y-190147042D01*
X75915081Y-190147042D02*
X75986509Y-190004185D01*
X75986509Y-190004185D02*
X76057938Y-189932757D01*
X76057938Y-189932757D02*
X76200795Y-189861328D01*
X76200795Y-189861328D02*
X76486509Y-189861328D01*
X76486509Y-189861328D02*
X76629367Y-189932757D01*
X77415081Y-190789900D02*
X77415081Y-190861328D01*
X77415081Y-190861328D02*
X77343652Y-191004185D01*
X77343652Y-191004185D02*
X77272224Y-191075614D01*
X78986510Y-189861328D02*
X79557938Y-189861328D01*
X79200795Y-189361328D02*
X79200795Y-190647042D01*
X79200795Y-190647042D02*
X79272224Y-190789900D01*
X79272224Y-190789900D02*
X79415081Y-190861328D01*
X79415081Y-190861328D02*
X79557938Y-190861328D01*
X80057938Y-190861328D02*
X80057938Y-189361328D01*
X80700796Y-190861328D02*
X80700796Y-190075614D01*
X80700796Y-190075614D02*
X80629367Y-189932757D01*
X80629367Y-189932757D02*
X80486510Y-189861328D01*
X80486510Y-189861328D02*
X80272224Y-189861328D01*
X80272224Y-189861328D02*
X80129367Y-189932757D01*
X80129367Y-189932757D02*
X80057938Y-190004185D01*
X81986510Y-190789900D02*
X81843653Y-190861328D01*
X81843653Y-190861328D02*
X81557939Y-190861328D01*
X81557939Y-190861328D02*
X81415081Y-190789900D01*
X81415081Y-190789900D02*
X81343653Y-190647042D01*
X81343653Y-190647042D02*
X81343653Y-190075614D01*
X81343653Y-190075614D02*
X81415081Y-189932757D01*
X81415081Y-189932757D02*
X81557939Y-189861328D01*
X81557939Y-189861328D02*
X81843653Y-189861328D01*
X81843653Y-189861328D02*
X81986510Y-189932757D01*
X81986510Y-189932757D02*
X82057939Y-190075614D01*
X82057939Y-190075614D02*
X82057939Y-190218471D01*
X82057939Y-190218471D02*
X81343653Y-190361328D01*
X82629367Y-190789900D02*
X82772224Y-190861328D01*
X82772224Y-190861328D02*
X83057938Y-190861328D01*
X83057938Y-190861328D02*
X83200795Y-190789900D01*
X83200795Y-190789900D02*
X83272224Y-190647042D01*
X83272224Y-190647042D02*
X83272224Y-190575614D01*
X83272224Y-190575614D02*
X83200795Y-190432757D01*
X83200795Y-190432757D02*
X83057938Y-190361328D01*
X83057938Y-190361328D02*
X82843653Y-190361328D01*
X82843653Y-190361328D02*
X82700795Y-190289900D01*
X82700795Y-190289900D02*
X82629367Y-190147042D01*
X82629367Y-190147042D02*
X82629367Y-190075614D01*
X82629367Y-190075614D02*
X82700795Y-189932757D01*
X82700795Y-189932757D02*
X82843653Y-189861328D01*
X82843653Y-189861328D02*
X83057938Y-189861328D01*
X83057938Y-189861328D02*
X83200795Y-189932757D01*
X84486510Y-190789900D02*
X84343653Y-190861328D01*
X84343653Y-190861328D02*
X84057939Y-190861328D01*
X84057939Y-190861328D02*
X83915081Y-190789900D01*
X83915081Y-190789900D02*
X83843653Y-190647042D01*
X83843653Y-190647042D02*
X83843653Y-190075614D01*
X83843653Y-190075614D02*
X83915081Y-189932757D01*
X83915081Y-189932757D02*
X84057939Y-189861328D01*
X84057939Y-189861328D02*
X84343653Y-189861328D01*
X84343653Y-189861328D02*
X84486510Y-189932757D01*
X84486510Y-189932757D02*
X84557939Y-190075614D01*
X84557939Y-190075614D02*
X84557939Y-190218471D01*
X84557939Y-190218471D02*
X83843653Y-190361328D01*
X86200795Y-189861328D02*
X86486510Y-190861328D01*
X86486510Y-190861328D02*
X86772224Y-190147042D01*
X86772224Y-190147042D02*
X87057938Y-190861328D01*
X87057938Y-190861328D02*
X87343652Y-189861328D01*
X87915081Y-190861328D02*
X87915081Y-189861328D01*
X87915081Y-189361328D02*
X87843653Y-189432757D01*
X87843653Y-189432757D02*
X87915081Y-189504185D01*
X87915081Y-189504185D02*
X87986510Y-189432757D01*
X87986510Y-189432757D02*
X87915081Y-189361328D01*
X87915081Y-189361328D02*
X87915081Y-189504185D01*
X88843653Y-190861328D02*
X88700796Y-190789900D01*
X88700796Y-190789900D02*
X88629367Y-190647042D01*
X88629367Y-190647042D02*
X88629367Y-189361328D01*
X89629367Y-190861328D02*
X89486510Y-190789900D01*
X89486510Y-190789900D02*
X89415081Y-190647042D01*
X89415081Y-190647042D02*
X89415081Y-189361328D01*
X91986510Y-189861328D02*
X91986510Y-191075614D01*
X91986510Y-191075614D02*
X91915081Y-191218471D01*
X91915081Y-191218471D02*
X91843652Y-191289900D01*
X91843652Y-191289900D02*
X91700795Y-191361328D01*
X91700795Y-191361328D02*
X91486510Y-191361328D01*
X91486510Y-191361328D02*
X91343652Y-191289900D01*
X91986510Y-190789900D02*
X91843652Y-190861328D01*
X91843652Y-190861328D02*
X91557938Y-190861328D01*
X91557938Y-190861328D02*
X91415081Y-190789900D01*
X91415081Y-190789900D02*
X91343652Y-190718471D01*
X91343652Y-190718471D02*
X91272224Y-190575614D01*
X91272224Y-190575614D02*
X91272224Y-190147042D01*
X91272224Y-190147042D02*
X91343652Y-190004185D01*
X91343652Y-190004185D02*
X91415081Y-189932757D01*
X91415081Y-189932757D02*
X91557938Y-189861328D01*
X91557938Y-189861328D02*
X91843652Y-189861328D01*
X91843652Y-189861328D02*
X91986510Y-189932757D01*
X93272224Y-190789900D02*
X93129367Y-190861328D01*
X93129367Y-190861328D02*
X92843653Y-190861328D01*
X92843653Y-190861328D02*
X92700795Y-190789900D01*
X92700795Y-190789900D02*
X92629367Y-190647042D01*
X92629367Y-190647042D02*
X92629367Y-190075614D01*
X92629367Y-190075614D02*
X92700795Y-189932757D01*
X92700795Y-189932757D02*
X92843653Y-189861328D01*
X92843653Y-189861328D02*
X93129367Y-189861328D01*
X93129367Y-189861328D02*
X93272224Y-189932757D01*
X93272224Y-189932757D02*
X93343653Y-190075614D01*
X93343653Y-190075614D02*
X93343653Y-190218471D01*
X93343653Y-190218471D02*
X92629367Y-190361328D01*
X93772224Y-189861328D02*
X94343652Y-189861328D01*
X93986509Y-189361328D02*
X93986509Y-190647042D01*
X93986509Y-190647042D02*
X94057938Y-190789900D01*
X94057938Y-190789900D02*
X94200795Y-190861328D01*
X94200795Y-190861328D02*
X94343652Y-190861328D01*
X32629368Y-192276328D02*
X32629368Y-193276328D01*
X31986510Y-192276328D02*
X31986510Y-193062042D01*
X31986510Y-193062042D02*
X32057939Y-193204900D01*
X32057939Y-193204900D02*
X32200796Y-193276328D01*
X32200796Y-193276328D02*
X32415082Y-193276328D01*
X32415082Y-193276328D02*
X32557939Y-193204900D01*
X32557939Y-193204900D02*
X32629368Y-193133471D01*
X33343653Y-192276328D02*
X33343653Y-193776328D01*
X33343653Y-192347757D02*
X33486511Y-192276328D01*
X33486511Y-192276328D02*
X33772225Y-192276328D01*
X33772225Y-192276328D02*
X33915082Y-192347757D01*
X33915082Y-192347757D02*
X33986511Y-192419185D01*
X33986511Y-192419185D02*
X34057939Y-192562042D01*
X34057939Y-192562042D02*
X34057939Y-192990614D01*
X34057939Y-192990614D02*
X33986511Y-193133471D01*
X33986511Y-193133471D02*
X33915082Y-193204900D01*
X33915082Y-193204900D02*
X33772225Y-193276328D01*
X33772225Y-193276328D02*
X33486511Y-193276328D01*
X33486511Y-193276328D02*
X33343653Y-193204900D01*
X35343654Y-193276328D02*
X35343654Y-191776328D01*
X35343654Y-193204900D02*
X35200796Y-193276328D01*
X35200796Y-193276328D02*
X34915082Y-193276328D01*
X34915082Y-193276328D02*
X34772225Y-193204900D01*
X34772225Y-193204900D02*
X34700796Y-193133471D01*
X34700796Y-193133471D02*
X34629368Y-192990614D01*
X34629368Y-192990614D02*
X34629368Y-192562042D01*
X34629368Y-192562042D02*
X34700796Y-192419185D01*
X34700796Y-192419185D02*
X34772225Y-192347757D01*
X34772225Y-192347757D02*
X34915082Y-192276328D01*
X34915082Y-192276328D02*
X35200796Y-192276328D01*
X35200796Y-192276328D02*
X35343654Y-192347757D01*
X36700797Y-193276328D02*
X36700797Y-192490614D01*
X36700797Y-192490614D02*
X36629368Y-192347757D01*
X36629368Y-192347757D02*
X36486511Y-192276328D01*
X36486511Y-192276328D02*
X36200797Y-192276328D01*
X36200797Y-192276328D02*
X36057939Y-192347757D01*
X36700797Y-193204900D02*
X36557939Y-193276328D01*
X36557939Y-193276328D02*
X36200797Y-193276328D01*
X36200797Y-193276328D02*
X36057939Y-193204900D01*
X36057939Y-193204900D02*
X35986511Y-193062042D01*
X35986511Y-193062042D02*
X35986511Y-192919185D01*
X35986511Y-192919185D02*
X36057939Y-192776328D01*
X36057939Y-192776328D02*
X36200797Y-192704900D01*
X36200797Y-192704900D02*
X36557939Y-192704900D01*
X36557939Y-192704900D02*
X36700797Y-192633471D01*
X37200797Y-192276328D02*
X37772225Y-192276328D01*
X37415082Y-191776328D02*
X37415082Y-193062042D01*
X37415082Y-193062042D02*
X37486511Y-193204900D01*
X37486511Y-193204900D02*
X37629368Y-193276328D01*
X37629368Y-193276328D02*
X37772225Y-193276328D01*
X38843654Y-193204900D02*
X38700797Y-193276328D01*
X38700797Y-193276328D02*
X38415083Y-193276328D01*
X38415083Y-193276328D02*
X38272225Y-193204900D01*
X38272225Y-193204900D02*
X38200797Y-193062042D01*
X38200797Y-193062042D02*
X38200797Y-192490614D01*
X38200797Y-192490614D02*
X38272225Y-192347757D01*
X38272225Y-192347757D02*
X38415083Y-192276328D01*
X38415083Y-192276328D02*
X38700797Y-192276328D01*
X38700797Y-192276328D02*
X38843654Y-192347757D01*
X38843654Y-192347757D02*
X38915083Y-192490614D01*
X38915083Y-192490614D02*
X38915083Y-192633471D01*
X38915083Y-192633471D02*
X38200797Y-192776328D01*
X40200797Y-193276328D02*
X40200797Y-191776328D01*
X40200797Y-193204900D02*
X40057939Y-193276328D01*
X40057939Y-193276328D02*
X39772225Y-193276328D01*
X39772225Y-193276328D02*
X39629368Y-193204900D01*
X39629368Y-193204900D02*
X39557939Y-193133471D01*
X39557939Y-193133471D02*
X39486511Y-192990614D01*
X39486511Y-192990614D02*
X39486511Y-192562042D01*
X39486511Y-192562042D02*
X39557939Y-192419185D01*
X39557939Y-192419185D02*
X39629368Y-192347757D01*
X39629368Y-192347757D02*
X39772225Y-192276328D01*
X39772225Y-192276328D02*
X40057939Y-192276328D01*
X40057939Y-192276328D02*
X40200797Y-192347757D01*
X42700797Y-193276328D02*
X42700797Y-192490614D01*
X42700797Y-192490614D02*
X42629368Y-192347757D01*
X42629368Y-192347757D02*
X42486511Y-192276328D01*
X42486511Y-192276328D02*
X42200797Y-192276328D01*
X42200797Y-192276328D02*
X42057939Y-192347757D01*
X42700797Y-193204900D02*
X42557939Y-193276328D01*
X42557939Y-193276328D02*
X42200797Y-193276328D01*
X42200797Y-193276328D02*
X42057939Y-193204900D01*
X42057939Y-193204900D02*
X41986511Y-193062042D01*
X41986511Y-193062042D02*
X41986511Y-192919185D01*
X41986511Y-192919185D02*
X42057939Y-192776328D01*
X42057939Y-192776328D02*
X42200797Y-192704900D01*
X42200797Y-192704900D02*
X42557939Y-192704900D01*
X42557939Y-192704900D02*
X42700797Y-192633471D01*
X43343654Y-193204900D02*
X43486511Y-193276328D01*
X43486511Y-193276328D02*
X43772225Y-193276328D01*
X43772225Y-193276328D02*
X43915082Y-193204900D01*
X43915082Y-193204900D02*
X43986511Y-193062042D01*
X43986511Y-193062042D02*
X43986511Y-192990614D01*
X43986511Y-192990614D02*
X43915082Y-192847757D01*
X43915082Y-192847757D02*
X43772225Y-192776328D01*
X43772225Y-192776328D02*
X43557940Y-192776328D01*
X43557940Y-192776328D02*
X43415082Y-192704900D01*
X43415082Y-192704900D02*
X43343654Y-192562042D01*
X43343654Y-192562042D02*
X43343654Y-192490614D01*
X43343654Y-192490614D02*
X43415082Y-192347757D01*
X43415082Y-192347757D02*
X43557940Y-192276328D01*
X43557940Y-192276328D02*
X43772225Y-192276328D01*
X43772225Y-192276328D02*
X43915082Y-192347757D01*
X45772225Y-192276328D02*
X45772225Y-193776328D01*
X45772225Y-192347757D02*
X45915083Y-192276328D01*
X45915083Y-192276328D02*
X46200797Y-192276328D01*
X46200797Y-192276328D02*
X46343654Y-192347757D01*
X46343654Y-192347757D02*
X46415083Y-192419185D01*
X46415083Y-192419185D02*
X46486511Y-192562042D01*
X46486511Y-192562042D02*
X46486511Y-192990614D01*
X46486511Y-192990614D02*
X46415083Y-193133471D01*
X46415083Y-193133471D02*
X46343654Y-193204900D01*
X46343654Y-193204900D02*
X46200797Y-193276328D01*
X46200797Y-193276328D02*
X45915083Y-193276328D01*
X45915083Y-193276328D02*
X45772225Y-193204900D01*
X47700797Y-193204900D02*
X47557940Y-193276328D01*
X47557940Y-193276328D02*
X47272226Y-193276328D01*
X47272226Y-193276328D02*
X47129368Y-193204900D01*
X47129368Y-193204900D02*
X47057940Y-193062042D01*
X47057940Y-193062042D02*
X47057940Y-192490614D01*
X47057940Y-192490614D02*
X47129368Y-192347757D01*
X47129368Y-192347757D02*
X47272226Y-192276328D01*
X47272226Y-192276328D02*
X47557940Y-192276328D01*
X47557940Y-192276328D02*
X47700797Y-192347757D01*
X47700797Y-192347757D02*
X47772226Y-192490614D01*
X47772226Y-192490614D02*
X47772226Y-192633471D01*
X47772226Y-192633471D02*
X47057940Y-192776328D01*
X48415082Y-193276328D02*
X48415082Y-192276328D01*
X48415082Y-192562042D02*
X48486511Y-192419185D01*
X48486511Y-192419185D02*
X48557940Y-192347757D01*
X48557940Y-192347757D02*
X48700797Y-192276328D01*
X48700797Y-192276328D02*
X48843654Y-192276328D01*
X50343653Y-192276328D02*
X50700796Y-193276328D01*
X51057939Y-192276328D02*
X50700796Y-193276328D01*
X50700796Y-193276328D02*
X50557939Y-193633471D01*
X50557939Y-193633471D02*
X50486510Y-193704900D01*
X50486510Y-193704900D02*
X50343653Y-193776328D01*
X51843653Y-193276328D02*
X51700796Y-193204900D01*
X51700796Y-193204900D02*
X51629367Y-193133471D01*
X51629367Y-193133471D02*
X51557939Y-192990614D01*
X51557939Y-192990614D02*
X51557939Y-192562042D01*
X51557939Y-192562042D02*
X51629367Y-192419185D01*
X51629367Y-192419185D02*
X51700796Y-192347757D01*
X51700796Y-192347757D02*
X51843653Y-192276328D01*
X51843653Y-192276328D02*
X52057939Y-192276328D01*
X52057939Y-192276328D02*
X52200796Y-192347757D01*
X52200796Y-192347757D02*
X52272225Y-192419185D01*
X52272225Y-192419185D02*
X52343653Y-192562042D01*
X52343653Y-192562042D02*
X52343653Y-192990614D01*
X52343653Y-192990614D02*
X52272225Y-193133471D01*
X52272225Y-193133471D02*
X52200796Y-193204900D01*
X52200796Y-193204900D02*
X52057939Y-193276328D01*
X52057939Y-193276328D02*
X51843653Y-193276328D01*
X53629368Y-192276328D02*
X53629368Y-193276328D01*
X52986510Y-192276328D02*
X52986510Y-193062042D01*
X52986510Y-193062042D02*
X53057939Y-193204900D01*
X53057939Y-193204900D02*
X53200796Y-193276328D01*
X53200796Y-193276328D02*
X53415082Y-193276328D01*
X53415082Y-193276328D02*
X53557939Y-193204900D01*
X53557939Y-193204900D02*
X53629368Y-193133471D01*
X54343653Y-193276328D02*
X54343653Y-192276328D01*
X54343653Y-192562042D02*
X54415082Y-192419185D01*
X54415082Y-192419185D02*
X54486511Y-192347757D01*
X54486511Y-192347757D02*
X54629368Y-192276328D01*
X54629368Y-192276328D02*
X54772225Y-192276328D01*
X56343653Y-193204900D02*
X56486510Y-193276328D01*
X56486510Y-193276328D02*
X56772224Y-193276328D01*
X56772224Y-193276328D02*
X56915081Y-193204900D01*
X56915081Y-193204900D02*
X56986510Y-193062042D01*
X56986510Y-193062042D02*
X56986510Y-192990614D01*
X56986510Y-192990614D02*
X56915081Y-192847757D01*
X56915081Y-192847757D02*
X56772224Y-192776328D01*
X56772224Y-192776328D02*
X56557939Y-192776328D01*
X56557939Y-192776328D02*
X56415081Y-192704900D01*
X56415081Y-192704900D02*
X56343653Y-192562042D01*
X56343653Y-192562042D02*
X56343653Y-192490614D01*
X56343653Y-192490614D02*
X56415081Y-192347757D01*
X56415081Y-192347757D02*
X56557939Y-192276328D01*
X56557939Y-192276328D02*
X56772224Y-192276328D01*
X56772224Y-192276328D02*
X56915081Y-192347757D01*
X58272225Y-193204900D02*
X58129367Y-193276328D01*
X58129367Y-193276328D02*
X57843653Y-193276328D01*
X57843653Y-193276328D02*
X57700796Y-193204900D01*
X57700796Y-193204900D02*
X57629367Y-193133471D01*
X57629367Y-193133471D02*
X57557939Y-192990614D01*
X57557939Y-192990614D02*
X57557939Y-192562042D01*
X57557939Y-192562042D02*
X57629367Y-192419185D01*
X57629367Y-192419185D02*
X57700796Y-192347757D01*
X57700796Y-192347757D02*
X57843653Y-192276328D01*
X57843653Y-192276328D02*
X58129367Y-192276328D01*
X58129367Y-192276328D02*
X58272225Y-192347757D01*
X58915081Y-193276328D02*
X58915081Y-191776328D01*
X59557939Y-193276328D02*
X59557939Y-192490614D01*
X59557939Y-192490614D02*
X59486510Y-192347757D01*
X59486510Y-192347757D02*
X59343653Y-192276328D01*
X59343653Y-192276328D02*
X59129367Y-192276328D01*
X59129367Y-192276328D02*
X58986510Y-192347757D01*
X58986510Y-192347757D02*
X58915081Y-192419185D01*
X60843653Y-193204900D02*
X60700796Y-193276328D01*
X60700796Y-193276328D02*
X60415082Y-193276328D01*
X60415082Y-193276328D02*
X60272224Y-193204900D01*
X60272224Y-193204900D02*
X60200796Y-193062042D01*
X60200796Y-193062042D02*
X60200796Y-192490614D01*
X60200796Y-192490614D02*
X60272224Y-192347757D01*
X60272224Y-192347757D02*
X60415082Y-192276328D01*
X60415082Y-192276328D02*
X60700796Y-192276328D01*
X60700796Y-192276328D02*
X60843653Y-192347757D01*
X60843653Y-192347757D02*
X60915082Y-192490614D01*
X60915082Y-192490614D02*
X60915082Y-192633471D01*
X60915082Y-192633471D02*
X60200796Y-192776328D01*
X61557938Y-193276328D02*
X61557938Y-192276328D01*
X61557938Y-192419185D02*
X61629367Y-192347757D01*
X61629367Y-192347757D02*
X61772224Y-192276328D01*
X61772224Y-192276328D02*
X61986510Y-192276328D01*
X61986510Y-192276328D02*
X62129367Y-192347757D01*
X62129367Y-192347757D02*
X62200796Y-192490614D01*
X62200796Y-192490614D02*
X62200796Y-193276328D01*
X62200796Y-192490614D02*
X62272224Y-192347757D01*
X62272224Y-192347757D02*
X62415081Y-192276328D01*
X62415081Y-192276328D02*
X62629367Y-192276328D01*
X62629367Y-192276328D02*
X62772224Y-192347757D01*
X62772224Y-192347757D02*
X62843653Y-192490614D01*
X62843653Y-192490614D02*
X62843653Y-193276328D01*
X64200796Y-193276328D02*
X64200796Y-192490614D01*
X64200796Y-192490614D02*
X64129367Y-192347757D01*
X64129367Y-192347757D02*
X63986510Y-192276328D01*
X63986510Y-192276328D02*
X63700796Y-192276328D01*
X63700796Y-192276328D02*
X63557938Y-192347757D01*
X64200796Y-193204900D02*
X64057938Y-193276328D01*
X64057938Y-193276328D02*
X63700796Y-193276328D01*
X63700796Y-193276328D02*
X63557938Y-193204900D01*
X63557938Y-193204900D02*
X63486510Y-193062042D01*
X63486510Y-193062042D02*
X63486510Y-192919185D01*
X63486510Y-192919185D02*
X63557938Y-192776328D01*
X63557938Y-192776328D02*
X63700796Y-192704900D01*
X63700796Y-192704900D02*
X64057938Y-192704900D01*
X64057938Y-192704900D02*
X64200796Y-192633471D01*
X64700796Y-192276328D02*
X65272224Y-192276328D01*
X64915081Y-191776328D02*
X64915081Y-193062042D01*
X64915081Y-193062042D02*
X64986510Y-193204900D01*
X64986510Y-193204900D02*
X65129367Y-193276328D01*
X65129367Y-193276328D02*
X65272224Y-193276328D01*
X65772224Y-193276328D02*
X65772224Y-192276328D01*
X65772224Y-191776328D02*
X65700796Y-191847757D01*
X65700796Y-191847757D02*
X65772224Y-191919185D01*
X65772224Y-191919185D02*
X65843653Y-191847757D01*
X65843653Y-191847757D02*
X65772224Y-191776328D01*
X65772224Y-191776328D02*
X65772224Y-191919185D01*
X67129368Y-193204900D02*
X66986510Y-193276328D01*
X66986510Y-193276328D02*
X66700796Y-193276328D01*
X66700796Y-193276328D02*
X66557939Y-193204900D01*
X66557939Y-193204900D02*
X66486510Y-193133471D01*
X66486510Y-193133471D02*
X66415082Y-192990614D01*
X66415082Y-192990614D02*
X66415082Y-192562042D01*
X66415082Y-192562042D02*
X66486510Y-192419185D01*
X66486510Y-192419185D02*
X66557939Y-192347757D01*
X66557939Y-192347757D02*
X66700796Y-192276328D01*
X66700796Y-192276328D02*
X66986510Y-192276328D01*
X66986510Y-192276328D02*
X67129368Y-192347757D01*
X68843653Y-191704900D02*
X67557939Y-193633471D01*
X69343653Y-192276328D02*
X69343653Y-193276328D01*
X69343653Y-192419185D02*
X69415082Y-192347757D01*
X69415082Y-192347757D02*
X69557939Y-192276328D01*
X69557939Y-192276328D02*
X69772225Y-192276328D01*
X69772225Y-192276328D02*
X69915082Y-192347757D01*
X69915082Y-192347757D02*
X69986511Y-192490614D01*
X69986511Y-192490614D02*
X69986511Y-193276328D01*
X71272225Y-193204900D02*
X71129368Y-193276328D01*
X71129368Y-193276328D02*
X70843654Y-193276328D01*
X70843654Y-193276328D02*
X70700796Y-193204900D01*
X70700796Y-193204900D02*
X70629368Y-193062042D01*
X70629368Y-193062042D02*
X70629368Y-192490614D01*
X70629368Y-192490614D02*
X70700796Y-192347757D01*
X70700796Y-192347757D02*
X70843654Y-192276328D01*
X70843654Y-192276328D02*
X71129368Y-192276328D01*
X71129368Y-192276328D02*
X71272225Y-192347757D01*
X71272225Y-192347757D02*
X71343654Y-192490614D01*
X71343654Y-192490614D02*
X71343654Y-192633471D01*
X71343654Y-192633471D02*
X70629368Y-192776328D01*
X71772225Y-192276328D02*
X72343653Y-192276328D01*
X71986510Y-191776328D02*
X71986510Y-193062042D01*
X71986510Y-193062042D02*
X72057939Y-193204900D01*
X72057939Y-193204900D02*
X72200796Y-193276328D01*
X72200796Y-193276328D02*
X72343653Y-193276328D01*
X73057939Y-193276328D02*
X72915082Y-193204900D01*
X72915082Y-193204900D02*
X72843653Y-193062042D01*
X72843653Y-193062042D02*
X72843653Y-191776328D01*
X73629367Y-193276328D02*
X73629367Y-192276328D01*
X73629367Y-191776328D02*
X73557939Y-191847757D01*
X73557939Y-191847757D02*
X73629367Y-191919185D01*
X73629367Y-191919185D02*
X73700796Y-191847757D01*
X73700796Y-191847757D02*
X73629367Y-191776328D01*
X73629367Y-191776328D02*
X73629367Y-191919185D01*
X74272225Y-193204900D02*
X74415082Y-193276328D01*
X74415082Y-193276328D02*
X74700796Y-193276328D01*
X74700796Y-193276328D02*
X74843653Y-193204900D01*
X74843653Y-193204900D02*
X74915082Y-193062042D01*
X74915082Y-193062042D02*
X74915082Y-192990614D01*
X74915082Y-192990614D02*
X74843653Y-192847757D01*
X74843653Y-192847757D02*
X74700796Y-192776328D01*
X74700796Y-192776328D02*
X74486511Y-192776328D01*
X74486511Y-192776328D02*
X74343653Y-192704900D01*
X74343653Y-192704900D02*
X74272225Y-192562042D01*
X74272225Y-192562042D02*
X74272225Y-192490614D01*
X74272225Y-192490614D02*
X74343653Y-192347757D01*
X74343653Y-192347757D02*
X74486511Y-192276328D01*
X74486511Y-192276328D02*
X74700796Y-192276328D01*
X74700796Y-192276328D02*
X74843653Y-192347757D01*
X75343654Y-192276328D02*
X75915082Y-192276328D01*
X75557939Y-191776328D02*
X75557939Y-193062042D01*
X75557939Y-193062042D02*
X75629368Y-193204900D01*
X75629368Y-193204900D02*
X75772225Y-193276328D01*
X75772225Y-193276328D02*
X75915082Y-193276328D01*
X76415082Y-193133471D02*
X76486511Y-193204900D01*
X76486511Y-193204900D02*
X76415082Y-193276328D01*
X76415082Y-193276328D02*
X76343654Y-193204900D01*
X76343654Y-193204900D02*
X76415082Y-193133471D01*
X76415082Y-193133471D02*
X76415082Y-193276328D01*
X193086510Y-78053114D02*
X193300796Y-78124542D01*
X193300796Y-78124542D02*
X193372225Y-78195971D01*
X193372225Y-78195971D02*
X193443653Y-78338828D01*
X193443653Y-78338828D02*
X193443653Y-78553114D01*
X193443653Y-78553114D02*
X193372225Y-78695971D01*
X193372225Y-78695971D02*
X193300796Y-78767400D01*
X193300796Y-78767400D02*
X193157939Y-78838828D01*
X193157939Y-78838828D02*
X192586510Y-78838828D01*
X192586510Y-78838828D02*
X192586510Y-77338828D01*
X192586510Y-77338828D02*
X193086510Y-77338828D01*
X193086510Y-77338828D02*
X193229368Y-77410257D01*
X193229368Y-77410257D02*
X193300796Y-77481685D01*
X193300796Y-77481685D02*
X193372225Y-77624542D01*
X193372225Y-77624542D02*
X193372225Y-77767400D01*
X193372225Y-77767400D02*
X193300796Y-77910257D01*
X193300796Y-77910257D02*
X193229368Y-77981685D01*
X193229368Y-77981685D02*
X193086510Y-78053114D01*
X193086510Y-78053114D02*
X192586510Y-78053114D01*
X194300796Y-78838828D02*
X194157939Y-78767400D01*
X194157939Y-78767400D02*
X194086510Y-78695971D01*
X194086510Y-78695971D02*
X194015082Y-78553114D01*
X194015082Y-78553114D02*
X194015082Y-78124542D01*
X194015082Y-78124542D02*
X194086510Y-77981685D01*
X194086510Y-77981685D02*
X194157939Y-77910257D01*
X194157939Y-77910257D02*
X194300796Y-77838828D01*
X194300796Y-77838828D02*
X194515082Y-77838828D01*
X194515082Y-77838828D02*
X194657939Y-77910257D01*
X194657939Y-77910257D02*
X194729368Y-77981685D01*
X194729368Y-77981685D02*
X194800796Y-78124542D01*
X194800796Y-78124542D02*
X194800796Y-78553114D01*
X194800796Y-78553114D02*
X194729368Y-78695971D01*
X194729368Y-78695971D02*
X194657939Y-78767400D01*
X194657939Y-78767400D02*
X194515082Y-78838828D01*
X194515082Y-78838828D02*
X194300796Y-78838828D01*
X196086511Y-78838828D02*
X196086511Y-78053114D01*
X196086511Y-78053114D02*
X196015082Y-77910257D01*
X196015082Y-77910257D02*
X195872225Y-77838828D01*
X195872225Y-77838828D02*
X195586511Y-77838828D01*
X195586511Y-77838828D02*
X195443653Y-77910257D01*
X196086511Y-78767400D02*
X195943653Y-78838828D01*
X195943653Y-78838828D02*
X195586511Y-78838828D01*
X195586511Y-78838828D02*
X195443653Y-78767400D01*
X195443653Y-78767400D02*
X195372225Y-78624542D01*
X195372225Y-78624542D02*
X195372225Y-78481685D01*
X195372225Y-78481685D02*
X195443653Y-78338828D01*
X195443653Y-78338828D02*
X195586511Y-78267400D01*
X195586511Y-78267400D02*
X195943653Y-78267400D01*
X195943653Y-78267400D02*
X196086511Y-78195971D01*
X196800796Y-78838828D02*
X196800796Y-77838828D01*
X196800796Y-78124542D02*
X196872225Y-77981685D01*
X196872225Y-77981685D02*
X196943654Y-77910257D01*
X196943654Y-77910257D02*
X197086511Y-77838828D01*
X197086511Y-77838828D02*
X197229368Y-77838828D01*
X198372225Y-78838828D02*
X198372225Y-77338828D01*
X198372225Y-78767400D02*
X198229367Y-78838828D01*
X198229367Y-78838828D02*
X197943653Y-78838828D01*
X197943653Y-78838828D02*
X197800796Y-78767400D01*
X197800796Y-78767400D02*
X197729367Y-78695971D01*
X197729367Y-78695971D02*
X197657939Y-78553114D01*
X197657939Y-78553114D02*
X197657939Y-78124542D01*
X197657939Y-78124542D02*
X197729367Y-77981685D01*
X197729367Y-77981685D02*
X197800796Y-77910257D01*
X197800796Y-77910257D02*
X197943653Y-77838828D01*
X197943653Y-77838828D02*
X198229367Y-77838828D01*
X198229367Y-77838828D02*
X198372225Y-77910257D01*
X201086510Y-78695971D02*
X201015082Y-78767400D01*
X201015082Y-78767400D02*
X200800796Y-78838828D01*
X200800796Y-78838828D02*
X200657939Y-78838828D01*
X200657939Y-78838828D02*
X200443653Y-78767400D01*
X200443653Y-78767400D02*
X200300796Y-78624542D01*
X200300796Y-78624542D02*
X200229367Y-78481685D01*
X200229367Y-78481685D02*
X200157939Y-78195971D01*
X200157939Y-78195971D02*
X200157939Y-77981685D01*
X200157939Y-77981685D02*
X200229367Y-77695971D01*
X200229367Y-77695971D02*
X200300796Y-77553114D01*
X200300796Y-77553114D02*
X200443653Y-77410257D01*
X200443653Y-77410257D02*
X200657939Y-77338828D01*
X200657939Y-77338828D02*
X200800796Y-77338828D01*
X200800796Y-77338828D02*
X201015082Y-77410257D01*
X201015082Y-77410257D02*
X201086510Y-77481685D01*
X201943653Y-78838828D02*
X201800796Y-78767400D01*
X201800796Y-78767400D02*
X201729367Y-78695971D01*
X201729367Y-78695971D02*
X201657939Y-78553114D01*
X201657939Y-78553114D02*
X201657939Y-78124542D01*
X201657939Y-78124542D02*
X201729367Y-77981685D01*
X201729367Y-77981685D02*
X201800796Y-77910257D01*
X201800796Y-77910257D02*
X201943653Y-77838828D01*
X201943653Y-77838828D02*
X202157939Y-77838828D01*
X202157939Y-77838828D02*
X202300796Y-77910257D01*
X202300796Y-77910257D02*
X202372225Y-77981685D01*
X202372225Y-77981685D02*
X202443653Y-78124542D01*
X202443653Y-78124542D02*
X202443653Y-78553114D01*
X202443653Y-78553114D02*
X202372225Y-78695971D01*
X202372225Y-78695971D02*
X202300796Y-78767400D01*
X202300796Y-78767400D02*
X202157939Y-78838828D01*
X202157939Y-78838828D02*
X201943653Y-78838828D01*
X203086510Y-78838828D02*
X203086510Y-77838828D01*
X203086510Y-78124542D02*
X203157939Y-77981685D01*
X203157939Y-77981685D02*
X203229368Y-77910257D01*
X203229368Y-77910257D02*
X203372225Y-77838828D01*
X203372225Y-77838828D02*
X203515082Y-77838828D01*
X204015081Y-77838828D02*
X204015081Y-78838828D01*
X204015081Y-77981685D02*
X204086510Y-77910257D01*
X204086510Y-77910257D02*
X204229367Y-77838828D01*
X204229367Y-77838828D02*
X204443653Y-77838828D01*
X204443653Y-77838828D02*
X204586510Y-77910257D01*
X204586510Y-77910257D02*
X204657939Y-78053114D01*
X204657939Y-78053114D02*
X204657939Y-78838828D01*
X205943653Y-78767400D02*
X205800796Y-78838828D01*
X205800796Y-78838828D02*
X205515082Y-78838828D01*
X205515082Y-78838828D02*
X205372224Y-78767400D01*
X205372224Y-78767400D02*
X205300796Y-78624542D01*
X205300796Y-78624542D02*
X205300796Y-78053114D01*
X205300796Y-78053114D02*
X205372224Y-77910257D01*
X205372224Y-77910257D02*
X205515082Y-77838828D01*
X205515082Y-77838828D02*
X205800796Y-77838828D01*
X205800796Y-77838828D02*
X205943653Y-77910257D01*
X205943653Y-77910257D02*
X206015082Y-78053114D01*
X206015082Y-78053114D02*
X206015082Y-78195971D01*
X206015082Y-78195971D02*
X205300796Y-78338828D01*
X206657938Y-78838828D02*
X206657938Y-77838828D01*
X206657938Y-78124542D02*
X206729367Y-77981685D01*
X206729367Y-77981685D02*
X206800796Y-77910257D01*
X206800796Y-77910257D02*
X206943653Y-77838828D01*
X206943653Y-77838828D02*
X207086510Y-77838828D01*
X209586509Y-78838828D02*
X209086509Y-78124542D01*
X208729366Y-78838828D02*
X208729366Y-77338828D01*
X208729366Y-77338828D02*
X209300795Y-77338828D01*
X209300795Y-77338828D02*
X209443652Y-77410257D01*
X209443652Y-77410257D02*
X209515081Y-77481685D01*
X209515081Y-77481685D02*
X209586509Y-77624542D01*
X209586509Y-77624542D02*
X209586509Y-77838828D01*
X209586509Y-77838828D02*
X209515081Y-77981685D01*
X209515081Y-77981685D02*
X209443652Y-78053114D01*
X209443652Y-78053114D02*
X209300795Y-78124542D01*
X209300795Y-78124542D02*
X208729366Y-78124542D01*
X210872224Y-78838828D02*
X210872224Y-78053114D01*
X210872224Y-78053114D02*
X210800795Y-77910257D01*
X210800795Y-77910257D02*
X210657938Y-77838828D01*
X210657938Y-77838828D02*
X210372224Y-77838828D01*
X210372224Y-77838828D02*
X210229366Y-77910257D01*
X210872224Y-78767400D02*
X210729366Y-78838828D01*
X210729366Y-78838828D02*
X210372224Y-78838828D01*
X210372224Y-78838828D02*
X210229366Y-78767400D01*
X210229366Y-78767400D02*
X210157938Y-78624542D01*
X210157938Y-78624542D02*
X210157938Y-78481685D01*
X210157938Y-78481685D02*
X210229366Y-78338828D01*
X210229366Y-78338828D02*
X210372224Y-78267400D01*
X210372224Y-78267400D02*
X210729366Y-78267400D01*
X210729366Y-78267400D02*
X210872224Y-78195971D01*
X212229367Y-78838828D02*
X212229367Y-77338828D01*
X212229367Y-78767400D02*
X212086509Y-78838828D01*
X212086509Y-78838828D02*
X211800795Y-78838828D01*
X211800795Y-78838828D02*
X211657938Y-78767400D01*
X211657938Y-78767400D02*
X211586509Y-78695971D01*
X211586509Y-78695971D02*
X211515081Y-78553114D01*
X211515081Y-78553114D02*
X211515081Y-78124542D01*
X211515081Y-78124542D02*
X211586509Y-77981685D01*
X211586509Y-77981685D02*
X211657938Y-77910257D01*
X211657938Y-77910257D02*
X211800795Y-77838828D01*
X211800795Y-77838828D02*
X212086509Y-77838828D01*
X212086509Y-77838828D02*
X212229367Y-77910257D01*
X212943652Y-78838828D02*
X212943652Y-77838828D01*
X212943652Y-77338828D02*
X212872224Y-77410257D01*
X212872224Y-77410257D02*
X212943652Y-77481685D01*
X212943652Y-77481685D02*
X213015081Y-77410257D01*
X213015081Y-77410257D02*
X212943652Y-77338828D01*
X212943652Y-77338828D02*
X212943652Y-77481685D01*
X214300796Y-77838828D02*
X214300796Y-78838828D01*
X213657938Y-77838828D02*
X213657938Y-78624542D01*
X213657938Y-78624542D02*
X213729367Y-78767400D01*
X213729367Y-78767400D02*
X213872224Y-78838828D01*
X213872224Y-78838828D02*
X214086510Y-78838828D01*
X214086510Y-78838828D02*
X214229367Y-78767400D01*
X214229367Y-78767400D02*
X214300796Y-78695971D01*
X214943653Y-78767400D02*
X215086510Y-78838828D01*
X215086510Y-78838828D02*
X215372224Y-78838828D01*
X215372224Y-78838828D02*
X215515081Y-78767400D01*
X215515081Y-78767400D02*
X215586510Y-78624542D01*
X215586510Y-78624542D02*
X215586510Y-78553114D01*
X215586510Y-78553114D02*
X215515081Y-78410257D01*
X215515081Y-78410257D02*
X215372224Y-78338828D01*
X215372224Y-78338828D02*
X215157939Y-78338828D01*
X215157939Y-78338828D02*
X215015081Y-78267400D01*
X215015081Y-78267400D02*
X214943653Y-78124542D01*
X214943653Y-78124542D02*
X214943653Y-78053114D01*
X214943653Y-78053114D02*
X215015081Y-77910257D01*
X215015081Y-77910257D02*
X215157939Y-77838828D01*
X215157939Y-77838828D02*
X215372224Y-77838828D01*
X215372224Y-77838828D02*
X215515081Y-77910257D01*
X217372224Y-78053114D02*
X218515082Y-78053114D01*
X218515082Y-78481685D02*
X217372224Y-78481685D01*
X220229367Y-77338828D02*
X221157939Y-77338828D01*
X221157939Y-77338828D02*
X220657939Y-77910257D01*
X220657939Y-77910257D02*
X220872224Y-77910257D01*
X220872224Y-77910257D02*
X221015082Y-77981685D01*
X221015082Y-77981685D02*
X221086510Y-78053114D01*
X221086510Y-78053114D02*
X221157939Y-78195971D01*
X221157939Y-78195971D02*
X221157939Y-78553114D01*
X221157939Y-78553114D02*
X221086510Y-78695971D01*
X221086510Y-78695971D02*
X221015082Y-78767400D01*
X221015082Y-78767400D02*
X220872224Y-78838828D01*
X220872224Y-78838828D02*
X220443653Y-78838828D01*
X220443653Y-78838828D02*
X220300796Y-78767400D01*
X220300796Y-78767400D02*
X220229367Y-78695971D01*
X221800795Y-78838828D02*
X221800795Y-77838828D01*
X221800795Y-77981685D02*
X221872224Y-77910257D01*
X221872224Y-77910257D02*
X222015081Y-77838828D01*
X222015081Y-77838828D02*
X222229367Y-77838828D01*
X222229367Y-77838828D02*
X222372224Y-77910257D01*
X222372224Y-77910257D02*
X222443653Y-78053114D01*
X222443653Y-78053114D02*
X222443653Y-78838828D01*
X222443653Y-78053114D02*
X222515081Y-77910257D01*
X222515081Y-77910257D02*
X222657938Y-77838828D01*
X222657938Y-77838828D02*
X222872224Y-77838828D01*
X222872224Y-77838828D02*
X223015081Y-77910257D01*
X223015081Y-77910257D02*
X223086510Y-78053114D01*
X223086510Y-78053114D02*
X223086510Y-78838828D01*
X223800795Y-78838828D02*
X223800795Y-77838828D01*
X223800795Y-77981685D02*
X223872224Y-77910257D01*
X223872224Y-77910257D02*
X224015081Y-77838828D01*
X224015081Y-77838828D02*
X224229367Y-77838828D01*
X224229367Y-77838828D02*
X224372224Y-77910257D01*
X224372224Y-77910257D02*
X224443653Y-78053114D01*
X224443653Y-78053114D02*
X224443653Y-78838828D01*
X224443653Y-78053114D02*
X224515081Y-77910257D01*
X224515081Y-77910257D02*
X224657938Y-77838828D01*
X224657938Y-77838828D02*
X224872224Y-77838828D01*
X224872224Y-77838828D02*
X225015081Y-77910257D01*
X225015081Y-77910257D02*
X225086510Y-78053114D01*
X225086510Y-78053114D02*
X225086510Y-78838828D01*
X192515082Y-80825257D02*
X193229368Y-80825257D01*
X192372225Y-81253828D02*
X192872225Y-79753828D01*
X192872225Y-79753828D02*
X193372225Y-81253828D01*
X194086510Y-81253828D02*
X193943653Y-81182400D01*
X193943653Y-81182400D02*
X193872224Y-81039542D01*
X193872224Y-81039542D02*
X193872224Y-79753828D01*
X194872224Y-81253828D02*
X194729367Y-81182400D01*
X194729367Y-81182400D02*
X194657938Y-81039542D01*
X194657938Y-81039542D02*
X194657938Y-79753828D01*
X196586509Y-81253828D02*
X196586509Y-79753828D01*
X197229367Y-81253828D02*
X197229367Y-80468114D01*
X197229367Y-80468114D02*
X197157938Y-80325257D01*
X197157938Y-80325257D02*
X197015081Y-80253828D01*
X197015081Y-80253828D02*
X196800795Y-80253828D01*
X196800795Y-80253828D02*
X196657938Y-80325257D01*
X196657938Y-80325257D02*
X196586509Y-80396685D01*
X198157938Y-81253828D02*
X198015081Y-81182400D01*
X198015081Y-81182400D02*
X197943652Y-81110971D01*
X197943652Y-81110971D02*
X197872224Y-80968114D01*
X197872224Y-80968114D02*
X197872224Y-80539542D01*
X197872224Y-80539542D02*
X197943652Y-80396685D01*
X197943652Y-80396685D02*
X198015081Y-80325257D01*
X198015081Y-80325257D02*
X198157938Y-80253828D01*
X198157938Y-80253828D02*
X198372224Y-80253828D01*
X198372224Y-80253828D02*
X198515081Y-80325257D01*
X198515081Y-80325257D02*
X198586510Y-80396685D01*
X198586510Y-80396685D02*
X198657938Y-80539542D01*
X198657938Y-80539542D02*
X198657938Y-80968114D01*
X198657938Y-80968114D02*
X198586510Y-81110971D01*
X198586510Y-81110971D02*
X198515081Y-81182400D01*
X198515081Y-81182400D02*
X198372224Y-81253828D01*
X198372224Y-81253828D02*
X198157938Y-81253828D01*
X199515081Y-81253828D02*
X199372224Y-81182400D01*
X199372224Y-81182400D02*
X199300795Y-81039542D01*
X199300795Y-81039542D02*
X199300795Y-79753828D01*
X200657938Y-81182400D02*
X200515081Y-81253828D01*
X200515081Y-81253828D02*
X200229367Y-81253828D01*
X200229367Y-81253828D02*
X200086509Y-81182400D01*
X200086509Y-81182400D02*
X200015081Y-81039542D01*
X200015081Y-81039542D02*
X200015081Y-80468114D01*
X200015081Y-80468114D02*
X200086509Y-80325257D01*
X200086509Y-80325257D02*
X200229367Y-80253828D01*
X200229367Y-80253828D02*
X200515081Y-80253828D01*
X200515081Y-80253828D02*
X200657938Y-80325257D01*
X200657938Y-80325257D02*
X200729367Y-80468114D01*
X200729367Y-80468114D02*
X200729367Y-80610971D01*
X200729367Y-80610971D02*
X200015081Y-80753828D01*
X201300795Y-81182400D02*
X201443652Y-81253828D01*
X201443652Y-81253828D02*
X201729366Y-81253828D01*
X201729366Y-81253828D02*
X201872223Y-81182400D01*
X201872223Y-81182400D02*
X201943652Y-81039542D01*
X201943652Y-81039542D02*
X201943652Y-80968114D01*
X201943652Y-80968114D02*
X201872223Y-80825257D01*
X201872223Y-80825257D02*
X201729366Y-80753828D01*
X201729366Y-80753828D02*
X201515081Y-80753828D01*
X201515081Y-80753828D02*
X201372223Y-80682400D01*
X201372223Y-80682400D02*
X201300795Y-80539542D01*
X201300795Y-80539542D02*
X201300795Y-80468114D01*
X201300795Y-80468114D02*
X201372223Y-80325257D01*
X201372223Y-80325257D02*
X201515081Y-80253828D01*
X201515081Y-80253828D02*
X201729366Y-80253828D01*
X201729366Y-80253828D02*
X201872223Y-80325257D01*
X204372224Y-81253828D02*
X204372224Y-80468114D01*
X204372224Y-80468114D02*
X204300795Y-80325257D01*
X204300795Y-80325257D02*
X204157938Y-80253828D01*
X204157938Y-80253828D02*
X203872224Y-80253828D01*
X203872224Y-80253828D02*
X203729366Y-80325257D01*
X204372224Y-81182400D02*
X204229366Y-81253828D01*
X204229366Y-81253828D02*
X203872224Y-81253828D01*
X203872224Y-81253828D02*
X203729366Y-81182400D01*
X203729366Y-81182400D02*
X203657938Y-81039542D01*
X203657938Y-81039542D02*
X203657938Y-80896685D01*
X203657938Y-80896685D02*
X203729366Y-80753828D01*
X203729366Y-80753828D02*
X203872224Y-80682400D01*
X203872224Y-80682400D02*
X204229366Y-80682400D01*
X204229366Y-80682400D02*
X204372224Y-80610971D01*
X205086509Y-81253828D02*
X205086509Y-80253828D01*
X205086509Y-80539542D02*
X205157938Y-80396685D01*
X205157938Y-80396685D02*
X205229367Y-80325257D01*
X205229367Y-80325257D02*
X205372224Y-80253828D01*
X205372224Y-80253828D02*
X205515081Y-80253828D01*
X206586509Y-81182400D02*
X206443652Y-81253828D01*
X206443652Y-81253828D02*
X206157938Y-81253828D01*
X206157938Y-81253828D02*
X206015080Y-81182400D01*
X206015080Y-81182400D02*
X205943652Y-81039542D01*
X205943652Y-81039542D02*
X205943652Y-80468114D01*
X205943652Y-80468114D02*
X206015080Y-80325257D01*
X206015080Y-80325257D02*
X206157938Y-80253828D01*
X206157938Y-80253828D02*
X206443652Y-80253828D01*
X206443652Y-80253828D02*
X206586509Y-80325257D01*
X206586509Y-80325257D02*
X206657938Y-80468114D01*
X206657938Y-80468114D02*
X206657938Y-80610971D01*
X206657938Y-80610971D02*
X205943652Y-80753828D01*
X208443651Y-81253828D02*
X208443651Y-79753828D01*
X208443651Y-79753828D02*
X208943651Y-80825257D01*
X208943651Y-80825257D02*
X209443651Y-79753828D01*
X209443651Y-79753828D02*
X209443651Y-81253828D01*
X210086509Y-79896685D02*
X210157937Y-79825257D01*
X210157937Y-79825257D02*
X210300795Y-79753828D01*
X210300795Y-79753828D02*
X210657937Y-79753828D01*
X210657937Y-79753828D02*
X210800795Y-79825257D01*
X210800795Y-79825257D02*
X210872223Y-79896685D01*
X210872223Y-79896685D02*
X210943652Y-80039542D01*
X210943652Y-80039542D02*
X210943652Y-80182400D01*
X210943652Y-80182400D02*
X210872223Y-80396685D01*
X210872223Y-80396685D02*
X210015080Y-81253828D01*
X210015080Y-81253828D02*
X210943652Y-81253828D01*
X211586508Y-81110971D02*
X211657937Y-81182400D01*
X211657937Y-81182400D02*
X211586508Y-81253828D01*
X211586508Y-81253828D02*
X211515080Y-81182400D01*
X211515080Y-81182400D02*
X211586508Y-81110971D01*
X211586508Y-81110971D02*
X211586508Y-81253828D01*
X213015080Y-79753828D02*
X212300794Y-79753828D01*
X212300794Y-79753828D02*
X212229366Y-80468114D01*
X212229366Y-80468114D02*
X212300794Y-80396685D01*
X212300794Y-80396685D02*
X212443652Y-80325257D01*
X212443652Y-80325257D02*
X212800794Y-80325257D01*
X212800794Y-80325257D02*
X212943652Y-80396685D01*
X212943652Y-80396685D02*
X213015080Y-80468114D01*
X213015080Y-80468114D02*
X213086509Y-80610971D01*
X213086509Y-80610971D02*
X213086509Y-80968114D01*
X213086509Y-80968114D02*
X213015080Y-81110971D01*
X213015080Y-81110971D02*
X212943652Y-81182400D01*
X212943652Y-81182400D02*
X212800794Y-81253828D01*
X212800794Y-81253828D02*
X212443652Y-81253828D01*
X212443652Y-81253828D02*
X212300794Y-81182400D01*
X212300794Y-81182400D02*
X212229366Y-81110971D01*
X173532001Y-124546328D02*
X173246286Y-124546328D01*
X173246286Y-124546328D02*
X173103429Y-124617757D01*
X173103429Y-124617757D02*
X173032001Y-124689185D01*
X173032001Y-124689185D02*
X172889143Y-124903471D01*
X172889143Y-124903471D02*
X172817715Y-125189185D01*
X172817715Y-125189185D02*
X172817715Y-125760614D01*
X172817715Y-125760614D02*
X172889143Y-125903471D01*
X172889143Y-125903471D02*
X172960572Y-125974900D01*
X172960572Y-125974900D02*
X173103429Y-126046328D01*
X173103429Y-126046328D02*
X173389143Y-126046328D01*
X173389143Y-126046328D02*
X173532001Y-125974900D01*
X173532001Y-125974900D02*
X173603429Y-125903471D01*
X173603429Y-125903471D02*
X173674858Y-125760614D01*
X173674858Y-125760614D02*
X173674858Y-125403471D01*
X173674858Y-125403471D02*
X173603429Y-125260614D01*
X173603429Y-125260614D02*
X173532001Y-125189185D01*
X173532001Y-125189185D02*
X173389143Y-125117757D01*
X173389143Y-125117757D02*
X173103429Y-125117757D01*
X173103429Y-125117757D02*
X172960572Y-125189185D01*
X172960572Y-125189185D02*
X172889143Y-125260614D01*
X172889143Y-125260614D02*
X172817715Y-125403471D01*
X174317714Y-125903471D02*
X174389143Y-125974900D01*
X174389143Y-125974900D02*
X174317714Y-126046328D01*
X174317714Y-126046328D02*
X174246286Y-125974900D01*
X174246286Y-125974900D02*
X174317714Y-125903471D01*
X174317714Y-125903471D02*
X174317714Y-126046328D01*
X174960572Y-124689185D02*
X175032000Y-124617757D01*
X175032000Y-124617757D02*
X175174858Y-124546328D01*
X175174858Y-124546328D02*
X175532000Y-124546328D01*
X175532000Y-124546328D02*
X175674858Y-124617757D01*
X175674858Y-124617757D02*
X175746286Y-124689185D01*
X175746286Y-124689185D02*
X175817715Y-124832042D01*
X175817715Y-124832042D02*
X175817715Y-124974900D01*
X175817715Y-124974900D02*
X175746286Y-125189185D01*
X175746286Y-125189185D02*
X174889143Y-126046328D01*
X174889143Y-126046328D02*
X175817715Y-126046328D01*
X176746286Y-124546328D02*
X176889143Y-124546328D01*
X176889143Y-124546328D02*
X177032000Y-124617757D01*
X177032000Y-124617757D02*
X177103429Y-124689185D01*
X177103429Y-124689185D02*
X177174857Y-124832042D01*
X177174857Y-124832042D02*
X177246286Y-125117757D01*
X177246286Y-125117757D02*
X177246286Y-125474900D01*
X177246286Y-125474900D02*
X177174857Y-125760614D01*
X177174857Y-125760614D02*
X177103429Y-125903471D01*
X177103429Y-125903471D02*
X177032000Y-125974900D01*
X177032000Y-125974900D02*
X176889143Y-126046328D01*
X176889143Y-126046328D02*
X176746286Y-126046328D01*
X176746286Y-126046328D02*
X176603429Y-125974900D01*
X176603429Y-125974900D02*
X176532000Y-125903471D01*
X176532000Y-125903471D02*
X176460571Y-125760614D01*
X176460571Y-125760614D02*
X176389143Y-125474900D01*
X176389143Y-125474900D02*
X176389143Y-125117757D01*
X176389143Y-125117757D02*
X176460571Y-124832042D01*
X176460571Y-124832042D02*
X176532000Y-124689185D01*
X176532000Y-124689185D02*
X176603429Y-124617757D01*
X176603429Y-124617757D02*
X176746286Y-124546328D01*
X178174857Y-124546328D02*
X178317714Y-124546328D01*
X178317714Y-124546328D02*
X178460571Y-124617757D01*
X178460571Y-124617757D02*
X178532000Y-124689185D01*
X178532000Y-124689185D02*
X178603428Y-124832042D01*
X178603428Y-124832042D02*
X178674857Y-125117757D01*
X178674857Y-125117757D02*
X178674857Y-125474900D01*
X178674857Y-125474900D02*
X178603428Y-125760614D01*
X178603428Y-125760614D02*
X178532000Y-125903471D01*
X178532000Y-125903471D02*
X178460571Y-125974900D01*
X178460571Y-125974900D02*
X178317714Y-126046328D01*
X178317714Y-126046328D02*
X178174857Y-126046328D01*
X178174857Y-126046328D02*
X178032000Y-125974900D01*
X178032000Y-125974900D02*
X177960571Y-125903471D01*
X177960571Y-125903471D02*
X177889142Y-125760614D01*
X177889142Y-125760614D02*
X177817714Y-125474900D01*
X177817714Y-125474900D02*
X177817714Y-125117757D01*
X177817714Y-125117757D02*
X177889142Y-124832042D01*
X177889142Y-124832042D02*
X177960571Y-124689185D01*
X177960571Y-124689185D02*
X178032000Y-124617757D01*
X178032000Y-124617757D02*
X178174857Y-124546328D01*
X179603428Y-124546328D02*
X179746285Y-124546328D01*
X179746285Y-124546328D02*
X179889142Y-124617757D01*
X179889142Y-124617757D02*
X179960571Y-124689185D01*
X179960571Y-124689185D02*
X180031999Y-124832042D01*
X180031999Y-124832042D02*
X180103428Y-125117757D01*
X180103428Y-125117757D02*
X180103428Y-125474900D01*
X180103428Y-125474900D02*
X180031999Y-125760614D01*
X180031999Y-125760614D02*
X179960571Y-125903471D01*
X179960571Y-125903471D02*
X179889142Y-125974900D01*
X179889142Y-125974900D02*
X179746285Y-126046328D01*
X179746285Y-126046328D02*
X179603428Y-126046328D01*
X179603428Y-126046328D02*
X179460571Y-125974900D01*
X179460571Y-125974900D02*
X179389142Y-125903471D01*
X179389142Y-125903471D02*
X179317713Y-125760614D01*
X179317713Y-125760614D02*
X179246285Y-125474900D01*
X179246285Y-125474900D02*
X179246285Y-125117757D01*
X179246285Y-125117757D02*
X179317713Y-124832042D01*
X179317713Y-124832042D02*
X179389142Y-124689185D01*
X179389142Y-124689185D02*
X179460571Y-124617757D01*
X179460571Y-124617757D02*
X179603428Y-124546328D01*
X181889141Y-126046328D02*
X181889141Y-125046328D01*
X181889141Y-125189185D02*
X181960570Y-125117757D01*
X181960570Y-125117757D02*
X182103427Y-125046328D01*
X182103427Y-125046328D02*
X182317713Y-125046328D01*
X182317713Y-125046328D02*
X182460570Y-125117757D01*
X182460570Y-125117757D02*
X182531999Y-125260614D01*
X182531999Y-125260614D02*
X182531999Y-126046328D01*
X182531999Y-125260614D02*
X182603427Y-125117757D01*
X182603427Y-125117757D02*
X182746284Y-125046328D01*
X182746284Y-125046328D02*
X182960570Y-125046328D01*
X182960570Y-125046328D02*
X183103427Y-125117757D01*
X183103427Y-125117757D02*
X183174856Y-125260614D01*
X183174856Y-125260614D02*
X183174856Y-126046328D01*
X183889141Y-126046328D02*
X183889141Y-125046328D01*
X183889141Y-125189185D02*
X183960570Y-125117757D01*
X183960570Y-125117757D02*
X184103427Y-125046328D01*
X184103427Y-125046328D02*
X184317713Y-125046328D01*
X184317713Y-125046328D02*
X184460570Y-125117757D01*
X184460570Y-125117757D02*
X184531999Y-125260614D01*
X184531999Y-125260614D02*
X184531999Y-126046328D01*
X184531999Y-125260614D02*
X184603427Y-125117757D01*
X184603427Y-125117757D02*
X184746284Y-125046328D01*
X184746284Y-125046328D02*
X184960570Y-125046328D01*
X184960570Y-125046328D02*
X185103427Y-125117757D01*
X185103427Y-125117757D02*
X185174856Y-125260614D01*
X185174856Y-125260614D02*
X185174856Y-126046328D01*
X182132000Y-117568000D02*
X182132000Y-127754420D01*
X175932000Y-117568000D02*
X175932000Y-127754420D01*
X182132000Y-127168000D02*
X175932000Y-127168000D01*
X182132000Y-127168000D02*
X175932000Y-127168000D01*
X182132000Y-127168000D02*
X181005496Y-127754421D01*
X182132000Y-127168000D02*
X181005496Y-126581579D01*
X175932000Y-127168000D02*
X177058504Y-126581579D01*
X175932000Y-127168000D02*
X177058504Y-127754421D01*
X110910328Y-125603713D02*
X110910328Y-124675141D01*
X110910328Y-124675141D02*
X111481757Y-125175141D01*
X111481757Y-125175141D02*
X111481757Y-124960856D01*
X111481757Y-124960856D02*
X111553185Y-124817999D01*
X111553185Y-124817999D02*
X111624614Y-124746570D01*
X111624614Y-124746570D02*
X111767471Y-124675141D01*
X111767471Y-124675141D02*
X112124614Y-124675141D01*
X112124614Y-124675141D02*
X112267471Y-124746570D01*
X112267471Y-124746570D02*
X112338900Y-124817999D01*
X112338900Y-124817999D02*
X112410328Y-124960856D01*
X112410328Y-124960856D02*
X112410328Y-125389427D01*
X112410328Y-125389427D02*
X112338900Y-125532284D01*
X112338900Y-125532284D02*
X112267471Y-125603713D01*
X112267471Y-124032285D02*
X112338900Y-123960856D01*
X112338900Y-123960856D02*
X112410328Y-124032285D01*
X112410328Y-124032285D02*
X112338900Y-124103713D01*
X112338900Y-124103713D02*
X112267471Y-124032285D01*
X112267471Y-124032285D02*
X112410328Y-124032285D01*
X110910328Y-122603713D02*
X110910328Y-123317999D01*
X110910328Y-123317999D02*
X111624614Y-123389427D01*
X111624614Y-123389427D02*
X111553185Y-123317999D01*
X111553185Y-123317999D02*
X111481757Y-123175142D01*
X111481757Y-123175142D02*
X111481757Y-122817999D01*
X111481757Y-122817999D02*
X111553185Y-122675142D01*
X111553185Y-122675142D02*
X111624614Y-122603713D01*
X111624614Y-122603713D02*
X111767471Y-122532284D01*
X111767471Y-122532284D02*
X112124614Y-122532284D01*
X112124614Y-122532284D02*
X112267471Y-122603713D01*
X112267471Y-122603713D02*
X112338900Y-122675142D01*
X112338900Y-122675142D02*
X112410328Y-122817999D01*
X112410328Y-122817999D02*
X112410328Y-123175142D01*
X112410328Y-123175142D02*
X112338900Y-123317999D01*
X112338900Y-123317999D02*
X112267471Y-123389427D01*
X110910328Y-121603713D02*
X110910328Y-121460856D01*
X110910328Y-121460856D02*
X110981757Y-121317999D01*
X110981757Y-121317999D02*
X111053185Y-121246571D01*
X111053185Y-121246571D02*
X111196042Y-121175142D01*
X111196042Y-121175142D02*
X111481757Y-121103713D01*
X111481757Y-121103713D02*
X111838900Y-121103713D01*
X111838900Y-121103713D02*
X112124614Y-121175142D01*
X112124614Y-121175142D02*
X112267471Y-121246571D01*
X112267471Y-121246571D02*
X112338900Y-121317999D01*
X112338900Y-121317999D02*
X112410328Y-121460856D01*
X112410328Y-121460856D02*
X112410328Y-121603713D01*
X112410328Y-121603713D02*
X112338900Y-121746571D01*
X112338900Y-121746571D02*
X112267471Y-121817999D01*
X112267471Y-121817999D02*
X112124614Y-121889428D01*
X112124614Y-121889428D02*
X111838900Y-121960856D01*
X111838900Y-121960856D02*
X111481757Y-121960856D01*
X111481757Y-121960856D02*
X111196042Y-121889428D01*
X111196042Y-121889428D02*
X111053185Y-121817999D01*
X111053185Y-121817999D02*
X110981757Y-121746571D01*
X110981757Y-121746571D02*
X110910328Y-121603713D01*
X110910328Y-120175142D02*
X110910328Y-120032285D01*
X110910328Y-120032285D02*
X110981757Y-119889428D01*
X110981757Y-119889428D02*
X111053185Y-119818000D01*
X111053185Y-119818000D02*
X111196042Y-119746571D01*
X111196042Y-119746571D02*
X111481757Y-119675142D01*
X111481757Y-119675142D02*
X111838900Y-119675142D01*
X111838900Y-119675142D02*
X112124614Y-119746571D01*
X112124614Y-119746571D02*
X112267471Y-119818000D01*
X112267471Y-119818000D02*
X112338900Y-119889428D01*
X112338900Y-119889428D02*
X112410328Y-120032285D01*
X112410328Y-120032285D02*
X112410328Y-120175142D01*
X112410328Y-120175142D02*
X112338900Y-120318000D01*
X112338900Y-120318000D02*
X112267471Y-120389428D01*
X112267471Y-120389428D02*
X112124614Y-120460857D01*
X112124614Y-120460857D02*
X111838900Y-120532285D01*
X111838900Y-120532285D02*
X111481757Y-120532285D01*
X111481757Y-120532285D02*
X111196042Y-120460857D01*
X111196042Y-120460857D02*
X111053185Y-120389428D01*
X111053185Y-120389428D02*
X110981757Y-120318000D01*
X110981757Y-120318000D02*
X110910328Y-120175142D01*
X110910328Y-118746571D02*
X110910328Y-118603714D01*
X110910328Y-118603714D02*
X110981757Y-118460857D01*
X110981757Y-118460857D02*
X111053185Y-118389429D01*
X111053185Y-118389429D02*
X111196042Y-118318000D01*
X111196042Y-118318000D02*
X111481757Y-118246571D01*
X111481757Y-118246571D02*
X111838900Y-118246571D01*
X111838900Y-118246571D02*
X112124614Y-118318000D01*
X112124614Y-118318000D02*
X112267471Y-118389429D01*
X112267471Y-118389429D02*
X112338900Y-118460857D01*
X112338900Y-118460857D02*
X112410328Y-118603714D01*
X112410328Y-118603714D02*
X112410328Y-118746571D01*
X112410328Y-118746571D02*
X112338900Y-118889429D01*
X112338900Y-118889429D02*
X112267471Y-118960857D01*
X112267471Y-118960857D02*
X112124614Y-119032286D01*
X112124614Y-119032286D02*
X111838900Y-119103714D01*
X111838900Y-119103714D02*
X111481757Y-119103714D01*
X111481757Y-119103714D02*
X111196042Y-119032286D01*
X111196042Y-119032286D02*
X111053185Y-118960857D01*
X111053185Y-118960857D02*
X110981757Y-118889429D01*
X110981757Y-118889429D02*
X110910328Y-118746571D01*
X112410328Y-116460858D02*
X111410328Y-116460858D01*
X111553185Y-116460858D02*
X111481757Y-116389429D01*
X111481757Y-116389429D02*
X111410328Y-116246572D01*
X111410328Y-116246572D02*
X111410328Y-116032286D01*
X111410328Y-116032286D02*
X111481757Y-115889429D01*
X111481757Y-115889429D02*
X111624614Y-115818001D01*
X111624614Y-115818001D02*
X112410328Y-115818001D01*
X111624614Y-115818001D02*
X111481757Y-115746572D01*
X111481757Y-115746572D02*
X111410328Y-115603715D01*
X111410328Y-115603715D02*
X111410328Y-115389429D01*
X111410328Y-115389429D02*
X111481757Y-115246572D01*
X111481757Y-115246572D02*
X111624614Y-115175143D01*
X111624614Y-115175143D02*
X112410328Y-115175143D01*
X112410328Y-114460858D02*
X111410328Y-114460858D01*
X111553185Y-114460858D02*
X111481757Y-114389429D01*
X111481757Y-114389429D02*
X111410328Y-114246572D01*
X111410328Y-114246572D02*
X111410328Y-114032286D01*
X111410328Y-114032286D02*
X111481757Y-113889429D01*
X111481757Y-113889429D02*
X111624614Y-113818001D01*
X111624614Y-113818001D02*
X112410328Y-113818001D01*
X111624614Y-113818001D02*
X111481757Y-113746572D01*
X111481757Y-113746572D02*
X111410328Y-113603715D01*
X111410328Y-113603715D02*
X111410328Y-113389429D01*
X111410328Y-113389429D02*
X111481757Y-113246572D01*
X111481757Y-113246572D02*
X111624614Y-113175143D01*
X111624614Y-113175143D02*
X112410328Y-113175143D01*
X121032000Y-121068000D02*
X112945580Y-121068000D01*
X121032000Y-117568000D02*
X112945580Y-117568000D01*
X113532000Y-121068000D02*
X113532000Y-117568000D01*
X113532000Y-121068000D02*
X113532000Y-117568000D01*
X113532000Y-121068000D02*
X112945579Y-119941496D01*
X113532000Y-121068000D02*
X114118421Y-119941496D01*
X113532000Y-117568000D02*
X114118421Y-118694504D01*
X113532000Y-117568000D02*
X112945579Y-118694504D01*
X112996286Y-120946328D02*
X113924858Y-120946328D01*
X113924858Y-120946328D02*
X113424858Y-121517757D01*
X113424858Y-121517757D02*
X113639143Y-121517757D01*
X113639143Y-121517757D02*
X113782001Y-121589185D01*
X113782001Y-121589185D02*
X113853429Y-121660614D01*
X113853429Y-121660614D02*
X113924858Y-121803471D01*
X113924858Y-121803471D02*
X113924858Y-122160614D01*
X113924858Y-122160614D02*
X113853429Y-122303471D01*
X113853429Y-122303471D02*
X113782001Y-122374900D01*
X113782001Y-122374900D02*
X113639143Y-122446328D01*
X113639143Y-122446328D02*
X113210572Y-122446328D01*
X113210572Y-122446328D02*
X113067715Y-122374900D01*
X113067715Y-122374900D02*
X112996286Y-122303471D01*
X114567714Y-122303471D02*
X114639143Y-122374900D01*
X114639143Y-122374900D02*
X114567714Y-122446328D01*
X114567714Y-122446328D02*
X114496286Y-122374900D01*
X114496286Y-122374900D02*
X114567714Y-122303471D01*
X114567714Y-122303471D02*
X114567714Y-122446328D01*
X115996286Y-120946328D02*
X115282000Y-120946328D01*
X115282000Y-120946328D02*
X115210572Y-121660614D01*
X115210572Y-121660614D02*
X115282000Y-121589185D01*
X115282000Y-121589185D02*
X115424858Y-121517757D01*
X115424858Y-121517757D02*
X115782000Y-121517757D01*
X115782000Y-121517757D02*
X115924858Y-121589185D01*
X115924858Y-121589185D02*
X115996286Y-121660614D01*
X115996286Y-121660614D02*
X116067715Y-121803471D01*
X116067715Y-121803471D02*
X116067715Y-122160614D01*
X116067715Y-122160614D02*
X115996286Y-122303471D01*
X115996286Y-122303471D02*
X115924858Y-122374900D01*
X115924858Y-122374900D02*
X115782000Y-122446328D01*
X115782000Y-122446328D02*
X115424858Y-122446328D01*
X115424858Y-122446328D02*
X115282000Y-122374900D01*
X115282000Y-122374900D02*
X115210572Y-122303471D01*
X116996286Y-120946328D02*
X117139143Y-120946328D01*
X117139143Y-120946328D02*
X117282000Y-121017757D01*
X117282000Y-121017757D02*
X117353429Y-121089185D01*
X117353429Y-121089185D02*
X117424857Y-121232042D01*
X117424857Y-121232042D02*
X117496286Y-121517757D01*
X117496286Y-121517757D02*
X117496286Y-121874900D01*
X117496286Y-121874900D02*
X117424857Y-122160614D01*
X117424857Y-122160614D02*
X117353429Y-122303471D01*
X117353429Y-122303471D02*
X117282000Y-122374900D01*
X117282000Y-122374900D02*
X117139143Y-122446328D01*
X117139143Y-122446328D02*
X116996286Y-122446328D01*
X116996286Y-122446328D02*
X116853429Y-122374900D01*
X116853429Y-122374900D02*
X116782000Y-122303471D01*
X116782000Y-122303471D02*
X116710571Y-122160614D01*
X116710571Y-122160614D02*
X116639143Y-121874900D01*
X116639143Y-121874900D02*
X116639143Y-121517757D01*
X116639143Y-121517757D02*
X116710571Y-121232042D01*
X116710571Y-121232042D02*
X116782000Y-121089185D01*
X116782000Y-121089185D02*
X116853429Y-121017757D01*
X116853429Y-121017757D02*
X116996286Y-120946328D01*
X118424857Y-120946328D02*
X118567714Y-120946328D01*
X118567714Y-120946328D02*
X118710571Y-121017757D01*
X118710571Y-121017757D02*
X118782000Y-121089185D01*
X118782000Y-121089185D02*
X118853428Y-121232042D01*
X118853428Y-121232042D02*
X118924857Y-121517757D01*
X118924857Y-121517757D02*
X118924857Y-121874900D01*
X118924857Y-121874900D02*
X118853428Y-122160614D01*
X118853428Y-122160614D02*
X118782000Y-122303471D01*
X118782000Y-122303471D02*
X118710571Y-122374900D01*
X118710571Y-122374900D02*
X118567714Y-122446328D01*
X118567714Y-122446328D02*
X118424857Y-122446328D01*
X118424857Y-122446328D02*
X118282000Y-122374900D01*
X118282000Y-122374900D02*
X118210571Y-122303471D01*
X118210571Y-122303471D02*
X118139142Y-122160614D01*
X118139142Y-122160614D02*
X118067714Y-121874900D01*
X118067714Y-121874900D02*
X118067714Y-121517757D01*
X118067714Y-121517757D02*
X118139142Y-121232042D01*
X118139142Y-121232042D02*
X118210571Y-121089185D01*
X118210571Y-121089185D02*
X118282000Y-121017757D01*
X118282000Y-121017757D02*
X118424857Y-120946328D01*
X119853428Y-120946328D02*
X119996285Y-120946328D01*
X119996285Y-120946328D02*
X120139142Y-121017757D01*
X120139142Y-121017757D02*
X120210571Y-121089185D01*
X120210571Y-121089185D02*
X120281999Y-121232042D01*
X120281999Y-121232042D02*
X120353428Y-121517757D01*
X120353428Y-121517757D02*
X120353428Y-121874900D01*
X120353428Y-121874900D02*
X120281999Y-122160614D01*
X120281999Y-122160614D02*
X120210571Y-122303471D01*
X120210571Y-122303471D02*
X120139142Y-122374900D01*
X120139142Y-122374900D02*
X119996285Y-122446328D01*
X119996285Y-122446328D02*
X119853428Y-122446328D01*
X119853428Y-122446328D02*
X119710571Y-122374900D01*
X119710571Y-122374900D02*
X119639142Y-122303471D01*
X119639142Y-122303471D02*
X119567713Y-122160614D01*
X119567713Y-122160614D02*
X119496285Y-121874900D01*
X119496285Y-121874900D02*
X119496285Y-121517757D01*
X119496285Y-121517757D02*
X119567713Y-121232042D01*
X119567713Y-121232042D02*
X119639142Y-121089185D01*
X119639142Y-121089185D02*
X119710571Y-121017757D01*
X119710571Y-121017757D02*
X119853428Y-120946328D01*
X122139141Y-122446328D02*
X122139141Y-121446328D01*
X122139141Y-121589185D02*
X122210570Y-121517757D01*
X122210570Y-121517757D02*
X122353427Y-121446328D01*
X122353427Y-121446328D02*
X122567713Y-121446328D01*
X122567713Y-121446328D02*
X122710570Y-121517757D01*
X122710570Y-121517757D02*
X122781999Y-121660614D01*
X122781999Y-121660614D02*
X122781999Y-122446328D01*
X122781999Y-121660614D02*
X122853427Y-121517757D01*
X122853427Y-121517757D02*
X122996284Y-121446328D01*
X122996284Y-121446328D02*
X123210570Y-121446328D01*
X123210570Y-121446328D02*
X123353427Y-121517757D01*
X123353427Y-121517757D02*
X123424856Y-121660614D01*
X123424856Y-121660614D02*
X123424856Y-122446328D01*
X124139141Y-122446328D02*
X124139141Y-121446328D01*
X124139141Y-121589185D02*
X124210570Y-121517757D01*
X124210570Y-121517757D02*
X124353427Y-121446328D01*
X124353427Y-121446328D02*
X124567713Y-121446328D01*
X124567713Y-121446328D02*
X124710570Y-121517757D01*
X124710570Y-121517757D02*
X124781999Y-121660614D01*
X124781999Y-121660614D02*
X124781999Y-122446328D01*
X124781999Y-121660614D02*
X124853427Y-121517757D01*
X124853427Y-121517757D02*
X124996284Y-121446328D01*
X124996284Y-121446328D02*
X125210570Y-121446328D01*
X125210570Y-121446328D02*
X125353427Y-121517757D01*
X125353427Y-121517757D02*
X125424856Y-121660614D01*
X125424856Y-121660614D02*
X125424856Y-122446328D01*
X117532000Y-117568000D02*
X117532000Y-124154420D01*
X121032000Y-117568000D02*
X121032000Y-124154420D01*
X117532000Y-123568000D02*
X121032000Y-123568000D01*
X117532000Y-123568000D02*
X121032000Y-123568000D01*
X117532000Y-123568000D02*
X118658504Y-122981579D01*
X117532000Y-123568000D02*
X118658504Y-124154421D01*
X121032000Y-123568000D02*
X119905496Y-124154421D01*
X121032000Y-123568000D02*
X119905496Y-122981579D01*
X184053185Y-112996569D02*
X183981757Y-112925141D01*
X183981757Y-112925141D02*
X183910328Y-112782284D01*
X183910328Y-112782284D02*
X183910328Y-112425141D01*
X183910328Y-112425141D02*
X183981757Y-112282284D01*
X183981757Y-112282284D02*
X184053185Y-112210855D01*
X184053185Y-112210855D02*
X184196042Y-112139426D01*
X184196042Y-112139426D02*
X184338900Y-112139426D01*
X184338900Y-112139426D02*
X184553185Y-112210855D01*
X184553185Y-112210855D02*
X185410328Y-113067998D01*
X185410328Y-113067998D02*
X185410328Y-112139426D01*
X183910328Y-111639427D02*
X183910328Y-110710855D01*
X183910328Y-110710855D02*
X184481757Y-111210855D01*
X184481757Y-111210855D02*
X184481757Y-110996570D01*
X184481757Y-110996570D02*
X184553185Y-110853713D01*
X184553185Y-110853713D02*
X184624614Y-110782284D01*
X184624614Y-110782284D02*
X184767471Y-110710855D01*
X184767471Y-110710855D02*
X185124614Y-110710855D01*
X185124614Y-110710855D02*
X185267471Y-110782284D01*
X185267471Y-110782284D02*
X185338900Y-110853713D01*
X185338900Y-110853713D02*
X185410328Y-110996570D01*
X185410328Y-110996570D02*
X185410328Y-111425141D01*
X185410328Y-111425141D02*
X185338900Y-111567998D01*
X185338900Y-111567998D02*
X185267471Y-111639427D01*
X185267471Y-110067999D02*
X185338900Y-109996570D01*
X185338900Y-109996570D02*
X185410328Y-110067999D01*
X185410328Y-110067999D02*
X185338900Y-110139427D01*
X185338900Y-110139427D02*
X185267471Y-110067999D01*
X185267471Y-110067999D02*
X185410328Y-110067999D01*
X183910328Y-109067998D02*
X183910328Y-108925141D01*
X183910328Y-108925141D02*
X183981757Y-108782284D01*
X183981757Y-108782284D02*
X184053185Y-108710856D01*
X184053185Y-108710856D02*
X184196042Y-108639427D01*
X184196042Y-108639427D02*
X184481757Y-108567998D01*
X184481757Y-108567998D02*
X184838900Y-108567998D01*
X184838900Y-108567998D02*
X185124614Y-108639427D01*
X185124614Y-108639427D02*
X185267471Y-108710856D01*
X185267471Y-108710856D02*
X185338900Y-108782284D01*
X185338900Y-108782284D02*
X185410328Y-108925141D01*
X185410328Y-108925141D02*
X185410328Y-109067998D01*
X185410328Y-109067998D02*
X185338900Y-109210856D01*
X185338900Y-109210856D02*
X185267471Y-109282284D01*
X185267471Y-109282284D02*
X185124614Y-109353713D01*
X185124614Y-109353713D02*
X184838900Y-109425141D01*
X184838900Y-109425141D02*
X184481757Y-109425141D01*
X184481757Y-109425141D02*
X184196042Y-109353713D01*
X184196042Y-109353713D02*
X184053185Y-109282284D01*
X184053185Y-109282284D02*
X183981757Y-109210856D01*
X183981757Y-109210856D02*
X183910328Y-109067998D01*
X183910328Y-107639427D02*
X183910328Y-107496570D01*
X183910328Y-107496570D02*
X183981757Y-107353713D01*
X183981757Y-107353713D02*
X184053185Y-107282285D01*
X184053185Y-107282285D02*
X184196042Y-107210856D01*
X184196042Y-107210856D02*
X184481757Y-107139427D01*
X184481757Y-107139427D02*
X184838900Y-107139427D01*
X184838900Y-107139427D02*
X185124614Y-107210856D01*
X185124614Y-107210856D02*
X185267471Y-107282285D01*
X185267471Y-107282285D02*
X185338900Y-107353713D01*
X185338900Y-107353713D02*
X185410328Y-107496570D01*
X185410328Y-107496570D02*
X185410328Y-107639427D01*
X185410328Y-107639427D02*
X185338900Y-107782285D01*
X185338900Y-107782285D02*
X185267471Y-107853713D01*
X185267471Y-107853713D02*
X185124614Y-107925142D01*
X185124614Y-107925142D02*
X184838900Y-107996570D01*
X184838900Y-107996570D02*
X184481757Y-107996570D01*
X184481757Y-107996570D02*
X184196042Y-107925142D01*
X184196042Y-107925142D02*
X184053185Y-107853713D01*
X184053185Y-107853713D02*
X183981757Y-107782285D01*
X183981757Y-107782285D02*
X183910328Y-107639427D01*
X183910328Y-106210856D02*
X183910328Y-106067999D01*
X183910328Y-106067999D02*
X183981757Y-105925142D01*
X183981757Y-105925142D02*
X184053185Y-105853714D01*
X184053185Y-105853714D02*
X184196042Y-105782285D01*
X184196042Y-105782285D02*
X184481757Y-105710856D01*
X184481757Y-105710856D02*
X184838900Y-105710856D01*
X184838900Y-105710856D02*
X185124614Y-105782285D01*
X185124614Y-105782285D02*
X185267471Y-105853714D01*
X185267471Y-105853714D02*
X185338900Y-105925142D01*
X185338900Y-105925142D02*
X185410328Y-106067999D01*
X185410328Y-106067999D02*
X185410328Y-106210856D01*
X185410328Y-106210856D02*
X185338900Y-106353714D01*
X185338900Y-106353714D02*
X185267471Y-106425142D01*
X185267471Y-106425142D02*
X185124614Y-106496571D01*
X185124614Y-106496571D02*
X184838900Y-106567999D01*
X184838900Y-106567999D02*
X184481757Y-106567999D01*
X184481757Y-106567999D02*
X184196042Y-106496571D01*
X184196042Y-106496571D02*
X184053185Y-106425142D01*
X184053185Y-106425142D02*
X183981757Y-106353714D01*
X183981757Y-106353714D02*
X183910328Y-106210856D01*
X183910328Y-104782285D02*
X183910328Y-104639428D01*
X183910328Y-104639428D02*
X183981757Y-104496571D01*
X183981757Y-104496571D02*
X184053185Y-104425143D01*
X184053185Y-104425143D02*
X184196042Y-104353714D01*
X184196042Y-104353714D02*
X184481757Y-104282285D01*
X184481757Y-104282285D02*
X184838900Y-104282285D01*
X184838900Y-104282285D02*
X185124614Y-104353714D01*
X185124614Y-104353714D02*
X185267471Y-104425143D01*
X185267471Y-104425143D02*
X185338900Y-104496571D01*
X185338900Y-104496571D02*
X185410328Y-104639428D01*
X185410328Y-104639428D02*
X185410328Y-104782285D01*
X185410328Y-104782285D02*
X185338900Y-104925143D01*
X185338900Y-104925143D02*
X185267471Y-104996571D01*
X185267471Y-104996571D02*
X185124614Y-105068000D01*
X185124614Y-105068000D02*
X184838900Y-105139428D01*
X184838900Y-105139428D02*
X184481757Y-105139428D01*
X184481757Y-105139428D02*
X184196042Y-105068000D01*
X184196042Y-105068000D02*
X184053185Y-104996571D01*
X184053185Y-104996571D02*
X183981757Y-104925143D01*
X183981757Y-104925143D02*
X183910328Y-104782285D01*
X185410328Y-102496572D02*
X184410328Y-102496572D01*
X184553185Y-102496572D02*
X184481757Y-102425143D01*
X184481757Y-102425143D02*
X184410328Y-102282286D01*
X184410328Y-102282286D02*
X184410328Y-102068000D01*
X184410328Y-102068000D02*
X184481757Y-101925143D01*
X184481757Y-101925143D02*
X184624614Y-101853715D01*
X184624614Y-101853715D02*
X185410328Y-101853715D01*
X184624614Y-101853715D02*
X184481757Y-101782286D01*
X184481757Y-101782286D02*
X184410328Y-101639429D01*
X184410328Y-101639429D02*
X184410328Y-101425143D01*
X184410328Y-101425143D02*
X184481757Y-101282286D01*
X184481757Y-101282286D02*
X184624614Y-101210857D01*
X184624614Y-101210857D02*
X185410328Y-101210857D01*
X185410328Y-100496572D02*
X184410328Y-100496572D01*
X184553185Y-100496572D02*
X184481757Y-100425143D01*
X184481757Y-100425143D02*
X184410328Y-100282286D01*
X184410328Y-100282286D02*
X184410328Y-100068000D01*
X184410328Y-100068000D02*
X184481757Y-99925143D01*
X184481757Y-99925143D02*
X184624614Y-99853715D01*
X184624614Y-99853715D02*
X185410328Y-99853715D01*
X184624614Y-99853715D02*
X184481757Y-99782286D01*
X184481757Y-99782286D02*
X184410328Y-99639429D01*
X184410328Y-99639429D02*
X184410328Y-99425143D01*
X184410328Y-99425143D02*
X184481757Y-99282286D01*
X184481757Y-99282286D02*
X184624614Y-99210857D01*
X184624614Y-99210857D02*
X185410328Y-99210857D01*
X179032000Y-117568000D02*
X187118420Y-117568000D01*
X179032000Y-94568000D02*
X187118420Y-94568000D01*
X186532000Y-117568000D02*
X186532000Y-94568000D01*
X186532000Y-117568000D02*
X186532000Y-94568000D01*
X186532000Y-117568000D02*
X185945579Y-116441496D01*
X186532000Y-117568000D02*
X187118421Y-116441496D01*
X186532000Y-94568000D02*
X187118421Y-95694504D01*
X186532000Y-94568000D02*
X185945579Y-95694504D01*
X143817716Y-79946328D02*
X143532001Y-79946328D01*
X143532001Y-79946328D02*
X143389144Y-80017757D01*
X143389144Y-80017757D02*
X143317716Y-80089185D01*
X143317716Y-80089185D02*
X143174858Y-80303471D01*
X143174858Y-80303471D02*
X143103430Y-80589185D01*
X143103430Y-80589185D02*
X143103430Y-81160614D01*
X143103430Y-81160614D02*
X143174858Y-81303471D01*
X143174858Y-81303471D02*
X143246287Y-81374900D01*
X143246287Y-81374900D02*
X143389144Y-81446328D01*
X143389144Y-81446328D02*
X143674858Y-81446328D01*
X143674858Y-81446328D02*
X143817716Y-81374900D01*
X143817716Y-81374900D02*
X143889144Y-81303471D01*
X143889144Y-81303471D02*
X143960573Y-81160614D01*
X143960573Y-81160614D02*
X143960573Y-80803471D01*
X143960573Y-80803471D02*
X143889144Y-80660614D01*
X143889144Y-80660614D02*
X143817716Y-80589185D01*
X143817716Y-80589185D02*
X143674858Y-80517757D01*
X143674858Y-80517757D02*
X143389144Y-80517757D01*
X143389144Y-80517757D02*
X143246287Y-80589185D01*
X143246287Y-80589185D02*
X143174858Y-80660614D01*
X143174858Y-80660614D02*
X143103430Y-80803471D01*
X145317715Y-79946328D02*
X144603429Y-79946328D01*
X144603429Y-79946328D02*
X144532001Y-80660614D01*
X144532001Y-80660614D02*
X144603429Y-80589185D01*
X144603429Y-80589185D02*
X144746287Y-80517757D01*
X144746287Y-80517757D02*
X145103429Y-80517757D01*
X145103429Y-80517757D02*
X145246287Y-80589185D01*
X145246287Y-80589185D02*
X145317715Y-80660614D01*
X145317715Y-80660614D02*
X145389144Y-80803471D01*
X145389144Y-80803471D02*
X145389144Y-81160614D01*
X145389144Y-81160614D02*
X145317715Y-81303471D01*
X145317715Y-81303471D02*
X145246287Y-81374900D01*
X145246287Y-81374900D02*
X145103429Y-81446328D01*
X145103429Y-81446328D02*
X144746287Y-81446328D01*
X144746287Y-81446328D02*
X144603429Y-81374900D01*
X144603429Y-81374900D02*
X144532001Y-81303471D01*
X146032000Y-81303471D02*
X146103429Y-81374900D01*
X146103429Y-81374900D02*
X146032000Y-81446328D01*
X146032000Y-81446328D02*
X145960572Y-81374900D01*
X145960572Y-81374900D02*
X146032000Y-81303471D01*
X146032000Y-81303471D02*
X146032000Y-81446328D01*
X147032001Y-79946328D02*
X147174858Y-79946328D01*
X147174858Y-79946328D02*
X147317715Y-80017757D01*
X147317715Y-80017757D02*
X147389144Y-80089185D01*
X147389144Y-80089185D02*
X147460572Y-80232042D01*
X147460572Y-80232042D02*
X147532001Y-80517757D01*
X147532001Y-80517757D02*
X147532001Y-80874900D01*
X147532001Y-80874900D02*
X147460572Y-81160614D01*
X147460572Y-81160614D02*
X147389144Y-81303471D01*
X147389144Y-81303471D02*
X147317715Y-81374900D01*
X147317715Y-81374900D02*
X147174858Y-81446328D01*
X147174858Y-81446328D02*
X147032001Y-81446328D01*
X147032001Y-81446328D02*
X146889144Y-81374900D01*
X146889144Y-81374900D02*
X146817715Y-81303471D01*
X146817715Y-81303471D02*
X146746286Y-81160614D01*
X146746286Y-81160614D02*
X146674858Y-80874900D01*
X146674858Y-80874900D02*
X146674858Y-80517757D01*
X146674858Y-80517757D02*
X146746286Y-80232042D01*
X146746286Y-80232042D02*
X146817715Y-80089185D01*
X146817715Y-80089185D02*
X146889144Y-80017757D01*
X146889144Y-80017757D02*
X147032001Y-79946328D01*
X148460572Y-79946328D02*
X148603429Y-79946328D01*
X148603429Y-79946328D02*
X148746286Y-80017757D01*
X148746286Y-80017757D02*
X148817715Y-80089185D01*
X148817715Y-80089185D02*
X148889143Y-80232042D01*
X148889143Y-80232042D02*
X148960572Y-80517757D01*
X148960572Y-80517757D02*
X148960572Y-80874900D01*
X148960572Y-80874900D02*
X148889143Y-81160614D01*
X148889143Y-81160614D02*
X148817715Y-81303471D01*
X148817715Y-81303471D02*
X148746286Y-81374900D01*
X148746286Y-81374900D02*
X148603429Y-81446328D01*
X148603429Y-81446328D02*
X148460572Y-81446328D01*
X148460572Y-81446328D02*
X148317715Y-81374900D01*
X148317715Y-81374900D02*
X148246286Y-81303471D01*
X148246286Y-81303471D02*
X148174857Y-81160614D01*
X148174857Y-81160614D02*
X148103429Y-80874900D01*
X148103429Y-80874900D02*
X148103429Y-80517757D01*
X148103429Y-80517757D02*
X148174857Y-80232042D01*
X148174857Y-80232042D02*
X148246286Y-80089185D01*
X148246286Y-80089185D02*
X148317715Y-80017757D01*
X148317715Y-80017757D02*
X148460572Y-79946328D01*
X149889143Y-79946328D02*
X150032000Y-79946328D01*
X150032000Y-79946328D02*
X150174857Y-80017757D01*
X150174857Y-80017757D02*
X150246286Y-80089185D01*
X150246286Y-80089185D02*
X150317714Y-80232042D01*
X150317714Y-80232042D02*
X150389143Y-80517757D01*
X150389143Y-80517757D02*
X150389143Y-80874900D01*
X150389143Y-80874900D02*
X150317714Y-81160614D01*
X150317714Y-81160614D02*
X150246286Y-81303471D01*
X150246286Y-81303471D02*
X150174857Y-81374900D01*
X150174857Y-81374900D02*
X150032000Y-81446328D01*
X150032000Y-81446328D02*
X149889143Y-81446328D01*
X149889143Y-81446328D02*
X149746286Y-81374900D01*
X149746286Y-81374900D02*
X149674857Y-81303471D01*
X149674857Y-81303471D02*
X149603428Y-81160614D01*
X149603428Y-81160614D02*
X149532000Y-80874900D01*
X149532000Y-80874900D02*
X149532000Y-80517757D01*
X149532000Y-80517757D02*
X149603428Y-80232042D01*
X149603428Y-80232042D02*
X149674857Y-80089185D01*
X149674857Y-80089185D02*
X149746286Y-80017757D01*
X149746286Y-80017757D02*
X149889143Y-79946328D01*
X151317714Y-79946328D02*
X151460571Y-79946328D01*
X151460571Y-79946328D02*
X151603428Y-80017757D01*
X151603428Y-80017757D02*
X151674857Y-80089185D01*
X151674857Y-80089185D02*
X151746285Y-80232042D01*
X151746285Y-80232042D02*
X151817714Y-80517757D01*
X151817714Y-80517757D02*
X151817714Y-80874900D01*
X151817714Y-80874900D02*
X151746285Y-81160614D01*
X151746285Y-81160614D02*
X151674857Y-81303471D01*
X151674857Y-81303471D02*
X151603428Y-81374900D01*
X151603428Y-81374900D02*
X151460571Y-81446328D01*
X151460571Y-81446328D02*
X151317714Y-81446328D01*
X151317714Y-81446328D02*
X151174857Y-81374900D01*
X151174857Y-81374900D02*
X151103428Y-81303471D01*
X151103428Y-81303471D02*
X151031999Y-81160614D01*
X151031999Y-81160614D02*
X150960571Y-80874900D01*
X150960571Y-80874900D02*
X150960571Y-80517757D01*
X150960571Y-80517757D02*
X151031999Y-80232042D01*
X151031999Y-80232042D02*
X151103428Y-80089185D01*
X151103428Y-80089185D02*
X151174857Y-80017757D01*
X151174857Y-80017757D02*
X151317714Y-79946328D01*
X153603427Y-81446328D02*
X153603427Y-80446328D01*
X153603427Y-80589185D02*
X153674856Y-80517757D01*
X153674856Y-80517757D02*
X153817713Y-80446328D01*
X153817713Y-80446328D02*
X154031999Y-80446328D01*
X154031999Y-80446328D02*
X154174856Y-80517757D01*
X154174856Y-80517757D02*
X154246285Y-80660614D01*
X154246285Y-80660614D02*
X154246285Y-81446328D01*
X154246285Y-80660614D02*
X154317713Y-80517757D01*
X154317713Y-80517757D02*
X154460570Y-80446328D01*
X154460570Y-80446328D02*
X154674856Y-80446328D01*
X154674856Y-80446328D02*
X154817713Y-80517757D01*
X154817713Y-80517757D02*
X154889142Y-80660614D01*
X154889142Y-80660614D02*
X154889142Y-81446328D01*
X155603427Y-81446328D02*
X155603427Y-80446328D01*
X155603427Y-80589185D02*
X155674856Y-80517757D01*
X155674856Y-80517757D02*
X155817713Y-80446328D01*
X155817713Y-80446328D02*
X156031999Y-80446328D01*
X156031999Y-80446328D02*
X156174856Y-80517757D01*
X156174856Y-80517757D02*
X156246285Y-80660614D01*
X156246285Y-80660614D02*
X156246285Y-81446328D01*
X156246285Y-80660614D02*
X156317713Y-80517757D01*
X156317713Y-80517757D02*
X156460570Y-80446328D01*
X156460570Y-80446328D02*
X156674856Y-80446328D01*
X156674856Y-80446328D02*
X156817713Y-80517757D01*
X156817713Y-80517757D02*
X156889142Y-80660614D01*
X156889142Y-80660614D02*
X156889142Y-81446328D01*
X182532000Y-94568000D02*
X182532000Y-81981580D01*
X117532000Y-94568000D02*
X117532000Y-81981580D01*
X182532000Y-82568000D02*
X117532000Y-82568000D01*
X182532000Y-82568000D02*
X117532000Y-82568000D01*
X182532000Y-82568000D02*
X181405496Y-83154421D01*
X182532000Y-82568000D02*
X181405496Y-81981579D01*
X117532000Y-82568000D02*
X118658504Y-81981579D01*
X117532000Y-82568000D02*
X118658504Y-83154421D01*
X128603430Y-99289185D02*
X128674858Y-99217757D01*
X128674858Y-99217757D02*
X128817716Y-99146328D01*
X128817716Y-99146328D02*
X129174858Y-99146328D01*
X129174858Y-99146328D02*
X129317716Y-99217757D01*
X129317716Y-99217757D02*
X129389144Y-99289185D01*
X129389144Y-99289185D02*
X129460573Y-99432042D01*
X129460573Y-99432042D02*
X129460573Y-99574900D01*
X129460573Y-99574900D02*
X129389144Y-99789185D01*
X129389144Y-99789185D02*
X128532001Y-100646328D01*
X128532001Y-100646328D02*
X129460573Y-100646328D01*
X130174858Y-100646328D02*
X130460572Y-100646328D01*
X130460572Y-100646328D02*
X130603429Y-100574900D01*
X130603429Y-100574900D02*
X130674858Y-100503471D01*
X130674858Y-100503471D02*
X130817715Y-100289185D01*
X130817715Y-100289185D02*
X130889144Y-100003471D01*
X130889144Y-100003471D02*
X130889144Y-99432042D01*
X130889144Y-99432042D02*
X130817715Y-99289185D01*
X130817715Y-99289185D02*
X130746287Y-99217757D01*
X130746287Y-99217757D02*
X130603429Y-99146328D01*
X130603429Y-99146328D02*
X130317715Y-99146328D01*
X130317715Y-99146328D02*
X130174858Y-99217757D01*
X130174858Y-99217757D02*
X130103429Y-99289185D01*
X130103429Y-99289185D02*
X130032001Y-99432042D01*
X130032001Y-99432042D02*
X130032001Y-99789185D01*
X130032001Y-99789185D02*
X130103429Y-99932042D01*
X130103429Y-99932042D02*
X130174858Y-100003471D01*
X130174858Y-100003471D02*
X130317715Y-100074900D01*
X130317715Y-100074900D02*
X130603429Y-100074900D01*
X130603429Y-100074900D02*
X130746287Y-100003471D01*
X130746287Y-100003471D02*
X130817715Y-99932042D01*
X130817715Y-99932042D02*
X130889144Y-99789185D01*
X131532000Y-100503471D02*
X131603429Y-100574900D01*
X131603429Y-100574900D02*
X131532000Y-100646328D01*
X131532000Y-100646328D02*
X131460572Y-100574900D01*
X131460572Y-100574900D02*
X131532000Y-100503471D01*
X131532000Y-100503471D02*
X131532000Y-100646328D01*
X132532001Y-99146328D02*
X132674858Y-99146328D01*
X132674858Y-99146328D02*
X132817715Y-99217757D01*
X132817715Y-99217757D02*
X132889144Y-99289185D01*
X132889144Y-99289185D02*
X132960572Y-99432042D01*
X132960572Y-99432042D02*
X133032001Y-99717757D01*
X133032001Y-99717757D02*
X133032001Y-100074900D01*
X133032001Y-100074900D02*
X132960572Y-100360614D01*
X132960572Y-100360614D02*
X132889144Y-100503471D01*
X132889144Y-100503471D02*
X132817715Y-100574900D01*
X132817715Y-100574900D02*
X132674858Y-100646328D01*
X132674858Y-100646328D02*
X132532001Y-100646328D01*
X132532001Y-100646328D02*
X132389144Y-100574900D01*
X132389144Y-100574900D02*
X132317715Y-100503471D01*
X132317715Y-100503471D02*
X132246286Y-100360614D01*
X132246286Y-100360614D02*
X132174858Y-100074900D01*
X132174858Y-100074900D02*
X132174858Y-99717757D01*
X132174858Y-99717757D02*
X132246286Y-99432042D01*
X132246286Y-99432042D02*
X132317715Y-99289185D01*
X132317715Y-99289185D02*
X132389144Y-99217757D01*
X132389144Y-99217757D02*
X132532001Y-99146328D01*
X133960572Y-99146328D02*
X134103429Y-99146328D01*
X134103429Y-99146328D02*
X134246286Y-99217757D01*
X134246286Y-99217757D02*
X134317715Y-99289185D01*
X134317715Y-99289185D02*
X134389143Y-99432042D01*
X134389143Y-99432042D02*
X134460572Y-99717757D01*
X134460572Y-99717757D02*
X134460572Y-100074900D01*
X134460572Y-100074900D02*
X134389143Y-100360614D01*
X134389143Y-100360614D02*
X134317715Y-100503471D01*
X134317715Y-100503471D02*
X134246286Y-100574900D01*
X134246286Y-100574900D02*
X134103429Y-100646328D01*
X134103429Y-100646328D02*
X133960572Y-100646328D01*
X133960572Y-100646328D02*
X133817715Y-100574900D01*
X133817715Y-100574900D02*
X133746286Y-100503471D01*
X133746286Y-100503471D02*
X133674857Y-100360614D01*
X133674857Y-100360614D02*
X133603429Y-100074900D01*
X133603429Y-100074900D02*
X133603429Y-99717757D01*
X133603429Y-99717757D02*
X133674857Y-99432042D01*
X133674857Y-99432042D02*
X133746286Y-99289185D01*
X133746286Y-99289185D02*
X133817715Y-99217757D01*
X133817715Y-99217757D02*
X133960572Y-99146328D01*
X135389143Y-99146328D02*
X135532000Y-99146328D01*
X135532000Y-99146328D02*
X135674857Y-99217757D01*
X135674857Y-99217757D02*
X135746286Y-99289185D01*
X135746286Y-99289185D02*
X135817714Y-99432042D01*
X135817714Y-99432042D02*
X135889143Y-99717757D01*
X135889143Y-99717757D02*
X135889143Y-100074900D01*
X135889143Y-100074900D02*
X135817714Y-100360614D01*
X135817714Y-100360614D02*
X135746286Y-100503471D01*
X135746286Y-100503471D02*
X135674857Y-100574900D01*
X135674857Y-100574900D02*
X135532000Y-100646328D01*
X135532000Y-100646328D02*
X135389143Y-100646328D01*
X135389143Y-100646328D02*
X135246286Y-100574900D01*
X135246286Y-100574900D02*
X135174857Y-100503471D01*
X135174857Y-100503471D02*
X135103428Y-100360614D01*
X135103428Y-100360614D02*
X135032000Y-100074900D01*
X135032000Y-100074900D02*
X135032000Y-99717757D01*
X135032000Y-99717757D02*
X135103428Y-99432042D01*
X135103428Y-99432042D02*
X135174857Y-99289185D01*
X135174857Y-99289185D02*
X135246286Y-99217757D01*
X135246286Y-99217757D02*
X135389143Y-99146328D01*
X136817714Y-99146328D02*
X136960571Y-99146328D01*
X136960571Y-99146328D02*
X137103428Y-99217757D01*
X137103428Y-99217757D02*
X137174857Y-99289185D01*
X137174857Y-99289185D02*
X137246285Y-99432042D01*
X137246285Y-99432042D02*
X137317714Y-99717757D01*
X137317714Y-99717757D02*
X137317714Y-100074900D01*
X137317714Y-100074900D02*
X137246285Y-100360614D01*
X137246285Y-100360614D02*
X137174857Y-100503471D01*
X137174857Y-100503471D02*
X137103428Y-100574900D01*
X137103428Y-100574900D02*
X136960571Y-100646328D01*
X136960571Y-100646328D02*
X136817714Y-100646328D01*
X136817714Y-100646328D02*
X136674857Y-100574900D01*
X136674857Y-100574900D02*
X136603428Y-100503471D01*
X136603428Y-100503471D02*
X136531999Y-100360614D01*
X136531999Y-100360614D02*
X136460571Y-100074900D01*
X136460571Y-100074900D02*
X136460571Y-99717757D01*
X136460571Y-99717757D02*
X136531999Y-99432042D01*
X136531999Y-99432042D02*
X136603428Y-99289185D01*
X136603428Y-99289185D02*
X136674857Y-99217757D01*
X136674857Y-99217757D02*
X136817714Y-99146328D01*
X139103427Y-100646328D02*
X139103427Y-99646328D01*
X139103427Y-99789185D02*
X139174856Y-99717757D01*
X139174856Y-99717757D02*
X139317713Y-99646328D01*
X139317713Y-99646328D02*
X139531999Y-99646328D01*
X139531999Y-99646328D02*
X139674856Y-99717757D01*
X139674856Y-99717757D02*
X139746285Y-99860614D01*
X139746285Y-99860614D02*
X139746285Y-100646328D01*
X139746285Y-99860614D02*
X139817713Y-99717757D01*
X139817713Y-99717757D02*
X139960570Y-99646328D01*
X139960570Y-99646328D02*
X140174856Y-99646328D01*
X140174856Y-99646328D02*
X140317713Y-99717757D01*
X140317713Y-99717757D02*
X140389142Y-99860614D01*
X140389142Y-99860614D02*
X140389142Y-100646328D01*
X141103427Y-100646328D02*
X141103427Y-99646328D01*
X141103427Y-99789185D02*
X141174856Y-99717757D01*
X141174856Y-99717757D02*
X141317713Y-99646328D01*
X141317713Y-99646328D02*
X141531999Y-99646328D01*
X141531999Y-99646328D02*
X141674856Y-99717757D01*
X141674856Y-99717757D02*
X141746285Y-99860614D01*
X141746285Y-99860614D02*
X141746285Y-100646328D01*
X141746285Y-99860614D02*
X141817713Y-99717757D01*
X141817713Y-99717757D02*
X141960570Y-99646328D01*
X141960570Y-99646328D02*
X142174856Y-99646328D01*
X142174856Y-99646328D02*
X142317713Y-99717757D01*
X142317713Y-99717757D02*
X142389142Y-99860614D01*
X142389142Y-99860614D02*
X142389142Y-100646328D01*
X121032000Y-94568000D02*
X121032000Y-102354420D01*
X150032000Y-94568000D02*
X150032000Y-102354420D01*
X121032000Y-101768000D02*
X150032000Y-101768000D01*
X121032000Y-101768000D02*
X150032000Y-101768000D01*
X121032000Y-101768000D02*
X122158504Y-101181579D01*
X121032000Y-101768000D02*
X122158504Y-102354421D01*
X150032000Y-101768000D02*
X148905496Y-102354421D01*
X150032000Y-101768000D02*
X148905496Y-101181579D01*
X189410328Y-113067998D02*
X189410328Y-112139426D01*
X189410328Y-112139426D02*
X189981757Y-112639426D01*
X189981757Y-112639426D02*
X189981757Y-112425141D01*
X189981757Y-112425141D02*
X190053185Y-112282284D01*
X190053185Y-112282284D02*
X190124614Y-112210855D01*
X190124614Y-112210855D02*
X190267471Y-112139426D01*
X190267471Y-112139426D02*
X190624614Y-112139426D01*
X190624614Y-112139426D02*
X190767471Y-112210855D01*
X190767471Y-112210855D02*
X190838900Y-112282284D01*
X190838900Y-112282284D02*
X190910328Y-112425141D01*
X190910328Y-112425141D02*
X190910328Y-112853712D01*
X190910328Y-112853712D02*
X190838900Y-112996569D01*
X190838900Y-112996569D02*
X190767471Y-113067998D01*
X189410328Y-111210855D02*
X189410328Y-111067998D01*
X189410328Y-111067998D02*
X189481757Y-110925141D01*
X189481757Y-110925141D02*
X189553185Y-110853713D01*
X189553185Y-110853713D02*
X189696042Y-110782284D01*
X189696042Y-110782284D02*
X189981757Y-110710855D01*
X189981757Y-110710855D02*
X190338900Y-110710855D01*
X190338900Y-110710855D02*
X190624614Y-110782284D01*
X190624614Y-110782284D02*
X190767471Y-110853713D01*
X190767471Y-110853713D02*
X190838900Y-110925141D01*
X190838900Y-110925141D02*
X190910328Y-111067998D01*
X190910328Y-111067998D02*
X190910328Y-111210855D01*
X190910328Y-111210855D02*
X190838900Y-111353713D01*
X190838900Y-111353713D02*
X190767471Y-111425141D01*
X190767471Y-111425141D02*
X190624614Y-111496570D01*
X190624614Y-111496570D02*
X190338900Y-111567998D01*
X190338900Y-111567998D02*
X189981757Y-111567998D01*
X189981757Y-111567998D02*
X189696042Y-111496570D01*
X189696042Y-111496570D02*
X189553185Y-111425141D01*
X189553185Y-111425141D02*
X189481757Y-111353713D01*
X189481757Y-111353713D02*
X189410328Y-111210855D01*
X190767471Y-110067999D02*
X190838900Y-109996570D01*
X190838900Y-109996570D02*
X190910328Y-110067999D01*
X190910328Y-110067999D02*
X190838900Y-110139427D01*
X190838900Y-110139427D02*
X190767471Y-110067999D01*
X190767471Y-110067999D02*
X190910328Y-110067999D01*
X189410328Y-109067998D02*
X189410328Y-108925141D01*
X189410328Y-108925141D02*
X189481757Y-108782284D01*
X189481757Y-108782284D02*
X189553185Y-108710856D01*
X189553185Y-108710856D02*
X189696042Y-108639427D01*
X189696042Y-108639427D02*
X189981757Y-108567998D01*
X189981757Y-108567998D02*
X190338900Y-108567998D01*
X190338900Y-108567998D02*
X190624614Y-108639427D01*
X190624614Y-108639427D02*
X190767471Y-108710856D01*
X190767471Y-108710856D02*
X190838900Y-108782284D01*
X190838900Y-108782284D02*
X190910328Y-108925141D01*
X190910328Y-108925141D02*
X190910328Y-109067998D01*
X190910328Y-109067998D02*
X190838900Y-109210856D01*
X190838900Y-109210856D02*
X190767471Y-109282284D01*
X190767471Y-109282284D02*
X190624614Y-109353713D01*
X190624614Y-109353713D02*
X190338900Y-109425141D01*
X190338900Y-109425141D02*
X189981757Y-109425141D01*
X189981757Y-109425141D02*
X189696042Y-109353713D01*
X189696042Y-109353713D02*
X189553185Y-109282284D01*
X189553185Y-109282284D02*
X189481757Y-109210856D01*
X189481757Y-109210856D02*
X189410328Y-109067998D01*
X189410328Y-107639427D02*
X189410328Y-107496570D01*
X189410328Y-107496570D02*
X189481757Y-107353713D01*
X189481757Y-107353713D02*
X189553185Y-107282285D01*
X189553185Y-107282285D02*
X189696042Y-107210856D01*
X189696042Y-107210856D02*
X189981757Y-107139427D01*
X189981757Y-107139427D02*
X190338900Y-107139427D01*
X190338900Y-107139427D02*
X190624614Y-107210856D01*
X190624614Y-107210856D02*
X190767471Y-107282285D01*
X190767471Y-107282285D02*
X190838900Y-107353713D01*
X190838900Y-107353713D02*
X190910328Y-107496570D01*
X190910328Y-107496570D02*
X190910328Y-107639427D01*
X190910328Y-107639427D02*
X190838900Y-107782285D01*
X190838900Y-107782285D02*
X190767471Y-107853713D01*
X190767471Y-107853713D02*
X190624614Y-107925142D01*
X190624614Y-107925142D02*
X190338900Y-107996570D01*
X190338900Y-107996570D02*
X189981757Y-107996570D01*
X189981757Y-107996570D02*
X189696042Y-107925142D01*
X189696042Y-107925142D02*
X189553185Y-107853713D01*
X189553185Y-107853713D02*
X189481757Y-107782285D01*
X189481757Y-107782285D02*
X189410328Y-107639427D01*
X189410328Y-106210856D02*
X189410328Y-106067999D01*
X189410328Y-106067999D02*
X189481757Y-105925142D01*
X189481757Y-105925142D02*
X189553185Y-105853714D01*
X189553185Y-105853714D02*
X189696042Y-105782285D01*
X189696042Y-105782285D02*
X189981757Y-105710856D01*
X189981757Y-105710856D02*
X190338900Y-105710856D01*
X190338900Y-105710856D02*
X190624614Y-105782285D01*
X190624614Y-105782285D02*
X190767471Y-105853714D01*
X190767471Y-105853714D02*
X190838900Y-105925142D01*
X190838900Y-105925142D02*
X190910328Y-106067999D01*
X190910328Y-106067999D02*
X190910328Y-106210856D01*
X190910328Y-106210856D02*
X190838900Y-106353714D01*
X190838900Y-106353714D02*
X190767471Y-106425142D01*
X190767471Y-106425142D02*
X190624614Y-106496571D01*
X190624614Y-106496571D02*
X190338900Y-106567999D01*
X190338900Y-106567999D02*
X189981757Y-106567999D01*
X189981757Y-106567999D02*
X189696042Y-106496571D01*
X189696042Y-106496571D02*
X189553185Y-106425142D01*
X189553185Y-106425142D02*
X189481757Y-106353714D01*
X189481757Y-106353714D02*
X189410328Y-106210856D01*
X189410328Y-104782285D02*
X189410328Y-104639428D01*
X189410328Y-104639428D02*
X189481757Y-104496571D01*
X189481757Y-104496571D02*
X189553185Y-104425143D01*
X189553185Y-104425143D02*
X189696042Y-104353714D01*
X189696042Y-104353714D02*
X189981757Y-104282285D01*
X189981757Y-104282285D02*
X190338900Y-104282285D01*
X190338900Y-104282285D02*
X190624614Y-104353714D01*
X190624614Y-104353714D02*
X190767471Y-104425143D01*
X190767471Y-104425143D02*
X190838900Y-104496571D01*
X190838900Y-104496571D02*
X190910328Y-104639428D01*
X190910328Y-104639428D02*
X190910328Y-104782285D01*
X190910328Y-104782285D02*
X190838900Y-104925143D01*
X190838900Y-104925143D02*
X190767471Y-104996571D01*
X190767471Y-104996571D02*
X190624614Y-105068000D01*
X190624614Y-105068000D02*
X190338900Y-105139428D01*
X190338900Y-105139428D02*
X189981757Y-105139428D01*
X189981757Y-105139428D02*
X189696042Y-105068000D01*
X189696042Y-105068000D02*
X189553185Y-104996571D01*
X189553185Y-104996571D02*
X189481757Y-104925143D01*
X189481757Y-104925143D02*
X189410328Y-104782285D01*
X190910328Y-102496572D02*
X189910328Y-102496572D01*
X190053185Y-102496572D02*
X189981757Y-102425143D01*
X189981757Y-102425143D02*
X189910328Y-102282286D01*
X189910328Y-102282286D02*
X189910328Y-102068000D01*
X189910328Y-102068000D02*
X189981757Y-101925143D01*
X189981757Y-101925143D02*
X190124614Y-101853715D01*
X190124614Y-101853715D02*
X190910328Y-101853715D01*
X190124614Y-101853715D02*
X189981757Y-101782286D01*
X189981757Y-101782286D02*
X189910328Y-101639429D01*
X189910328Y-101639429D02*
X189910328Y-101425143D01*
X189910328Y-101425143D02*
X189981757Y-101282286D01*
X189981757Y-101282286D02*
X190124614Y-101210857D01*
X190124614Y-101210857D02*
X190910328Y-101210857D01*
X190910328Y-100496572D02*
X189910328Y-100496572D01*
X190053185Y-100496572D02*
X189981757Y-100425143D01*
X189981757Y-100425143D02*
X189910328Y-100282286D01*
X189910328Y-100282286D02*
X189910328Y-100068000D01*
X189910328Y-100068000D02*
X189981757Y-99925143D01*
X189981757Y-99925143D02*
X190124614Y-99853715D01*
X190124614Y-99853715D02*
X190910328Y-99853715D01*
X190124614Y-99853715D02*
X189981757Y-99782286D01*
X189981757Y-99782286D02*
X189910328Y-99639429D01*
X189910328Y-99639429D02*
X189910328Y-99425143D01*
X189910328Y-99425143D02*
X189981757Y-99282286D01*
X189981757Y-99282286D02*
X190124614Y-99210857D01*
X190124614Y-99210857D02*
X190910328Y-99210857D01*
X179032000Y-121068000D02*
X192618420Y-121068000D01*
X179032000Y-91068000D02*
X192618420Y-91068000D01*
X192032000Y-121068000D02*
X192032000Y-91068000D01*
X192032000Y-121068000D02*
X192032000Y-91068000D01*
X192032000Y-121068000D02*
X191445579Y-119941496D01*
X192032000Y-121068000D02*
X192618421Y-119941496D01*
X192032000Y-91068000D02*
X192618421Y-92194504D01*
X192032000Y-91068000D02*
X191445579Y-92194504D01*
X143889144Y-84446328D02*
X143174858Y-84446328D01*
X143174858Y-84446328D02*
X143103430Y-85160614D01*
X143103430Y-85160614D02*
X143174858Y-85089185D01*
X143174858Y-85089185D02*
X143317716Y-85017757D01*
X143317716Y-85017757D02*
X143674858Y-85017757D01*
X143674858Y-85017757D02*
X143817716Y-85089185D01*
X143817716Y-85089185D02*
X143889144Y-85160614D01*
X143889144Y-85160614D02*
X143960573Y-85303471D01*
X143960573Y-85303471D02*
X143960573Y-85660614D01*
X143960573Y-85660614D02*
X143889144Y-85803471D01*
X143889144Y-85803471D02*
X143817716Y-85874900D01*
X143817716Y-85874900D02*
X143674858Y-85946328D01*
X143674858Y-85946328D02*
X143317716Y-85946328D01*
X143317716Y-85946328D02*
X143174858Y-85874900D01*
X143174858Y-85874900D02*
X143103430Y-85803471D01*
X144817715Y-85089185D02*
X144674858Y-85017757D01*
X144674858Y-85017757D02*
X144603429Y-84946328D01*
X144603429Y-84946328D02*
X144532001Y-84803471D01*
X144532001Y-84803471D02*
X144532001Y-84732042D01*
X144532001Y-84732042D02*
X144603429Y-84589185D01*
X144603429Y-84589185D02*
X144674858Y-84517757D01*
X144674858Y-84517757D02*
X144817715Y-84446328D01*
X144817715Y-84446328D02*
X145103429Y-84446328D01*
X145103429Y-84446328D02*
X145246287Y-84517757D01*
X145246287Y-84517757D02*
X145317715Y-84589185D01*
X145317715Y-84589185D02*
X145389144Y-84732042D01*
X145389144Y-84732042D02*
X145389144Y-84803471D01*
X145389144Y-84803471D02*
X145317715Y-84946328D01*
X145317715Y-84946328D02*
X145246287Y-85017757D01*
X145246287Y-85017757D02*
X145103429Y-85089185D01*
X145103429Y-85089185D02*
X144817715Y-85089185D01*
X144817715Y-85089185D02*
X144674858Y-85160614D01*
X144674858Y-85160614D02*
X144603429Y-85232042D01*
X144603429Y-85232042D02*
X144532001Y-85374900D01*
X144532001Y-85374900D02*
X144532001Y-85660614D01*
X144532001Y-85660614D02*
X144603429Y-85803471D01*
X144603429Y-85803471D02*
X144674858Y-85874900D01*
X144674858Y-85874900D02*
X144817715Y-85946328D01*
X144817715Y-85946328D02*
X145103429Y-85946328D01*
X145103429Y-85946328D02*
X145246287Y-85874900D01*
X145246287Y-85874900D02*
X145317715Y-85803471D01*
X145317715Y-85803471D02*
X145389144Y-85660614D01*
X145389144Y-85660614D02*
X145389144Y-85374900D01*
X145389144Y-85374900D02*
X145317715Y-85232042D01*
X145317715Y-85232042D02*
X145246287Y-85160614D01*
X145246287Y-85160614D02*
X145103429Y-85089185D01*
X146032000Y-85803471D02*
X146103429Y-85874900D01*
X146103429Y-85874900D02*
X146032000Y-85946328D01*
X146032000Y-85946328D02*
X145960572Y-85874900D01*
X145960572Y-85874900D02*
X146032000Y-85803471D01*
X146032000Y-85803471D02*
X146032000Y-85946328D01*
X147032001Y-84446328D02*
X147174858Y-84446328D01*
X147174858Y-84446328D02*
X147317715Y-84517757D01*
X147317715Y-84517757D02*
X147389144Y-84589185D01*
X147389144Y-84589185D02*
X147460572Y-84732042D01*
X147460572Y-84732042D02*
X147532001Y-85017757D01*
X147532001Y-85017757D02*
X147532001Y-85374900D01*
X147532001Y-85374900D02*
X147460572Y-85660614D01*
X147460572Y-85660614D02*
X147389144Y-85803471D01*
X147389144Y-85803471D02*
X147317715Y-85874900D01*
X147317715Y-85874900D02*
X147174858Y-85946328D01*
X147174858Y-85946328D02*
X147032001Y-85946328D01*
X147032001Y-85946328D02*
X146889144Y-85874900D01*
X146889144Y-85874900D02*
X146817715Y-85803471D01*
X146817715Y-85803471D02*
X146746286Y-85660614D01*
X146746286Y-85660614D02*
X146674858Y-85374900D01*
X146674858Y-85374900D02*
X146674858Y-85017757D01*
X146674858Y-85017757D02*
X146746286Y-84732042D01*
X146746286Y-84732042D02*
X146817715Y-84589185D01*
X146817715Y-84589185D02*
X146889144Y-84517757D01*
X146889144Y-84517757D02*
X147032001Y-84446328D01*
X148460572Y-84446328D02*
X148603429Y-84446328D01*
X148603429Y-84446328D02*
X148746286Y-84517757D01*
X148746286Y-84517757D02*
X148817715Y-84589185D01*
X148817715Y-84589185D02*
X148889143Y-84732042D01*
X148889143Y-84732042D02*
X148960572Y-85017757D01*
X148960572Y-85017757D02*
X148960572Y-85374900D01*
X148960572Y-85374900D02*
X148889143Y-85660614D01*
X148889143Y-85660614D02*
X148817715Y-85803471D01*
X148817715Y-85803471D02*
X148746286Y-85874900D01*
X148746286Y-85874900D02*
X148603429Y-85946328D01*
X148603429Y-85946328D02*
X148460572Y-85946328D01*
X148460572Y-85946328D02*
X148317715Y-85874900D01*
X148317715Y-85874900D02*
X148246286Y-85803471D01*
X148246286Y-85803471D02*
X148174857Y-85660614D01*
X148174857Y-85660614D02*
X148103429Y-85374900D01*
X148103429Y-85374900D02*
X148103429Y-85017757D01*
X148103429Y-85017757D02*
X148174857Y-84732042D01*
X148174857Y-84732042D02*
X148246286Y-84589185D01*
X148246286Y-84589185D02*
X148317715Y-84517757D01*
X148317715Y-84517757D02*
X148460572Y-84446328D01*
X149889143Y-84446328D02*
X150032000Y-84446328D01*
X150032000Y-84446328D02*
X150174857Y-84517757D01*
X150174857Y-84517757D02*
X150246286Y-84589185D01*
X150246286Y-84589185D02*
X150317714Y-84732042D01*
X150317714Y-84732042D02*
X150389143Y-85017757D01*
X150389143Y-85017757D02*
X150389143Y-85374900D01*
X150389143Y-85374900D02*
X150317714Y-85660614D01*
X150317714Y-85660614D02*
X150246286Y-85803471D01*
X150246286Y-85803471D02*
X150174857Y-85874900D01*
X150174857Y-85874900D02*
X150032000Y-85946328D01*
X150032000Y-85946328D02*
X149889143Y-85946328D01*
X149889143Y-85946328D02*
X149746286Y-85874900D01*
X149746286Y-85874900D02*
X149674857Y-85803471D01*
X149674857Y-85803471D02*
X149603428Y-85660614D01*
X149603428Y-85660614D02*
X149532000Y-85374900D01*
X149532000Y-85374900D02*
X149532000Y-85017757D01*
X149532000Y-85017757D02*
X149603428Y-84732042D01*
X149603428Y-84732042D02*
X149674857Y-84589185D01*
X149674857Y-84589185D02*
X149746286Y-84517757D01*
X149746286Y-84517757D02*
X149889143Y-84446328D01*
X151317714Y-84446328D02*
X151460571Y-84446328D01*
X151460571Y-84446328D02*
X151603428Y-84517757D01*
X151603428Y-84517757D02*
X151674857Y-84589185D01*
X151674857Y-84589185D02*
X151746285Y-84732042D01*
X151746285Y-84732042D02*
X151817714Y-85017757D01*
X151817714Y-85017757D02*
X151817714Y-85374900D01*
X151817714Y-85374900D02*
X151746285Y-85660614D01*
X151746285Y-85660614D02*
X151674857Y-85803471D01*
X151674857Y-85803471D02*
X151603428Y-85874900D01*
X151603428Y-85874900D02*
X151460571Y-85946328D01*
X151460571Y-85946328D02*
X151317714Y-85946328D01*
X151317714Y-85946328D02*
X151174857Y-85874900D01*
X151174857Y-85874900D02*
X151103428Y-85803471D01*
X151103428Y-85803471D02*
X151031999Y-85660614D01*
X151031999Y-85660614D02*
X150960571Y-85374900D01*
X150960571Y-85374900D02*
X150960571Y-85017757D01*
X150960571Y-85017757D02*
X151031999Y-84732042D01*
X151031999Y-84732042D02*
X151103428Y-84589185D01*
X151103428Y-84589185D02*
X151174857Y-84517757D01*
X151174857Y-84517757D02*
X151317714Y-84446328D01*
X153603427Y-85946328D02*
X153603427Y-84946328D01*
X153603427Y-85089185D02*
X153674856Y-85017757D01*
X153674856Y-85017757D02*
X153817713Y-84946328D01*
X153817713Y-84946328D02*
X154031999Y-84946328D01*
X154031999Y-84946328D02*
X154174856Y-85017757D01*
X154174856Y-85017757D02*
X154246285Y-85160614D01*
X154246285Y-85160614D02*
X154246285Y-85946328D01*
X154246285Y-85160614D02*
X154317713Y-85017757D01*
X154317713Y-85017757D02*
X154460570Y-84946328D01*
X154460570Y-84946328D02*
X154674856Y-84946328D01*
X154674856Y-84946328D02*
X154817713Y-85017757D01*
X154817713Y-85017757D02*
X154889142Y-85160614D01*
X154889142Y-85160614D02*
X154889142Y-85946328D01*
X155603427Y-85946328D02*
X155603427Y-84946328D01*
X155603427Y-85089185D02*
X155674856Y-85017757D01*
X155674856Y-85017757D02*
X155817713Y-84946328D01*
X155817713Y-84946328D02*
X156031999Y-84946328D01*
X156031999Y-84946328D02*
X156174856Y-85017757D01*
X156174856Y-85017757D02*
X156246285Y-85160614D01*
X156246285Y-85160614D02*
X156246285Y-85946328D01*
X156246285Y-85160614D02*
X156317713Y-85017757D01*
X156317713Y-85017757D02*
X156460570Y-84946328D01*
X156460570Y-84946328D02*
X156674856Y-84946328D01*
X156674856Y-84946328D02*
X156817713Y-85017757D01*
X156817713Y-85017757D02*
X156889142Y-85160614D01*
X156889142Y-85160614D02*
X156889142Y-85946328D01*
X179032000Y-94568000D02*
X179032000Y-86481580D01*
X121032000Y-94568000D02*
X121032000Y-86481580D01*
X179032000Y-87068000D02*
X121032000Y-87068000D01*
X179032000Y-87068000D02*
X121032000Y-87068000D01*
X179032000Y-87068000D02*
X177905496Y-87654421D01*
X179032000Y-87068000D02*
X177905496Y-86481579D01*
X121032000Y-87068000D02*
X122158504Y-86481579D01*
X121032000Y-87068000D02*
X122158504Y-87654421D01*
D10*
%TO.C,H1*%
X123732000Y-94568000D02*
G75*
G03*
X123732000Y-94568000I-2700000J0D01*
G01*
%TO.C,H2*%
X181732000Y-94568000D02*
G75*
G03*
X181732000Y-94568000I-2700000J0D01*
G01*
%TO.C,H3*%
X181732000Y-117568000D02*
G75*
G03*
X181732000Y-117568000I-2700000J0D01*
G01*
%TO.C,H4*%
X123732000Y-117568000D02*
G75*
G03*
X123732000Y-117568000I-2700000J0D01*
G01*
%TD*%
M02*
