%TF.GenerationSoftware,KiCad,Pcbnew,7.0.5*%
%TF.CreationDate,2024-01-24T13:57:34+02:00*%
%TF.ProjectId,Pi HAT,50692048-4154-42e6-9b69-6361645f7063,1.1.2*%
%TF.SameCoordinates,Original*%
%TF.FileFunction,Paste,Top*%
%TF.FilePolarity,Positive*%
%FSLAX46Y46*%
G04 Gerber Fmt 4.6, Leading zero omitted, Abs format (unit mm)*
G04 Created by KiCad (PCBNEW 7.0.5) date 2024-01-24 13:57:34*
%MOMM*%
%LPD*%
G01*
G04 APERTURE LIST*
G04 Aperture macros list*
%AMRoundRect*
0 Rectangle with rounded corners*
0 $1 Rounding radius*
0 $2 $3 $4 $5 $6 $7 $8 $9 X,Y pos of 4 corners*
0 Add a 4 corners polygon primitive as box body*
4,1,4,$2,$3,$4,$5,$6,$7,$8,$9,$2,$3,0*
0 Add four circle primitives for the rounded corners*
1,1,$1+$1,$2,$3*
1,1,$1+$1,$4,$5*
1,1,$1+$1,$6,$7*
1,1,$1+$1,$8,$9*
0 Add four rect primitives between the rounded corners*
20,1,$1+$1,$2,$3,$4,$5,0*
20,1,$1+$1,$4,$5,$6,$7,0*
20,1,$1+$1,$6,$7,$8,$9,0*
20,1,$1+$1,$8,$9,$2,$3,0*%
G04 Aperture macros list end*
%ADD10RoundRect,0.218750X-0.218750X-0.256250X0.218750X-0.256250X0.218750X0.256250X-0.218750X0.256250X0*%
%ADD11RoundRect,0.135000X-0.185000X0.135000X-0.185000X-0.135000X0.185000X-0.135000X0.185000X0.135000X0*%
%ADD12RoundRect,0.225000X-0.250000X0.225000X-0.250000X-0.225000X0.250000X-0.225000X0.250000X0.225000X0*%
%ADD13RoundRect,0.225000X0.250000X-0.225000X0.250000X0.225000X-0.250000X0.225000X-0.250000X-0.225000X0*%
%ADD14RoundRect,0.100000X-0.637500X-0.100000X0.637500X-0.100000X0.637500X0.100000X-0.637500X0.100000X0*%
%ADD15RoundRect,0.135000X0.185000X-0.135000X0.185000X0.135000X-0.185000X0.135000X-0.185000X-0.135000X0*%
%ADD16RoundRect,0.225000X-0.225000X-0.250000X0.225000X-0.250000X0.225000X0.250000X-0.225000X0.250000X0*%
%ADD17RoundRect,0.020500X0.184500X-0.764500X0.184500X0.764500X-0.184500X0.764500X-0.184500X-0.764500X0*%
%ADD18RoundRect,0.140000X-0.170000X0.140000X-0.170000X-0.140000X0.170000X-0.140000X0.170000X0.140000X0*%
%ADD19RoundRect,0.135000X0.135000X0.185000X-0.135000X0.185000X-0.135000X-0.185000X0.135000X-0.185000X0*%
%ADD20RoundRect,0.150000X0.587500X0.150000X-0.587500X0.150000X-0.587500X-0.150000X0.587500X-0.150000X0*%
%ADD21RoundRect,0.225000X0.225000X0.375000X-0.225000X0.375000X-0.225000X-0.375000X0.225000X-0.375000X0*%
%ADD22RoundRect,0.135000X-0.135000X-0.185000X0.135000X-0.185000X0.135000X0.185000X-0.135000X0.185000X0*%
%ADD23RoundRect,0.150000X-0.825000X-0.150000X0.825000X-0.150000X0.825000X0.150000X-0.825000X0.150000X0*%
%ADD24RoundRect,0.150000X-0.587500X-0.150000X0.587500X-0.150000X0.587500X0.150000X-0.587500X0.150000X0*%
%ADD25RoundRect,0.218750X0.256250X-0.218750X0.256250X0.218750X-0.256250X0.218750X-0.256250X-0.218750X0*%
%ADD26RoundRect,0.150000X0.850000X0.150000X-0.850000X0.150000X-0.850000X-0.150000X0.850000X-0.150000X0*%
%ADD27RoundRect,0.140000X-0.140000X-0.170000X0.140000X-0.170000X0.140000X0.170000X-0.140000X0.170000X0*%
%ADD28RoundRect,0.140000X0.170000X-0.140000X0.170000X0.140000X-0.170000X0.140000X-0.170000X-0.140000X0*%
%ADD29RoundRect,0.218750X0.218750X0.256250X-0.218750X0.256250X-0.218750X-0.256250X0.218750X-0.256250X0*%
%ADD30RoundRect,0.140000X0.140000X0.170000X-0.140000X0.170000X-0.140000X-0.170000X0.140000X-0.170000X0*%
%ADD31R,1.473200X0.355600*%
%ADD32RoundRect,0.225000X0.225000X0.250000X-0.225000X0.250000X-0.225000X-0.250000X0.225000X-0.250000X0*%
%ADD33RoundRect,0.020000X0.180000X-0.575000X0.180000X0.575000X-0.180000X0.575000X-0.180000X-0.575000X0*%
G04 APERTURE END LIST*
D10*
%TO.C,D4*%
X154842500Y-122242000D03*
X156417500Y-122242000D03*
%TD*%
D11*
%TO.C,R2*%
X166050000Y-106880000D03*
X166050000Y-107900000D03*
%TD*%
D12*
%TO.C,C17*%
X174950000Y-105050000D03*
X174950000Y-106600000D03*
%TD*%
D13*
%TO.C,C2*%
X174950000Y-115425000D03*
X174950000Y-113875000D03*
%TD*%
D14*
%TO.C,IC1*%
X167487500Y-105939000D03*
X167487500Y-106589000D03*
X167487500Y-107239000D03*
X167487500Y-107889000D03*
X167487500Y-108539000D03*
X167487500Y-109189000D03*
X167487500Y-109839000D03*
X167487500Y-110489000D03*
X167487500Y-111139000D03*
X167487500Y-111789000D03*
X167487500Y-112439000D03*
X167487500Y-113089000D03*
X173212500Y-113089000D03*
X173212500Y-112439000D03*
X173212500Y-111789000D03*
X173212500Y-111139000D03*
X173212500Y-110489000D03*
X173212500Y-109839000D03*
X173212500Y-109189000D03*
X173212500Y-108539000D03*
X173212500Y-107889000D03*
X173212500Y-107239000D03*
X173212500Y-106589000D03*
X173212500Y-105939000D03*
%TD*%
D15*
%TO.C,R1*%
X171675000Y-119800000D03*
X171675000Y-118780000D03*
%TD*%
D16*
%TO.C,C15*%
X168175000Y-114400000D03*
X169725000Y-114400000D03*
%TD*%
D17*
%TO.C,U5*%
X124404800Y-125706400D03*
X125054800Y-125706400D03*
X125704800Y-125706400D03*
X126354800Y-125706400D03*
X127004800Y-125706400D03*
X127654800Y-125706400D03*
X128304800Y-125706400D03*
X128954800Y-125706400D03*
X128954800Y-119966400D03*
X128304800Y-119966400D03*
X127654800Y-119966400D03*
X127004800Y-119966400D03*
X126354800Y-119966400D03*
X125704800Y-119966400D03*
X125054800Y-119966400D03*
X124404800Y-119966400D03*
%TD*%
D18*
%TO.C,C20*%
X172600000Y-121165000D03*
X172600000Y-122125000D03*
%TD*%
D16*
%TO.C,C3*%
X169050000Y-104650000D03*
X170600000Y-104650000D03*
%TD*%
D19*
%TO.C,R9*%
X119880000Y-112480000D03*
X118860000Y-112480000D03*
%TD*%
D20*
%TO.C,Q4*%
X176451500Y-130998000D03*
X176451500Y-129098000D03*
X174576500Y-130048000D03*
%TD*%
D21*
%TO.C,D1*%
X158110000Y-120210000D03*
X154810000Y-120210000D03*
%TD*%
%TO.C,D2*%
X141189000Y-120308000D03*
X137889000Y-120308000D03*
%TD*%
D18*
%TO.C,C7*%
X127635000Y-127078800D03*
X127635000Y-128038800D03*
%TD*%
D11*
%TO.C,R11*%
X130175000Y-123061000D03*
X130175000Y-124081000D03*
%TD*%
D22*
%TO.C,R14*%
X126185200Y-117551200D03*
X127205200Y-117551200D03*
%TD*%
D23*
%TO.C,U4*%
X126176000Y-109804200D03*
X126176000Y-111074200D03*
X126176000Y-112344200D03*
X126176000Y-113614200D03*
X131126000Y-113614200D03*
X131126000Y-112344200D03*
X131126000Y-111074200D03*
X131126000Y-109804200D03*
%TD*%
D24*
%TO.C,Q3*%
X148035800Y-129707600D03*
X148035800Y-131607600D03*
X149910800Y-130657600D03*
%TD*%
D22*
%TO.C,R5*%
X127010000Y-106650000D03*
X128030000Y-106650000D03*
%TD*%
D25*
%TO.C,D3*%
X119800000Y-111067500D03*
X119800000Y-109492500D03*
%TD*%
D26*
%TO.C,U6*%
X170875000Y-129910000D03*
X170875000Y-128640000D03*
X170875000Y-127370000D03*
X170875000Y-126100000D03*
X170875000Y-124830000D03*
X170875000Y-123560000D03*
X170875000Y-122290000D03*
X170875000Y-121020000D03*
X165875000Y-121020000D03*
X165875000Y-122290000D03*
X165875000Y-123560000D03*
X165875000Y-124830000D03*
X165875000Y-126100000D03*
X165875000Y-127370000D03*
X165875000Y-128640000D03*
X165875000Y-129910000D03*
%TD*%
D22*
%TO.C,R22*%
X168290000Y-131200000D03*
X169310000Y-131200000D03*
%TD*%
D27*
%TO.C,C9*%
X129285400Y-118609800D03*
X130245400Y-118609800D03*
%TD*%
%TO.C,C10*%
X130320000Y-114900000D03*
X131280000Y-114900000D03*
%TD*%
%TO.C,C13*%
X126215200Y-118618000D03*
X127175200Y-118618000D03*
%TD*%
D22*
%TO.C,R3*%
X147953000Y-123037600D03*
X148973000Y-123037600D03*
%TD*%
D19*
%TO.C,R8*%
X133504400Y-127101600D03*
X132484400Y-127101600D03*
%TD*%
D22*
%TO.C,R6*%
X126790000Y-116100000D03*
X127810000Y-116100000D03*
%TD*%
D15*
%TO.C,R18*%
X173700000Y-126110000D03*
X173700000Y-125090000D03*
%TD*%
D22*
%TO.C,R7*%
X129190000Y-116100000D03*
X130210000Y-116100000D03*
%TD*%
D11*
%TO.C,R19*%
X172605000Y-125075000D03*
X172605000Y-126095000D03*
%TD*%
D16*
%TO.C,C22*%
X170730000Y-131450000D03*
X172280000Y-131450000D03*
%TD*%
D28*
%TO.C,C21*%
X164105000Y-129865000D03*
X164105000Y-128905000D03*
%TD*%
%TO.C,C4*%
X128270000Y-118717000D03*
X128270000Y-117757000D03*
%TD*%
D29*
%TO.C,L1*%
X175237500Y-127375000D03*
X173662500Y-127375000D03*
%TD*%
D22*
%TO.C,R17*%
X140680000Y-122040000D03*
X141700000Y-122040000D03*
%TD*%
%TO.C,R15*%
X129230000Y-117620000D03*
X130250000Y-117620000D03*
%TD*%
D19*
%TO.C,R21*%
X174585000Y-122200000D03*
X173565000Y-122200000D03*
%TD*%
D10*
%TO.C,D5*%
X137908500Y-122262000D03*
X139483500Y-122262000D03*
%TD*%
D13*
%TO.C,C23*%
X175850000Y-125850000D03*
X175850000Y-124300000D03*
%TD*%
D30*
%TO.C,C6*%
X131180000Y-108508800D03*
X130220000Y-108508800D03*
%TD*%
D27*
%TO.C,C11*%
X124742000Y-127101600D03*
X125702000Y-127101600D03*
%TD*%
D13*
%TO.C,C14*%
X165800000Y-113652600D03*
X165800000Y-112102600D03*
%TD*%
D24*
%TO.C,Q2*%
X147936200Y-124272000D03*
X147936200Y-126172000D03*
X149811200Y-125222000D03*
%TD*%
D20*
%TO.C,Q1*%
X168783000Y-119380000D03*
X168783000Y-117480000D03*
X166908000Y-118430000D03*
%TD*%
D31*
%TO.C,U1*%
X167358000Y-99144200D03*
X167358000Y-99804600D03*
X167358000Y-100439600D03*
X167358000Y-101100000D03*
X167358000Y-101760400D03*
X167358000Y-102395400D03*
X167358000Y-103055800D03*
X173200000Y-103055800D03*
X173200000Y-102395400D03*
X173200000Y-101760400D03*
X173200000Y-101100000D03*
X173200000Y-100439600D03*
X173200000Y-99804600D03*
X173200000Y-99144200D03*
%TD*%
D32*
%TO.C,C16*%
X173525000Y-104650000D03*
X171975000Y-104650000D03*
%TD*%
D18*
%TO.C,C24*%
X172625000Y-129441000D03*
X172625000Y-130401000D03*
%TD*%
D33*
%TO.C,U3*%
X122750000Y-113260000D03*
X123400000Y-113260000D03*
X124050000Y-113260000D03*
X124050000Y-111340000D03*
X122750000Y-111340000D03*
%TD*%
D12*
%TO.C,C1*%
X174950000Y-110875000D03*
X174950000Y-112425000D03*
%TD*%
D22*
%TO.C,R16*%
X157601000Y-121942000D03*
X158621000Y-121942000D03*
%TD*%
D15*
%TO.C,R10*%
X126619000Y-128145000D03*
X126619000Y-127125000D03*
%TD*%
D13*
%TO.C,C18*%
X177300000Y-125850000D03*
X177300000Y-124300000D03*
%TD*%
D22*
%TO.C,R4*%
X148056900Y-128473200D03*
X149076900Y-128473200D03*
%TD*%
D27*
%TO.C,C12*%
X124740000Y-128080000D03*
X125700000Y-128080000D03*
%TD*%
D19*
%TO.C,R20*%
X174585000Y-121200000D03*
X173565000Y-121200000D03*
%TD*%
D28*
%TO.C,C5*%
X130200400Y-126006800D03*
X130200400Y-125046800D03*
%TD*%
D27*
%TO.C,C19*%
X172525000Y-123535000D03*
X173485000Y-123535000D03*
%TD*%
M02*
